<svg width="28" height="28" viewBox="0 0 28 28" fill="none" xmlns="http://www.w3.org/2000/svg">
<g clip-path="url(#clip0_304_7275)">
<path d="M19.7969 25.8125H19.2493C19.2494 25.757 19.263 25.8531 19.0602 24.6375C19.047 24.5584 18.9785 24.5 18.8983 24.5H9.1017C9.02152 24.5 8.953 24.5584 8.93982 24.6375C8.73748 25.8504 8.7506 25.7576 8.75066 25.8125H8.20312C7.53867 25.8125 7 26.3512 7 27.0156V27.5625C7 27.8041 7.19589 28 7.4375 28H20.5625C20.8041 28 21 27.8041 21 27.5625V27.0156C21 26.3512 20.4613 25.8125 19.7969 25.8125Z" fill="#464366"/>
<path d="M5.59677 7.40459C5.13986 8.07686 4.42323 8.55838 3.59215 8.70347C3.53921 8.71271 3.5 8.75761 3.5 8.81137V16.6248H24.5V8.81137C24.5 8.75761 24.4608 8.71271 24.4079 8.70347C23.5768 8.55833 22.8601 8.07686 22.4032 7.40459C22.3595 7.34033 22.2657 7.34 22.2222 7.40442C20.9692 9.25964 18.1981 9.1798 17.0567 7.25261C17.016 7.18398 16.9187 7.1801 16.8732 7.24567C15.4845 9.24799 12.5176 9.25166 11.1267 7.24567C11.0813 7.1801 10.9839 7.18398 10.9432 7.25261C9.80306 9.17734 7.03238 9.26254 5.77779 7.40448C5.73431 7.34 5.64047 7.34033 5.59677 7.40459ZM13.5625 10.0623H22.735C22.968 10.0623 23.1715 10.2382 23.1866 10.4708C23.203 10.7255 23.0012 10.9373 22.75 10.9373H13.5775C13.3445 10.9373 13.141 10.7615 13.1259 10.5289C13.1095 10.2742 13.3113 10.0623 13.5625 10.0623ZM13.5625 12.2498H22.735C22.968 12.2498 23.1715 12.4257 23.1866 12.6583C23.203 12.913 23.0012 13.1248 22.75 13.1248H13.5775C13.3445 13.1248 13.141 12.949 13.1259 12.7164C13.1095 12.4617 13.3113 12.2498 13.5625 12.2498ZM13.5625 14.4373H19.6725C19.9055 14.4373 20.109 14.6132 20.1241 14.8458C20.1405 15.1005 19.9387 15.3123 19.6875 15.3123H13.5775C13.3445 15.3123 13.141 15.1365 13.1259 14.9039C13.1095 14.6492 13.3113 14.4373 13.5625 14.4373ZM11.3741 12.2788C11.3591 12.5114 11.1557 12.6873 10.9226 12.6873C10.8927 12.6873 10.8672 12.7089 10.8623 12.7384L10.494 14.947C10.459 15.1576 10.2764 15.3123 10.0626 15.3123H6.56255C6.34873 15.3123 6.16607 15.1576 6.13107 14.947L5.7628 12.7384C5.75788 12.7089 5.73234 12.6873 5.70248 12.6873C5.46941 12.6873 5.26597 12.5114 5.25104 12.2788C5.23458 12.0239 5.43621 11.8123 5.6875 11.8123H6.57284C6.62304 11.8123 6.66673 11.7782 6.67893 11.7295L7.01313 10.3938C7.07164 10.1591 7.30953 10.017 7.54359 10.0755C7.7782 10.134 7.92039 10.3713 7.86187 10.6059L7.59451 11.6764C7.57728 11.7455 7.62945 11.8123 7.7006 11.8123H8.9244C8.99555 11.8123 9.04777 11.7455 9.03049 11.6764L8.76313 10.6059C8.70461 10.3713 8.8468 10.134 9.08141 10.0755C9.31602 10.017 9.55336 10.1591 9.61187 10.3938L9.94607 11.7295C9.95827 11.7782 10.002 11.8123 10.0522 11.8123H10.9375C11.1888 11.8123 11.3904 12.0239 11.3741 12.2788Z" fill="#464366"/>
<path d="M7.02604 14.4375H9.5992C9.65268 14.4375 9.69829 14.3988 9.7071 14.3461L9.96265 12.8149C9.97375 12.7482 9.92235 12.6875 9.85476 12.6875H6.77054C6.70295 12.6875 6.65154 12.7482 6.66265 12.8149L6.9182 14.3461C6.92695 14.3988 6.97256 14.4375 7.02604 14.4375Z" fill="#464366"/>
<path d="M25.375 17.0626C25.375 17.3042 25.1791 17.5001 24.9375 17.5001H3.0625C2.82089 17.5001 2.625 17.3042 2.625 17.0626V8.81164C2.625 8.75794 2.58579 8.71304 2.53291 8.7038C1.97427 8.60634 1.46694 8.35669 1.05596 7.99931C0.985141 7.93773 0.875 7.98766 0.875 8.08151V19.0861C0.875 19.1767 0.948445 19.2501 1.03906 19.2501H26.9609C27.0516 19.2501 27.125 19.1767 27.125 19.0861V8.08151C27.125 7.98766 27.0149 7.93773 26.944 7.99931C26.5331 8.35669 26.0257 8.60634 25.4671 8.7038C25.4142 8.71304 25.375 8.75794 25.375 8.81164V17.0626Z" fill="#464366"/>
<path d="M17.5 5.6875C17.5 6.91124 18.5095 7.90316 19.7397 7.8744C20.9341 7.84645 21.875 6.8413 21.875 5.64654V5.41406C21.875 5.32345 21.8016 5.25 21.7109 5.25H17.6641C17.5734 5.25 17.5 5.32345 17.5 5.41406V5.6875Z" fill="#464366"/>
<path d="M21.7643 4.18398L21.0894 0.137102C21.0762 0.0579687 21.0078 0 20.9276 0H17.2783C17.1824 0 17.1069 0.0820313 17.1148 0.17768L17.4523 4.22455C17.4594 4.30959 17.5304 4.375 17.6158 4.375H21.6024C21.7038 4.375 21.7809 4.28395 21.7643 4.18398Z" fill="#464366"/>
<path d="M22.75 5.41406V5.64654C22.75 6.8413 23.6909 7.84645 24.8853 7.8744C26.1155 7.90316 27.125 6.91124 27.125 5.6875V5.41406C27.125 5.32345 27.0516 5.25 26.9609 5.25H22.9141C22.8234 5.25 22.75 5.32345 22.75 5.41406Z" fill="#464366"/>
<path d="M26.7279 4.375C26.8399 4.375 26.9189 4.2653 26.8835 4.15904L25.5971 0.299141C25.5375 0.120312 25.3707 0 25.182 0H22.1475C22.0461 0 21.969 0.0910547 21.9857 0.191023L22.6605 4.2379C22.6737 4.31698 22.7422 4.375 22.8223 4.375H26.7279Z" fill="#464366"/>
<path d="M14.0001 7.875C15.3898 7.875 16.5305 6.78995 16.6196 5.42243C16.6256 5.32875 16.5495 5.25 16.4556 5.25H11.5447C11.4508 5.25 11.3746 5.32875 11.3807 5.42243C11.4698 6.78995 12.6105 7.875 14.0001 7.875Z" fill="#464366"/>
<path d="M16.0714 0H11.9283C11.843 0 11.7719 0.0654062 11.7648 0.150445L11.4273 4.19732C11.4194 4.29297 11.4949 4.375 11.5908 4.375H16.4088C16.5047 4.375 16.5802 4.29297 16.5723 4.19732L16.2349 0.150445C16.2278 0.0654062 16.1567 0 16.0714 0V0Z" fill="#464366"/>
<path d="M10.7215 0H7.07234C6.99217 0 6.9237 0.0579687 6.91052 0.137102L6.23567 4.18398C6.21899 4.284 6.2961 4.375 6.39749 4.375H10.3841C10.4694 4.375 10.5405 4.30959 10.5476 4.22455L10.885 0.17768C10.893 0.0820313 10.8175 0 10.7215 0V0Z" fill="#464366"/>
<path d="M8.36467 7.8744C9.5591 7.84645 10.5 6.8413 10.5 5.64654V5.41406C10.5 5.32345 10.4266 5.25 10.3359 5.25H6.28906C6.19845 5.25 6.125 5.32345 6.125 5.41406V5.6875C6.125 6.91124 7.13453 7.90316 8.36467 7.8744Z" fill="#464366"/>
<path d="M3.11467 7.8744C4.3091 7.84645 5.25 6.8413 5.25 5.64654V5.41406C5.25 5.32345 5.17655 5.25 5.08594 5.25H1.03906C0.948445 5.25 0.875 5.32345 0.875 5.41406V5.6875C0.875 6.91124 1.88453 7.90316 3.11467 7.8744Z" fill="#464366"/>
<path d="M6.01436 0.191023C6.03099 0.0910547 5.95388 0 5.85249 0H2.81799C2.62932 0 2.46252 0.120312 2.40291 0.299141L1.11644 4.15904C1.08106 4.2653 1.16014 4.375 1.27208 4.375H5.1777C5.25787 4.375 5.32634 4.31703 5.33952 4.2379L6.01436 0.191023Z" fill="#464366"/>
<path d="M0.875 21.875C0.875 22.8415 1.65851 23.625 2.625 23.625H25.375C26.3415 23.625 27.125 22.8415 27.125 21.875V20.2891C27.125 20.1984 27.0516 20.125 26.9609 20.125H1.03906C0.948445 20.125 0.875 20.1984 0.875 20.2891V21.875ZM13.5712 21.7895C13.6462 21.4056 14.1526 21.312 14.3636 21.632C14.4979 21.831 14.443 22.1066 14.2428 22.2385C13.9201 22.4563 13.4899 22.1656 13.5712 21.7895Z" fill="#464366"/>
</g>
<defs>
<clipPath id="clip0_304_7275">
<rect width="28" height="28" fill="white"/>
</clipPath>
</defs>
</svg>
