<svg width="28" height="28" viewBox="0 0 28 28" fill="none" xmlns="http://www.w3.org/2000/svg">
<path d="M9.3335 2.3335H5.8335C3.9005 2.3335 2.3335 3.9005 2.3335 5.8335V9.3335C2.3335 11.2665 3.9005 12.8335 5.8335 12.8335H9.3335C11.2665 12.8335 12.8335 11.2665 12.8335 9.3335V5.8335C12.8335 3.9005 11.2665 2.3335 9.3335 2.3335Z" fill="#464366"/>
<path d="M22.167 2.3335H18.667C16.734 2.3335 15.167 3.9005 15.167 5.8335V9.3335C15.167 11.2665 16.734 12.8335 18.667 12.8335H22.167C24.1 12.8335 25.667 11.2665 25.667 9.3335V5.8335C25.667 3.9005 24.1 2.3335 22.167 2.3335Z" fill="#464366"/>
<path d="M9.3335 15.167H5.8335C3.9005 15.167 2.3335 16.734 2.3335 18.667V22.167C2.3335 24.1 3.9005 25.667 5.8335 25.667H9.3335C11.2665 25.667 12.8335 24.1 12.8335 22.167V18.667C12.8335 16.734 11.2665 15.167 9.3335 15.167Z" fill="#464366"/>
<path d="M22.167 15.167H18.667C16.734 15.167 15.167 16.734 15.167 18.667V22.167C15.167 24.1 16.734 25.667 18.667 25.667H22.167C24.1 25.667 25.667 24.1 25.667 22.167V18.667C25.667 16.734 24.1 15.167 22.167 15.167Z" fill="#464366"/>
</svg>
