<svg width="20" height="20" viewBox="0 0 20 20" fill="none" xmlns="http://www.w3.org/2000/svg">
<path d="M19.9945 19.9996V19.9988H19.9995V12.6639C19.9995 9.0757 19.227 6.31148 15.0321 6.31148C13.0153 6.31148 11.6621 7.41822 11.1096 8.46721H11.0514V6.64648H7.0739V19.9988H11.2156V13.3872C11.2156 11.6464 11.5456 9.96294 13.7013 9.96294C15.8256 9.96294 15.8571 11.9497 15.8571 13.4987V19.9996H19.9945Z" fill="white"/>
<path d="M0.330604 6.64768H4.4773V20H0.330604V6.64768Z" fill="white"/>
<path d="M2.40173 0C1.07574 0 0 1.07574 0 2.40172C0 3.72771 1.07574 4.82594 2.40173 4.82594C3.72772 4.82594 4.80346 3.72771 4.80346 2.40172C4.80246 1.07574 3.72672 0 2.40173 0Z" fill="white"/>
</svg>
