<svg width="24" height="24" viewBox="0 0 24 24" fill="none" xmlns="http://www.w3.org/2000/svg">
<path d="M9.87973 5.0371C10.338 4.9819 11.4952 5 11.9997 5V3C11.9999 2.8231 12.047 2.64942 12.1362 2.49665C12.2254 2.34387 12.3535 2.21747 12.5074 2.13033C12.6613 2.04318 12.8356 1.99841 13.0125 2.00056C13.1894 2.00272 13.3626 2.05173 13.5143 2.1426L21.5143 6.9426C21.6622 7.03159 21.7845 7.15731 21.8695 7.30754C21.9544 7.45778 21.999 7.62742 21.999 7.8C21.999 7.97258 21.9544 8.14222 21.8695 8.29246C21.7845 8.44269 21.6622 8.56841 21.5143 8.6574L13.5143 13.4574C13.3626 13.5483 13.1894 13.5973 13.0125 13.5994C12.8356 13.6016 12.6613 13.5568 12.5074 13.4697C12.3535 13.3825 12.2254 13.2561 12.1362 13.1034C12.047 12.9506 11.9999 12.7769 11.9997 12.6V11H9.99973C8.06973 11 5.00973 12.6973 5.00973 17.25C5.00923 17.4696 4.93651 17.6829 4.80278 17.8571C4.66905 18.0312 4.48174 18.1566 4.26974 18.2138C4.05773 18.271 3.83279 18.2568 3.62962 18.1735C3.42644 18.0903 3.2563 17.9424 3.14543 17.7529C2.42495 16.5077 2.0328 15.0998 2.00583 13.6614C1.97886 12.2231 2.31796 10.8014 2.99125 9.5301C3.66455 8.25876 4.64997 7.17944 5.85493 6.3935C7.05989 5.60757 8.44486 5.14082 9.87973 5.0371Z" fill="#464366"/>
</svg>
