<svg width="24" height="24" viewBox="0 0 24 24" fill="none" xmlns="http://www.w3.org/2000/svg">
<path d="M15.109 14.9671L14.2581 15.818C14.2031 15.8754 14.137 15.921 14.0639 15.9519C13.9907 15.9829 13.912 15.9986 13.8326 15.998C13.6726 15.9966 13.5196 15.9319 13.4071 15.818L11.0017 13.3799C10.946 13.3239 10.902 13.2575 10.872 13.1845C10.8421 13.1115 10.8268 13.0333 10.8271 12.9544V7.29805C10.8271 7.13892 10.8904 6.9863 11.0029 6.87378C11.1154 6.76126 11.268 6.69805 11.4271 6.69805H12.6271C12.7858 6.69947 12.9376 6.76314 13.0498 6.87536C13.162 6.98757 13.2257 7.13936 13.2271 7.29805V11.9617C13.2268 12.0406 13.2421 12.1188 13.272 12.1918C13.302 12.2648 13.346 12.3312 13.4017 12.3871L15.1362 14.1217C15.2443 14.2376 15.302 14.3916 15.2969 14.55C15.2918 14.7084 15.2242 14.8584 15.109 14.9671ZM11.9999 2.49805C10.1206 2.49805 8.28351 3.05532 6.72094 4.09939C5.15838 5.14347 3.9405 6.62745 3.22133 8.36368C2.50216 10.0999 2.314 12.0104 2.68063 13.8536C3.04726 15.6968 3.95222 17.3898 5.28107 18.7187C6.60992 20.0475 8.30298 20.9525 10.1462 21.3191C11.9893 21.6857 13.8998 21.4976 15.6361 20.7784C17.3723 20.0592 18.8563 18.8414 19.9003 17.2788C20.9444 15.7162 21.5017 13.8791 21.5017 11.9999C21.5017 9.47983 20.5006 7.063 18.7187 5.28106C16.9367 3.49913 14.5199 2.49805 11.9999 2.49805Z" fill="#A5A5A5"/>
</svg>
