<svg width="254" height="38" viewBox="0 0 254 38" fill="none" xmlns="http://www.w3.org/2000/svg">
<rect x="162.5" y="0.5" width="37" height="37" rx="11.5" fill="#15132B" stroke="#15132B"/>
<path d="M184.109 21.9673L183.258 22.8182C183.203 22.8755 183.137 22.9211 183.064 22.9521C182.991 22.983 182.912 22.9987 182.833 22.9982C182.673 22.9968 182.52 22.932 182.407 22.8182L180.002 20.38C179.946 20.324 179.902 20.2577 179.872 20.1846C179.842 20.1116 179.827 20.0334 179.827 19.9545V14.2982C179.827 14.139 179.89 13.9864 180.003 13.8739C180.115 13.7614 180.268 13.6982 180.427 13.6982H181.627C181.786 13.6996 181.938 13.7633 182.05 13.8755C182.162 13.9877 182.226 14.1395 182.227 14.2982V18.9618C182.227 19.0407 182.242 19.1189 182.272 19.1919C182.302 19.2649 182.346 19.3313 182.402 19.3873L184.136 21.1218C184.244 21.2378 184.302 21.3918 184.297 21.5502C184.292 21.7086 184.224 21.8585 184.109 21.9673ZM181 9.49817C179.121 9.49817 177.284 10.0554 175.721 11.0995C174.158 12.1436 172.941 13.6276 172.221 15.3638C171.502 17.1 171.314 19.0105 171.681 20.8537C172.047 22.6969 172.952 24.3899 174.281 25.7188C175.61 27.0476 177.303 27.9526 179.146 28.3192C180.989 28.6859 182.9 28.4977 184.636 27.7785C186.372 27.0594 187.856 25.8415 188.9 24.2789C189.944 22.7163 190.502 20.8793 190.502 19C190.502 16.4799 189.501 14.0631 187.719 12.2812C185.937 10.4993 183.52 9.49817 181 9.49817Z" fill="#A5A5A5"/>
<rect x="54.5" y="0.5" width="37" height="37" rx="11.5" fill="#15132B" stroke="#15132B"/>
<path d="M75.1203 12.0371C74.662 11.9819 73.5048 12 73.0003 12V10C73.0001 9.8231 72.953 9.64942 72.8638 9.49665C72.7746 9.34387 72.6465 9.21747 72.4926 9.13033C72.3387 9.04318 72.1644 8.99841 71.9875 9.00056C71.8106 9.00272 71.6374 9.05173 71.4857 9.1426L63.4857 13.9426C63.3378 14.0316 63.2155 14.1573 63.1305 14.3075C63.0456 14.4578 63.001 14.6274 63.001 14.8C63.001 14.9726 63.0456 15.1422 63.1305 15.2925C63.2155 15.4427 63.3378 15.5684 63.4857 15.6574L71.4857 20.4574C71.6374 20.5483 71.8106 20.5973 71.9875 20.5994C72.1644 20.6016 72.3387 20.5568 72.4926 20.4697C72.6465 20.3825 72.7746 20.2561 72.8638 20.1034C72.953 19.9506 73.0001 19.7769 73.0003 19.6V18H75.0003C76.9303 18 79.9903 19.6973 79.9903 24.25C79.9908 24.4696 80.0635 24.6829 80.1972 24.8571C80.3309 25.0312 80.5183 25.1566 80.7303 25.2138C80.9423 25.271 81.1672 25.2568 81.3704 25.1735C81.5736 25.0903 81.7437 24.9424 81.8546 24.7529C82.5751 23.5077 82.9672 22.0998 82.9942 20.6614C83.0211 19.2231 82.682 17.8014 82.0087 16.5301C81.3354 15.2588 80.35 14.1794 79.1451 13.3935C77.9401 12.6076 76.5551 12.1408 75.1203 12.0371Z" fill="#38E25D"/>
<rect x="0.5" y="0.5" width="37" height="37" rx="11.5" fill="#15132B" stroke="#15132B"/>
<path d="M28 13.75H13.375V10C13.375 9.80109 13.454 9.61032 13.5947 9.46967C13.7353 9.32902 13.9261 9.25 14.125 9.25H23.5C23.6989 9.25 23.8897 9.32902 24.0303 9.46967C24.171 9.61032 24.25 9.80109 24.25 10V12.25C24.25 12.4489 24.329 12.6397 24.4697 12.7803C24.6103 12.921 24.8011 13 25 13C25.1989 13 25.3897 12.921 25.5303 12.7803C25.671 12.6397 25.75 12.4489 25.75 12.25V10C25.75 9.40326 25.5129 8.83097 25.091 8.40901C24.669 7.98705 24.0967 7.75 23.5 7.75H14.125C13.5283 7.75 12.956 7.98705 12.534 8.40901C12.1121 8.83097 11.875 9.40326 11.875 10V13.75H10C9.40326 13.75 8.83097 13.9871 8.40901 14.409C7.98705 14.831 7.75 15.4033 7.75 16V22.75C7.75 23.3467 7.98705 23.919 8.40901 24.341C8.83097 24.7629 9.40326 25 10 25H11.875V27.625C11.875 28.2217 12.1121 28.794 12.534 29.216C12.956 29.6379 13.5283 29.875 14.125 29.875H23.875C24.4717 29.875 25.044 29.6379 25.466 29.216C25.8879 28.794 26.125 28.2217 26.125 27.625V25H28C28.5967 25 29.169 24.7629 29.591 24.341C30.0129 23.919 30.25 23.3467 30.25 22.75V16C30.25 15.4033 30.0129 14.831 29.591 14.409C29.169 13.9871 28.5967 13.75 28 13.75ZM26.5 19C26.2033 19 25.9133 18.912 25.6666 18.7472C25.42 18.5824 25.2277 18.3481 25.1142 18.074C25.0006 17.7999 24.9709 17.4983 25.0288 17.2074C25.0867 16.9164 25.2296 16.6491 25.4393 16.4393C25.6491 16.2296 25.9164 16.0867 26.2074 16.0288C26.4983 15.9709 26.7999 16.0006 27.074 16.1142C27.3481 16.2277 27.5824 16.42 27.7472 16.6666C27.912 16.9133 28 17.2033 28 17.5C28 17.8978 27.842 18.2794 27.5607 18.5607C27.2794 18.842 26.8978 19 26.5 19ZM24.625 27.625C24.625 27.8239 24.546 28.0147 24.4053 28.1553C24.2647 28.296 24.0739 28.375 23.875 28.375H14.125C13.9261 28.375 13.7353 28.296 13.5947 28.1553C13.454 28.0147 13.375 27.8239 13.375 27.625V23.5C13.375 23.3011 13.454 23.1103 13.5947 22.9697C13.7353 22.829 13.9261 22.75 14.125 22.75H23.875C24.0739 22.75 24.2647 22.829 24.4053 22.9697C24.546 23.1103 24.625 23.3011 24.625 23.5V27.625Z" fill="#5ECFFF"/>
<rect x="108.5" y="0.5" width="37" height="37" rx="11.5" fill="#15132B" stroke="#15132B"/>
<path d="M134 9H120C119.204 9 118.441 9.31607 117.879 9.87868C117.316 10.4413 117 11.2044 117 12V14C117 14.2652 117.105 14.5196 117.293 14.7071C117.48 14.8946 117.735 15 118 15H119V26C119 26.7957 119.316 27.5587 119.879 28.1213C120.441 28.6839 121.204 29 122 29H132C132.796 29 133.559 28.6839 134.121 28.1213C134.684 27.5587 135 26.7957 135 26V15H136C136.265 15 136.52 14.8946 136.707 14.7071C136.895 14.5196 137 14.2652 137 14V12C137 11.2044 136.684 10.4413 136.121 9.87868C135.559 9.31607 134.796 9 134 9ZM125 24C125 24.2652 124.895 24.5196 124.707 24.7071C124.52 24.8946 124.265 25 124 25C123.735 25 123.48 24.8946 123.293 24.7071C123.105 24.5196 123 24.2652 123 24V18C123 17.7348 123.105 17.4804 123.293 17.2929C123.48 17.1054 123.735 17 124 17C124.265 17 124.52 17.1054 124.707 17.2929C124.895 17.4804 125 17.7348 125 18V24ZM131 24C131 24.2652 130.895 24.5196 130.707 24.7071C130.52 24.8946 130.265 25 130 25C129.735 25 129.48 24.8946 129.293 24.7071C129.105 24.5196 129 24.2652 129 24V18C129 17.7348 129.105 17.4804 129.293 17.2929C129.48 17.1054 129.735 17 130 17C130.265 17 130.52 17.1054 130.707 17.2929C130.895 17.4804 131 17.7348 131 18V24Z" fill="#FF4A55"/>
<rect x="216.5" y="0.5" width="37" height="37" rx="11.5" fill="#15132B" stroke="#15132B"/>
<circle cx="235.5" cy="10.5" r="2.5" fill="#A5A5A5"/>
<circle cx="235.5" cy="18.5" r="2.5" fill="#A5A5A5"/>
<circle cx="235.5" cy="26.5" r="2.5" fill="#A5A5A5"/>
</svg>
