<svg width="24" height="24" viewBox="0 0 24 24" fill="none" xmlns="http://www.w3.org/2000/svg">
<g clip-path="url(#clip0_304_11053)">
<path d="M13.5038 20.9975C7.70695 20.9975 3.00762 16.2982 3.00762 10.5013C3.00762 4.70436 7.7069 0.00512695 13.5038 0.00512695C19.3007 0.00512695 24 4.70441 24 10.5013C24 16.2982 19.3007 20.9975 13.5038 20.9975ZM13.5038 3.00405C9.36317 3.00405 6.00654 6.36068 6.00654 10.5013C6.00654 14.642 9.36317 17.9986 13.5038 17.9986C17.6445 17.9986 21.0011 14.642 21.0011 10.5013C21.0011 6.36068 17.6444 3.00405 13.5038 3.00405Z" fill="#A5A5A5"/>
<path d="M1.50815 23.9964C1.10958 23.9987 0.726507 23.8422 0.443546 23.5616C-0.144446 22.9784 -0.148323 22.029 0.434863 21.441C0.437757 21.4381 0.440651 21.4352 0.443546 21.4323L6.08149 15.7944C6.69015 15.2064 7.66023 15.2232 8.24823 15.8319C8.83622 16.4405 8.81942 17.4106 8.21076 17.9986L2.57276 23.5616C2.2898 23.8422 1.90673 23.9987 1.50815 23.9964Z" fill="#A5A5A5"/>
</g>
<defs>
<clipPath id="clip0_304_11053">
<rect width="24" height="24" fill="white"/>
</clipPath>
</defs>
</svg>
