<svg width="28" height="28" viewBox="0 0 28 28" fill="none" xmlns="http://www.w3.org/2000/svg">
<path d="M13.3468 4.84183L12.7752 3.12683C12.6949 2.89639 12.5452 2.69643 12.3468 2.5544C12.1484 2.41236 11.9109 2.3352 11.6668 2.3335H5.8335C4.90607 2.3362 4.01741 2.70582 3.36161 3.36161C2.70582 4.01741 2.3362 4.90607 2.3335 5.8335V8.16683H10.0218L13.3468 4.84183Z" fill="#464366"/>
<path d="M22.1668 5.8335H15.6452L11.3285 10.1618C11.1061 10.3768 10.8095 10.4979 10.5002 10.5002H2.3335V19.8335C2.3362 20.7609 2.70582 21.6496 3.36161 22.3054C4.01741 22.9612 4.90607 23.3308 5.8335 23.3335H10.2785C9.65411 22.2732 9.32762 21.064 9.3335 19.8335C9.3335 17.977 10.071 16.1965 11.3837 14.8837C12.6965 13.571 14.477 12.8335 16.3335 12.8335C18.19 12.8335 19.9705 13.571 21.2832 14.8837C22.596 16.1965 23.3335 17.977 23.3335 19.8335C23.3362 21.0583 23.0141 22.262 22.4002 23.3218C23.285 23.2615 24.114 22.868 24.7202 22.2207C25.3264 21.5734 25.6646 20.7203 25.6668 19.8335V9.3335C25.6641 8.40607 25.2945 7.51741 24.6387 6.86161C23.9829 6.20582 23.0943 5.8362 22.1668 5.8335Z" fill="#464366"/>
<path d="M16.3333 14C15.1796 14 14.0518 14.3421 13.0925 14.9831C12.1332 15.6241 11.3855 16.5351 10.944 17.601C10.5025 18.6669 10.387 19.8398 10.6121 20.9714C10.8372 22.1029 11.3927 23.1423 12.2085 23.9581C13.0244 24.7739 14.0638 25.3295 15.1953 25.5546C16.3269 25.7797 17.4998 25.6641 18.5657 25.2226C19.6316 24.7811 20.5426 24.0334 21.1836 23.0742C21.8246 22.1149 22.1667 20.9871 22.1667 19.8333C22.1648 18.2868 21.5497 16.8041 20.4561 15.7106C19.3625 14.617 17.8799 14.0018 16.3333 14ZM18.42 17.0401L12.9508 20.6863C12.7728 19.9873 12.8161 19.2503 13.0747 18.577C13.3333 17.9036 13.7945 17.3272 14.3947 16.9271C14.9948 16.527 15.7043 16.323 16.4253 16.3432C17.1463 16.3634 17.8433 16.6069 18.42 17.0401ZM14.2468 22.6267L19.7161 18.9805C19.894 19.6795 19.8507 20.4165 19.5921 21.0898C19.3334 21.7631 18.8722 22.3396 18.272 22.7397C17.6719 23.1398 16.9623 23.3437 16.2413 23.3235C15.5203 23.3032 14.8234 23.0597 14.2466 22.6266L14.2468 22.6267Z" fill="#464366"/>
</svg>
