<svg width="24" height="24" viewBox="0 0 24 24" fill="none" xmlns="http://www.w3.org/2000/svg">
<g clip-path="url(#clip0_304_8052)">
<path d="M21.2959 8.6858C21.1795 8.44064 20.9322 8.28427 20.6607 8.28427H13.6086L17.877 1.06083C18.0055 0.843469 18.0075 0.573844 17.8823 0.354609C17.7572 0.135375 17.5241 -9.37014e-05 17.2716 4.86277e-08L11.2466 0.000656299C10.9965 0.000750049 10.7653 0.1335 10.6394 0.349453L2.73155 13.905C2.60466 14.1224 2.60377 14.3911 2.72916 14.6094C2.85455 14.8277 3.08709 14.9624 3.33886 14.9624H10.3461L8.30517 23.1263C8.2253 23.4457 8.37787 23.7779 8.67225 23.9255C8.77266 23.9757 8.88033 24 8.98697 24C9.19303 24 9.39497 23.9094 9.53212 23.7413L21.2056 9.43186C21.3772 9.22148 21.4124 8.93105 21.2959 8.6858Z" fill="white"/>
</g>
<defs>
<clipPath id="clip0_304_8052">
<rect width="24" height="24" fill="white"/>
</clipPath>
</defs>
</svg>
