<svg width="28" height="28" viewBox="0 0 28 28" fill="none" xmlns="http://www.w3.org/2000/svg">
<path d="M14.0001 13.8376L25.3831 7.62872C25.021 6.4376 24.2867 5.39389 23.2879 4.65081C22.2891 3.90772 21.0784 3.50438 19.8335 3.5H8.16679C6.92188 3.50438 5.71115 3.90772 4.71233 4.65081C3.71351 5.39389 2.9792 6.4376 2.61719 7.62872L14.0001 13.8376Z" fill="#6418C3"/>
<path d="M14.559 16.1909C14.3876 16.2844 14.1954 16.3334 14.0002 16.3334C13.8049 16.3334 13.6128 16.2844 13.4413 16.1909L2.3335 10.1321V18.6667C2.33532 20.2133 2.95048 21.6959 4.04405 22.7895C5.13762 23.8831 6.62029 24.4982 8.16683 24.5H19.8335C21.38 24.4982 22.8627 23.8831 23.9563 22.7895C25.0498 21.6959 25.665 20.2133 25.6668 18.6667V10.1321L14.559 16.1909Z" fill="#6418C3"/>
</svg>
