<svg width="20" height="20" viewBox="0 0 20 20" fill="none" xmlns="http://www.w3.org/2000/svg">
<path d="M9.99999 9.884L18.1307 5.44908C17.8721 4.59828 17.3476 3.85278 16.6341 3.322C15.9207 2.79123 15.0559 2.50313 14.1667 2.5H5.83332C4.9441 2.50313 4.0793 2.79123 3.36586 3.322C2.65241 3.85278 2.12791 4.59828 1.86932 5.44908L9.99999 9.884Z" fill="white"/>
<path d="M10.3993 11.5651C10.2768 11.6318 10.1396 11.6668 10.0001 11.6668C9.86064 11.6668 9.7234 11.6318 9.60095 11.5651L1.66678 7.2373V13.3335C1.66808 14.4381 2.10748 15.4972 2.8886 16.2783C3.66972 17.0594 4.72878 17.4988 5.83345 17.5001H14.1668C15.2714 17.4988 16.3305 17.0594 17.1116 16.2783C17.8927 15.4972 18.3321 14.4381 18.3334 13.3335V7.2373L10.3993 11.5651Z" fill="white"/>
</svg>
