<svg width="24" height="24" viewBox="0 0 24 24" fill="none" xmlns="http://www.w3.org/2000/svg">
<path d="M3.23013 13.7498C3.0792 13.9016 2.98104 14.0979 2.95013 14.3098L2.01013 20.8598C1.98694 21.0135 2.00017 21.1706 2.04876 21.3182C2.09735 21.4659 2.17993 21.6001 2.28987 21.7101C2.3998 21.82 2.53401 21.9026 2.68169 21.9512C2.82937 21.9998 2.9864 22.013 3.14013 21.9898L9.69013 21.0498C9.90197 21.0189 10.0983 20.9207 10.2501 20.7698L17.9701 13.0598L10.9401 6.03979L3.23013 13.7498Z" fill="#464366"/>
<path d="M13.5199 3.46005L12.3599 4.62005L19.3799 11.6401L20.5499 10.4801C25.1827 5.82305 18.1561 -1.17615 13.5199 3.46005Z" fill="#464366"/>
</svg>
