<svg width="28" height="28" viewBox="0 0 28 28" fill="none" xmlns="http://www.w3.org/2000/svg">
<g clip-path="url(#clip0_304_7240)">
<path d="M20.9998 10.9376C20.9999 9.94724 20.8546 8.96227 20.5685 8.01418C20.1622 6.66556 19.4774 5.41725 18.5582 4.35001C17.6391 3.28276 16.5062 2.42037 15.2327 1.81861C13.9592 1.21685 12.5736 0.889141 11.1655 0.856677C9.75742 0.824214 8.35818 1.08772 7.05834 1.63015C5.75851 2.17258 4.58702 2.98185 3.61968 4.0056C2.65234 5.02935 1.9107 6.24478 1.44273 7.57324C0.974764 8.90171 0.7909 10.3136 0.903036 11.7176C1.01517 13.1216 1.42081 14.4865 2.0937 15.7238L0.908075 19.8853C0.870976 20.0155 0.864602 20.1526 0.889456 20.2857C0.914309 20.4188 0.969711 20.5443 1.0513 20.6523C1.13289 20.7604 1.23845 20.848 1.35966 20.9084C1.48087 20.9687 1.61443 21.0001 1.74983 21.0001C1.83088 20.9999 1.91153 20.9887 1.98958 20.9668L6.15195 19.7803C6.74252 20.1039 7.36543 20.3647 8.01045 20.5582C8.95838 20.8515 9.94506 21.0005 10.9373 21.0001C13.6051 20.997 16.1628 19.9359 18.0493 18.0495C19.9357 16.1631 20.9968 13.6054 20.9998 10.9376Z" fill="#464366"/>
<path d="M27.0918 26.0102L25.9062 21.8487C27.1172 19.6199 27.4402 17.0156 26.8105 14.5586C26.1808 12.1015 24.6449 9.97359 22.5112 8.60205C22.8618 10.3169 22.826 12.0883 22.4066 13.7876C21.9871 15.4868 21.1945 17.0714 20.0863 18.4261C18.978 19.7809 17.582 20.8718 15.9995 21.6197C14.417 22.3676 12.6879 22.7537 10.9376 22.7499C10.1577 22.7475 9.38001 22.6669 8.61621 22.5093C9.53107 23.9186 10.782 25.0783 12.2564 25.884C13.7308 26.6897 15.3824 27.1161 17.0626 27.1249C18.7348 27.1252 20.3804 26.7061 21.8488 25.9061L26.0103 27.0917C26.0884 27.1136 26.169 27.1247 26.2501 27.1249C26.3855 27.125 26.519 27.0936 26.6403 27.0332C26.7615 26.9729 26.867 26.8853 26.9486 26.7772C27.0302 26.6692 27.0856 26.5436 27.1105 26.4105C27.1353 26.2774 27.1289 26.1404 27.0918 26.0102Z" fill="#464366"/>
</g>
<defs>
<clipPath id="clip0_304_7240">
<rect width="28" height="28" fill="white"/>
</clipPath>
</defs>
</svg>
