<svg width="46" height="22" viewBox="0 0 46 22" fill="none" xmlns="http://www.w3.org/2000/svg">
<path d="M44.2308 22C43.2536 22 42.4615 21.212 42.4615 20.24C42.4615 19.268 43.2536 18.48 44.2308 18.48C45.2079 18.48 46 19.268 46 20.24C46 21.212 45.2079 22 44.2308 22Z" fill="white"/>
<path d="M44.2308 12.76C43.2536 12.76 42.4615 11.972 42.4615 11C42.4615 10.028 43.2536 9.24 44.2308 9.24C45.2079 9.24 46 10.028 46 11C46 11.972 45.2079 12.76 44.2308 12.76Z" fill="white"/>
<path d="M44.2308 3.52C43.2537 3.52 42.4615 2.73202 42.4615 1.76C42.4615 0.787979 43.2537 -1.20047e-07 44.2308 -7.73355e-08C45.2079 -3.46243e-08 46 0.787979 46 1.76C46 2.73202 45.2079 3.52 44.2308 3.52Z" fill="white"/>
<path d="M33.6154 22C32.6383 22 31.8462 21.212 31.8462 20.24C31.8462 19.268 32.6383 18.48 33.6154 18.48C34.5925 18.48 35.3846 19.268 35.3846 20.24C35.3846 21.212 34.5925 22 33.6154 22Z" fill="white"/>
<path d="M33.6154 12.76C32.6383 12.76 31.8462 11.972 31.8462 11C31.8462 10.028 32.6383 9.24 33.6154 9.24C34.5925 9.24 35.3846 10.028 35.3846 11C35.3846 11.972 34.5925 12.76 33.6154 12.76Z" fill="white"/>
<path d="M33.6154 3.52C32.6383 3.52 31.8462 2.73202 31.8462 1.76C31.8462 0.787978 32.6383 -5.8406e-07 33.6154 -5.41349e-07C34.5925 -4.98637e-07 35.3846 0.787978 35.3846 1.76C35.3846 2.73202 34.5925 3.52 33.6154 3.52Z" fill="white"/>
<path d="M23 22C22.0229 22 21.2308 21.212 21.2308 20.24C21.2308 19.268 22.0229 18.48 23 18.48C23.9771 18.48 24.7692 19.268 24.7692 20.24C24.7692 21.212 23.9771 22 23 22Z" fill="white"/>
<path d="M23 12.76C22.0229 12.76 21.2308 11.972 21.2308 11C21.2308 10.028 22.0229 9.24 23 9.24C23.9771 9.24 24.7692 10.028 24.7692 11C24.7692 11.972 23.9771 12.76 23 12.76Z" fill="white"/>
<path d="M23 3.52C22.0229 3.52 21.2308 2.73202 21.2308 1.76C21.2308 0.787978 22.0229 -1.04807e-06 23 -1.00536e-06C23.9771 -9.62651e-07 24.7692 0.787978 24.7692 1.76C24.7692 2.73202 23.9771 3.52 23 3.52Z" fill="white"/>
<path d="M12.3846 22C11.4075 22 10.6154 21.212 10.6154 20.24C10.6154 19.268 11.4075 18.48 12.3846 18.48C13.3617 18.48 14.1538 19.268 14.1538 20.24C14.1538 21.212 13.3617 22 12.3846 22Z" fill="white"/>
<path d="M12.3846 12.76C11.4075 12.76 10.6154 11.972 10.6154 11C10.6154 10.028 11.4075 9.24 12.3846 9.24C13.3617 9.24 14.1538 10.028 14.1538 11C14.1538 11.972 13.3617 12.76 12.3846 12.76Z" fill="white"/>
<path d="M12.3846 3.52C11.4075 3.52 10.6154 2.73202 10.6154 1.76C10.6154 0.787977 11.4075 -1.51209e-06 12.3846 -1.46938e-06C13.3617 -1.42666e-06 14.1538 0.787977 14.1538 1.76C14.1538 2.73202 13.3617 3.52 12.3846 3.52Z" fill="white"/>
<path d="M1.76923 22C0.792113 22 -9.27207e-07 21.212 -8.84718e-07 20.24C-8.4223e-07 19.268 0.792113 18.48 1.76923 18.48C2.74635 18.48 3.53846 19.268 3.53846 20.24C3.53846 21.212 2.74635 22 1.76923 22Z" fill="white"/>
<path d="M1.76923 12.76C0.792114 12.76 -5.23314e-07 11.972 -4.80825e-07 11C-4.38337e-07 10.028 0.792114 9.24 1.76923 9.24C2.74635 9.24 3.53846 10.028 3.53846 11C3.53846 11.972 2.74635 12.76 1.76923 12.76Z" fill="white"/>
<path d="M1.76923 3.52C0.792114 3.52 -1.1942e-07 2.73202 -7.6932e-08 1.76C-3.44436e-08 0.787977 0.792114 -1.9761e-06 1.76923 -1.93339e-06C2.74635 -1.89068e-06 3.53846 0.787977 3.53846 1.76C3.53846 2.73202 2.74635 3.52 1.76923 3.52Z" fill="white"/>
</svg>
