<svg width="24" height="24" viewBox="0 0 24 24" fill="none" xmlns="http://www.w3.org/2000/svg">
<path d="M12.7677 3.45396C13.5227 2.69895 14.7765 2.6524 15.5961 3.45396L20.5459 8.40371C21.3269 9.18476 21.3269 10.4511 20.5459 11.2321C19.7909 11.9872 18.5371 12.0426 17.7174 11.2321L17.3639 10.8784L14.4124 13.8299C15.3028 16.2397 14.7067 19.2136 12.7677 21.1316C12.5584 21.3387 12.2362 21.3117 12.0606 21.1316L7.81775 16.8887L4.63597 20.071C4.4407 20.2662 4.12412 20.2662 3.92886 20.071C3.74862 19.8907 3.71695 19.5775 3.92886 19.3639L7.11075 16.1817L2.8682 11.9392C2.68796 11.759 2.65327 11.4471 2.8682 11.2321C4.76003 9.34031 7.63355 8.66319 10.1694 9.58691L13.1209 6.63541L12.7677 6.28239C11.9618 5.47231 12.0127 4.20898 12.7677 3.45396Z" fill="#A5A5A5"/>
</svg>
