<svg width="24" height="24" viewBox="0 0 24 24" fill="none" xmlns="http://www.w3.org/2000/svg">
<path d="M23.7948 11.4657L16.5952 3.46615C16.4416 3.29656 16.2272 3.20056 16 3.20056H11.2003C10.8851 3.20056 10.5987 3.38615 10.4691 3.67414C10.3411 3.96372 10.3939 4.3013 10.6051 4.53489L17.3231 12.0001L10.6051 19.4637C10.3939 19.6989 10.3395 20.0364 10.4691 20.3244C10.5987 20.614 10.8851 20.7996 11.2003 20.7996H16C16.2272 20.7996 16.4416 20.702 16.5952 20.5356L23.7948 12.5361C24.0684 12.2321 24.0684 11.7681 23.7948 11.4657Z" fill="#15132B"/>
<path d="M13.3954 11.4657L6.19576 3.46615C6.04217 3.29656 5.82778 3.20056 5.6006 3.20056H0.800856C0.485673 3.20056 0.199289 3.38615 0.0696959 3.67414C-0.0582972 3.96372 -0.00550007 4.3013 0.205688 4.53489L6.92372 12.0001L0.205688 19.4637C-0.00550007 19.6989 -0.0598971 20.0364 0.0696959 20.3244C0.199289 20.614 0.485673 20.7996 0.800856 20.7996H5.6006C5.82778 20.7996 6.04217 20.702 6.19576 20.5356L13.3954 12.5361C13.669 12.2321 13.669 11.7681 13.3954 11.4657Z" fill="#F4FF7B"/>
</svg>
