<svg width="16" height="17" viewBox="0 0 16 17" fill="none" xmlns="http://www.w3.org/2000/svg">
<path d="M8.21951 17C7 17 5.9187 16.7743 4.97561 16.323C4.04878 15.8717 3.31707 15.1613 2.78049 14.1917C2.26016 13.2055 2 11.91 2 10.3053V7.59734C2 6.66126 2 5.71681 2 4.76401C2 3.81121 1.99187 2.85005 1.97561 1.88053C1.97561 1.22861 1.6748 0.819076 1.07317 0.651916L0.536585 0.526548V0H7.12195V0.526548L6.43902 0.676991C5.82114 0.827434 5.5122 1.24533 5.5122 1.93068C5.49593 2.86676 5.48781 3.81121 5.48781 4.76401C5.48781 5.7001 5.48781 6.64454 5.48781 7.59734V10.7817C5.48781 12.4031 5.80488 13.5733 6.43902 14.292C7.08943 15.0108 8.00813 15.3702 9.19512 15.3702C10.4472 15.3702 11.4228 14.9857 12.122 14.2168C12.8374 13.4312 13.1951 12.2694 13.1951 10.7316V2.0059C13.1951 1.67158 13.1301 1.37906 13 1.12832C12.8699 0.87758 12.6423 0.71878 12.3171 0.651916L11.7317 0.526548V0H15.4878V0.526548L14.8049 0.676991C14.4959 0.743854 14.2846 0.894296 14.1707 1.12832C14.0569 1.36234 14 1.64651 14 1.98083V10.5811C14 12.6539 13.4715 14.2419 12.4146 15.3451C11.3577 16.4484 9.95935 17 8.21951 17Z" fill="#464366"/>
<path d="M0 9.35251H16V10.6062H0V9.35251Z" fill="#464366"/>
</svg>
