<svg width="24" height="24" viewBox="0 0 24 24" fill="none" xmlns="http://www.w3.org/2000/svg">
<path d="M21 6.75H6.375V3C6.375 2.80109 6.45402 2.61032 6.59467 2.46967C6.73532 2.32902 6.92609 2.25 7.125 2.25H16.5C16.6989 2.25 16.8897 2.32902 17.0303 2.46967C17.171 2.61032 17.25 2.80109 17.25 3V5.25C17.25 5.44891 17.329 5.63968 17.4697 5.78033C17.6103 5.92098 17.8011 6 18 6C18.1989 6 18.3897 5.92098 18.5303 5.78033C18.671 5.63968 18.75 5.44891 18.75 5.25V3C18.75 2.40326 18.5129 1.83097 18.091 1.40901C17.669 0.987053 17.0967 0.75 16.5 0.75H7.125C6.52826 0.75 5.95597 0.987053 5.53401 1.40901C5.11205 1.83097 4.875 2.40326 4.875 3V6.75H3C2.40326 6.75 1.83097 6.98705 1.40901 7.40901C0.987053 7.83097 0.75 8.40326 0.75 9V15.75C0.75 16.3467 0.987053 16.919 1.40901 17.341C1.83097 17.7629 2.40326 18 3 18H4.875V20.625C4.875 21.2217 5.11205 21.794 5.53401 22.216C5.95597 22.6379 6.52826 22.875 7.125 22.875H16.875C17.4717 22.875 18.044 22.6379 18.466 22.216C18.8879 21.794 19.125 21.2217 19.125 20.625V18H21C21.5967 18 22.169 17.7629 22.591 17.341C23.0129 16.919 23.25 16.3467 23.25 15.75V9C23.25 8.40326 23.0129 7.83097 22.591 7.40901C22.169 6.98705 21.5967 6.75 21 6.75ZM19.5 12C19.2033 12 18.9133 11.912 18.6666 11.7472C18.42 11.5824 18.2277 11.3481 18.1142 11.074C18.0006 10.7999 17.9709 10.4983 18.0288 10.2074C18.0867 9.91639 18.2296 9.64912 18.4393 9.43934C18.6491 9.22956 18.9164 9.0867 19.2074 9.02882C19.4983 8.97094 19.7999 9.00065 20.074 9.11418C20.3481 9.22771 20.5824 9.41997 20.7472 9.66665C20.912 9.91332 21 10.2033 21 10.5C21 10.8978 20.842 11.2794 20.5607 11.5607C20.2794 11.842 19.8978 12 19.5 12ZM17.625 20.625C17.625 20.8239 17.546 21.0147 17.4053 21.1553C17.2647 21.296 17.0739 21.375 16.875 21.375H7.125C6.92609 21.375 6.73532 21.296 6.59467 21.1553C6.45402 21.0147 6.375 20.8239 6.375 20.625V16.5C6.375 16.3011 6.45402 16.1103 6.59467 15.9697C6.73532 15.829 6.92609 15.75 7.125 15.75H16.875C17.0739 15.75 17.2647 15.829 17.4053 15.9697C17.546 16.1103 17.625 16.3011 17.625 16.5V20.625Z" fill="#6418C3"/>
</svg>
