<svg width="29" height="29" viewBox="0 0 29 29" fill="none" xmlns="http://www.w3.org/2000/svg">
<g clip-path="url(#clip0_304_7155)">
<path d="M25.7329 10.4954C25.5922 10.1992 25.2935 10.0102 24.9654 10.0102H16.444L21.6018 1.28184C21.757 1.0192 21.7594 0.693399 21.6082 0.428489C21.4569 0.163579 21.1753 -0.000113223 20.8702 5.87588e-08L13.5899 0.000793033C13.2878 0.000906315 13.0084 0.161314 12.8562 0.422259L3.30084 16.8019C3.14751 17.0647 3.14643 17.3894 3.29795 17.6532C3.44946 17.9169 3.73046 18.0796 4.03468 18.0796H12.5018L10.0357 27.9445C9.93916 28.3304 10.1235 28.7318 10.4792 28.9101C10.6006 28.9709 10.7307 29.0002 10.8595 29.0002C11.1085 29.0002 11.3525 28.8908 11.5183 28.6875L25.6238 11.3969C25.8312 11.1427 25.8736 10.7918 25.7329 10.4954Z" fill="#7169AD"/>
</g>
<defs>
<clipPath id="clip0_304_7155">
<rect width="28.8" height="28.8" fill="white" transform="scale(1.00695)"/>
</clipPath>
</defs>
</svg>
