<svg width="28" height="28" viewBox="0 0 28 28" fill="none" xmlns="http://www.w3.org/2000/svg">
<path d="M25.4704 19.1863L23.333 15.9803V11.6668C23.333 9.19148 22.3497 6.81751 20.5993 5.06717C18.849 3.31683 16.475 2.3335 13.9997 2.3335C11.5243 2.3335 9.15036 3.31683 7.40002 5.06717C5.64968 6.81751 4.66635 9.19148 4.66635 11.6668V15.9803L2.52902 19.1863C2.41226 19.3621 2.34532 19.5662 2.3353 19.777C2.32529 19.9878 2.37258 20.1974 2.47214 20.3834C2.57171 20.5695 2.71983 20.7251 2.90076 20.8337C3.08169 20.9423 3.28867 20.9998 3.49968 21.0002H24.4997C24.7107 20.9998 24.9177 20.9423 25.0986 20.8337C25.2795 20.7251 25.4277 20.5695 25.5272 20.3834C25.6268 20.1974 25.6741 19.9878 25.6641 19.777C25.6541 19.5662 25.5871 19.3621 25.4704 19.1863Z" fill="#464366"/>
<path d="M14.0004 25.6665C15.0348 25.6674 16.04 25.3239 16.8576 24.6902C17.6751 24.0564 18.2584 23.1685 18.5154 22.1665H9.48535C9.74232 23.1685 10.3256 24.0564 11.1431 24.6902C11.9607 25.3239 12.9659 25.6674 14.0004 25.6665Z" fill="#464366"/>
</svg>
