<svg width="24" height="24" viewBox="0 0 24 24" fill="none" xmlns="http://www.w3.org/2000/svg">
<path d="M7.10451 8.28436H15.3889C16.0394 8.28436 16.5686 7.75514 16.5686 7.10466V0H5.9248V7.10466C5.9248 7.75514 6.45402 8.28436 7.10451 8.28436ZM13.5561 3.71564C13.5561 3.32733 13.8709 3.01252 14.2592 3.01252C14.6476 3.01252 14.9624 3.32733 14.9624 3.71564V5.97502C14.9624 6.36333 14.6476 6.67814 14.2592 6.67814C13.8709 6.67814 13.5561 6.36333 13.5561 5.97502V3.71564Z" fill="white"/>
<path d="M16.8952 14.2095H7.10451C6.45402 14.2095 5.9248 14.7386 5.9248 15.3891V24.0001H18.0748V15.3891C18.0749 14.7386 17.5456 14.2095 16.8952 14.2095Z" fill="white"/>
<path d="M23.794 4.72472L19.2753 0.205969C19.1434 0.0740625 18.9646 0 18.7781 0H17.975V7.10466C17.975 8.53055 16.815 9.69061 15.3891 9.69061H7.10466C5.67877 9.69061 4.5187 8.53055 4.5187 7.10466V0H2.58591C1.16006 0 0 1.16006 0 2.58595V21.414C0 22.8399 1.16006 24 2.58591 24H4.5187V15.3891C4.5187 13.9632 5.67877 12.8032 7.10466 12.8032H16.8953C18.3211 12.8032 19.4812 13.9632 19.4812 15.3891V24H21.414C22.8399 24 24 22.8399 24 21.414V5.22188C24 5.03541 23.9259 4.85653 23.794 4.72472Z" fill="white"/>
</svg>
