<svg width="20" height="20" viewBox="0 0 20 20" fill="none" xmlns="http://www.w3.org/2000/svg">
<path d="M16.2963 13.3365L14.2717 11.9221C14.007 11.7374 13.6975 11.6401 13.3766 11.6401C12.8664 11.6401 12.3874 11.8903 12.0957 12.309L11.6257 12.9825C10.838 12.4543 9.95913 11.7167 9.12127 10.879C8.28357 10.0413 7.54611 9.16235 7.018 8.37469L7.69122 7.90472C8.03439 7.66577 8.26358 7.3078 8.33636 6.89703C8.40899 6.48657 8.31744 6.07184 8.07818 5.72852L6.664 3.70398C6.36828 3.28101 5.89114 3.02832 5.38745 3.02832C5.21289 3.02832 5.04168 3.05914 4.87872 3.11926C4.69363 3.18762 4.52121 3.27155 4.35214 3.37775L4.0726 3.57458C4.00271 3.62891 3.93771 3.68842 3.87545 3.75067C3.53442 4.09155 3.29242 4.52307 3.15585 5.03333C2.57312 7.21777 4.01675 10.521 6.74807 13.2523C9.04177 15.546 11.7974 16.9709 13.9392 16.9712H13.9394C14.3062 16.9712 14.652 16.9285 14.9672 16.8442C15.4775 16.7078 15.909 16.4658 16.2502 16.1246C16.3121 16.0627 16.3713 15.9977 16.4348 15.9156L16.6318 15.6345C16.7281 15.4807 16.8119 15.3083 16.8811 15.1218C17.1193 14.4779 16.8788 13.7437 16.2963 13.3365Z" fill="#6418C3"/>
</svg>
