<svg width="24" height="24" viewBox="0 0 24 24" fill="none" xmlns="http://www.w3.org/2000/svg">
<path d="M17 2H7C5.67406 2.00048 4.40257 2.52741 3.46499 3.46499C2.52741 4.40257 2.00048 5.67406 2 7V17C2.00048 18.3259 2.52741 19.5974 3.46499 20.535C4.40257 21.4726 5.67406 21.9995 7 22H17C18.3259 21.9995 19.5974 21.4726 20.535 20.535C21.4726 19.5974 21.9995 18.3259 22 17V7C21.9995 5.67406 21.4726 4.40257 20.535 3.46499C19.5974 2.52741 18.3259 2.00048 17 2ZM15 19H9C8.73478 19 8.48043 18.8946 8.29289 18.7071C8.10536 18.5196 8 18.2652 8 18C8 17.7348 8.10536 17.4804 8.29289 17.2929C8.48043 17.1054 8.73478 17 9 17H15C15.2652 17 15.5196 17.1054 15.7071 17.2929C15.8946 17.4804 16 17.7348 16 18C16 18.2652 15.8946 18.5196 15.7071 18.7071C15.5196 18.8946 15.2652 19 15 19ZM19 13C18.9992 13.265 18.8936 13.5189 18.7062 13.7062C18.5189 13.8936 18.265 13.9992 18 14H16V15C15.9992 15.265 15.8936 15.5189 15.7062 15.7062C15.5189 15.8936 15.265 15.9992 15 16H9C8.73503 15.9992 8.48113 15.8936 8.29377 15.7062C8.1064 15.5189 8.00079 15.265 8 15V14H6C5.73503 13.9992 5.48113 13.8936 5.29377 13.7062C5.1064 13.5189 5.00079 13.265 5 13V6C5.00079 5.73503 5.1064 5.48113 5.29377 5.29377C5.48113 5.1064 5.73503 5.00079 6 5H18C18.265 5.00079 18.5189 5.1064 18.7062 5.29377C18.8936 5.48113 18.9992 5.73503 19 6V13Z" fill="#464366"/>
</svg>
