<svg width="20" height="20" viewBox="0 0 20 20" fill="none" xmlns="http://www.w3.org/2000/svg">
<path d="M16.2962 13.3365L14.2717 11.9221C14.007 11.7374 13.6975 11.6401 13.3766 11.6401C12.8664 11.6401 12.3874 11.8903 12.0957 12.309L11.6257 12.9825C10.838 12.4543 9.95912 11.7167 9.12126 10.879C8.28355 10.0413 7.54609 9.16235 7.01799 8.37469L7.6912 7.90472C8.03437 7.66577 8.26356 7.3078 8.33635 6.89703C8.40898 6.48657 8.31742 6.07184 8.07817 5.72852L6.66398 3.70398C6.36827 3.28101 5.89112 3.02832 5.38743 3.02832C5.21287 3.02832 5.04167 3.05914 4.8787 3.11926C4.69362 3.18762 4.52119 3.27155 4.35212 3.37775L4.07258 3.57458C4.0027 3.62891 3.93769 3.68842 3.87544 3.75067C3.5344 4.09155 3.2924 4.52307 3.15583 5.03333C2.5731 7.21777 4.01674 10.521 6.74806 13.2523C9.04176 15.546 11.7973 16.9709 13.9392 16.9712H13.9394C14.3062 16.9712 14.652 16.9285 14.9672 16.8442C15.4775 16.7078 15.909 16.4658 16.2502 16.1246C16.3121 16.0627 16.3713 15.9977 16.4348 15.9156L16.6318 15.6345C16.7281 15.4807 16.8118 15.3083 16.8811 15.1218C17.1193 14.4779 16.8788 13.7437 16.2962 13.3365Z" fill="white"/>
</svg>
