<svg width="27" height="26" viewBox="0 0 27 26" fill="none" xmlns="http://www.w3.org/2000/svg">
<path d="M13.2024 25.2036C11.5691 25.2066 9.95146 24.8923 8.44222 24.2788C6.93298 23.6654 5.56199 22.7648 4.40797 21.6288C-0.44198 16.8618 -0.44198 9.10579 4.40797 4.33876C5.56025 3.19981 6.93095 2.29681 8.4407 1.68202C9.95039 1.06723 11.5692 0.752863 13.2034 0.757123C16.5259 0.757123 19.6494 2.02859 21.9978 4.33876C24.3471 6.64796 25.6417 9.71805 25.6417 12.9838C25.6417 16.2495 24.3481 19.3196 21.9978 21.6288C20.8435 22.7648 19.4723 23.6654 17.963 24.2788C16.4536 24.8923 14.8357 25.2066 13.2024 25.2036ZM13.2034 2.71323C11.8306 2.7094 10.4707 2.97334 9.20248 3.48976C7.93424 4.00619 6.78283 4.76483 5.815 5.72171C3.84178 7.66124 2.75516 10.2403 2.75516 12.9838C2.75516 15.7273 3.84178 18.3054 5.815 20.2459C9.88878 24.25 16.5179 24.251 20.5908 20.2459C22.564 18.3064 23.6516 15.7273 23.6516 12.9838C23.6516 10.2403 22.5649 7.66218 20.5908 5.72171C19.6229 4.7651 18.4716 4.00666 17.2036 3.49026C15.9355 2.97385 14.5759 2.70975 13.2034 2.71323Z" fill="#6418C3"/>
<path d="M8.98064 18.1104C8.78366 18.1109 8.59096 18.0538 8.42706 17.9464C8.26317 17.839 8.1354 17.6862 8.06004 17.5073C7.98463 17.3284 7.96507 17.1315 8.00368 16.9417C8.04234 16.7518 8.13754 16.5775 8.27714 16.4409L16.7203 8.14212C16.8126 8.05132 16.9223 7.9793 17.0431 7.93011C17.1637 7.88097 17.2931 7.85571 17.4238 7.85571C17.5544 7.85571 17.6838 7.88097 17.8045 7.93011C17.9252 7.9793 18.0349 8.05132 18.1273 8.14212C18.2196 8.23292 18.293 8.34072 18.343 8.45938C18.393 8.57804 18.4187 8.70518 18.4187 8.83359C18.4187 8.96201 18.393 9.0892 18.343 9.20786C18.293 9.32647 18.2196 9.43427 18.1273 9.52507L9.68414 17.8239C9.59199 17.9151 9.48237 17.9873 9.36159 18.0365C9.24086 18.0857 9.11135 18.1108 8.98064 18.1104Z" fill="#6418C3"/>
<path d="M17.4244 18.1104C17.2937 18.1106 17.1643 18.0853 17.0436 18.0362C16.9228 17.987 16.8132 17.9148 16.7209 17.8239L8.27772 9.52507C8.18534 9.43427 8.11207 9.32647 8.06208 9.20786C8.01209 9.0892 7.98633 8.962 7.98633 8.83359C7.98633 8.70518 8.01209 8.57804 8.06208 8.45938C8.11207 8.34072 8.18534 8.23292 8.27772 8.14212C8.37015 8.05132 8.47983 7.9793 8.6005 7.93011C8.72122 7.88097 8.85063 7.85571 8.98127 7.85571C9.11192 7.85571 9.24127 7.88097 9.36199 7.93011C9.48272 7.9793 9.5924 8.05132 9.68477 8.14212L18.1279 16.4409C18.2675 16.5775 18.3627 16.7518 18.4013 16.9417C18.44 17.1315 18.4204 17.3284 18.345 17.5073C18.2696 17.6861 18.1419 17.839 17.978 17.9464C17.814 18.0538 17.6214 18.1109 17.4244 18.1104Z" fill="#6418C3"/>
</svg>
