<svg width="24" height="24" viewBox="0 0 24 24" fill="none" xmlns="http://www.w3.org/2000/svg">
<path d="M20.5835 16.5456L16.0382 11.9993L20.5821 7.45451C21.1375 6.89896 21.1375 5.99058 20.5821 5.43481L18.5601 3.41538C18.0047 2.86121 17.0965 2.86121 16.5411 3.41538L11.997 7.9602L7.45342 3.41538C6.89937 2.86121 5.98982 2.86121 5.43417 3.41538L3.41657 5.43481C2.86114 5.99036 2.86114 6.89873 3.41657 7.45451L7.96043 11.9994L3.41657 16.5456C2.86114 17.1011 2.86114 18.0095 3.41657 18.565L5.43582 20.5831C5.99124 21.1386 6.90076 21.1386 7.4548 20.5831L11.9987 16.0398L16.5422 20.5831C17.0977 21.1386 18.0058 21.1386 18.5642 20.5831L20.5835 18.565C21.1388 18.0095 21.1388 17.1011 20.5835 16.5456Z" fill="#A5A5A5"/>
</svg>
