<svg width="34" height="34" viewBox="0 0 34 34" fill="none" xmlns="http://www.w3.org/2000/svg">
<path d="M32.2416 1.67559C31.7985 1.31222 31.2067 1.17515 30.6255 1.29203L11.458 5.12447C10.3944 5.33803 9.5625 6.35378 9.5625 7.43753V12.75V25.3088C8.67212 24.7701 7.57562 24.4375 6.375 24.4375C3.44569 24.4375 1.0625 26.3437 1.0625 28.6875C1.0625 31.0314 3.44569 32.9375 6.375 32.9375C9.30431 32.9375 11.6875 31.0314 11.6875 28.6875V13.6202L30.8125 9.79522V21.0588C29.9221 20.5201 28.8256 20.1875 27.625 20.1875C24.6957 20.1875 22.3125 22.0937 22.3125 24.4375C22.3125 26.7814 24.6957 28.6875 27.625 28.6875C30.5543 28.6875 32.9375 26.7814 32.9375 24.4375V8.50003V3.18753C32.9375 2.58934 32.6846 2.0379 32.2416 1.67559Z" fill="#E328AF"/>
</svg>
