<svg width="480" height="490" viewBox="0 0 480 490" fill="none" xmlns="http://www.w3.org/2000/svg">
<rect opacity="0.15" x="480" width="24.6076" height="480" rx="5" transform="rotate(90 480 0)" fill="#FF4A55"/>
<rect opacity="0.15" x="382" y="0.201172" width="25" height="382" rx="5" transform="rotate(90 382 0.201172)" fill="#FF4A55"/>
<rect opacity="0.15" x="242" y="0.201172" width="25" height="242" rx="5" transform="rotate(90 242 0.201172)" fill="#FF4A55"/>
<rect x="406" y="0.201172" width="25" height="406" rx="5" transform="rotate(90 406 0.201172)" fill="#FF4A55"/>
<rect opacity="0.15" x="480" y="77.363" width="24.798" height="479.999" rx="5" transform="rotate(90 480 77.363)" fill="#38E25D"/>
<rect opacity="0.15" x="382" y="77.2011" width="25" height="382" rx="5" transform="rotate(90 382 77.2011)" fill="#38E25D"/>
<rect opacity="0.15" x="242" y="77.2011" width="25" height="242" rx="5" transform="rotate(90 242 77.2011)" fill="#38E25D"/>
<rect x="216.585" y="77.363" width="24.798" height="216.585" rx="5" transform="rotate(90 216.585 77.363)" fill="#38E25D"/>
<rect opacity="0.15" x="480" y="155.187" width="24.2342" height="479.559" rx="5" transform="rotate(90 480 155.187)" fill="#38E25D"/>
<rect opacity="0.15" x="382" y="155.201" width="24" height="382" rx="5" transform="rotate(90 382 155.201)" fill="#38E25D"/>
<rect opacity="0.15" x="242" y="155.201" width="24" height="242" rx="5" transform="rotate(90 242 155.201)" fill="#38E25D"/>
<rect x="122" y="155.201" width="25" height="122" rx="5" transform="rotate(90 122 155.201)" fill="#38E25D"/>
<rect opacity="0.15" x="480" y="232.109" width="25" height="479.998" rx="5" transform="rotate(90 480 232.109)" fill="#FFAB2D"/>
<rect opacity="0.15" x="382" y="232.201" width="25" height="382" rx="5" transform="rotate(90 382 232.201)" fill="#FFAB2D"/>
<rect opacity="0.15" x="242" y="232.201" width="25" height="242" rx="5" transform="rotate(90 242 232.201)" fill="#FFAB2D"/>
<rect x="280" y="232.201" width="25" height="280" rx="5" transform="rotate(90 280 232.201)" fill="#FFAB2D"/>
<rect opacity="0.15" x="480" y="386.849" width="25" height="479.998" rx="5" transform="rotate(90 480 386.849)" fill="#FFAB2D"/>
<rect opacity="0.15" x="382" y="387.201" width="25" height="382" rx="5" transform="rotate(90 382 387.201)" fill="#FFAB2D"/>
<rect opacity="0.15" x="242" y="387.201" width="25" height="242" rx="5" transform="rotate(90 242 387.201)" fill="#FFAB2D"/>
<rect x="358" y="387.201" width="25" height="358" rx="5" transform="rotate(90 358 387.201)" fill="#FFAB2D"/>
<rect opacity="0.15" x="480" y="309.479" width="25" height="479.999" rx="5" transform="rotate(90 480 309.479)" fill="#FF4A55"/>
<rect opacity="0.15" x="382" y="309.201" width="25" height="382" rx="5" transform="rotate(90 382 309.201)" fill="#FF4A55"/>
<rect opacity="0.15" x="242" y="309.201" width="25" height="242" rx="5" transform="rotate(90 242 309.201)" fill="#FF4A55"/>
<rect x="434" y="309.201" width="25" height="434" rx="5" transform="rotate(90 434 309.201)" fill="#FF4A55"/>
<rect opacity="0.15" x="480" y="464.219" width="25" height="479.999" rx="5" transform="rotate(90 480 464.219)" fill="#FF4A55"/>
<rect opacity="0.15" x="382" y="464.201" width="25" height="382" rx="5" transform="rotate(90 382 464.201)" fill="#FF4A55"/>
<rect opacity="0.15" x="242" y="464.201" width="25" height="242" rx="5" transform="rotate(90 242 464.201)" fill="#FF4A55"/>
<rect x="411" y="464.201" width="25" height="411" rx="5" transform="rotate(90 411 464.201)" fill="#FF4A55"/>
</svg>
