<svg width="28" height="28" viewBox="0 0 28 28" fill="none" xmlns="http://www.w3.org/2000/svg">
<g clip-path="url(#clip0_304_5530)">
<path d="M21.0001 10.9376C21.0002 9.94724 20.8548 8.96227 20.5687 8.01418C20.1625 6.66556 19.4776 5.41725 18.5585 4.35001C17.6393 3.28276 16.5064 2.42037 15.2329 1.81861C13.9595 1.21685 12.5739 0.889141 11.1658 0.856677C9.75766 0.824214 8.35843 1.08772 7.05859 1.63015C5.75875 2.17258 4.58726 2.98185 3.61992 4.0056C2.65259 5.02935 1.91094 6.24478 1.44297 7.57324C0.975008 8.90171 0.791145 10.3136 0.90328 11.7176C1.01542 13.1216 1.42105 14.4865 2.09394 15.7238L0.908319 19.8853C0.87122 20.0155 0.864847 20.1526 0.8897 20.2857C0.914553 20.4188 0.969955 20.5443 1.05155 20.6523C1.13314 20.7604 1.23869 20.848 1.3599 20.9084C1.48111 20.9687 1.61467 21.0001 1.75007 21.0001C1.83112 20.9999 1.91178 20.9887 1.98982 20.9668L6.1522 19.7803C6.74276 20.1039 7.36568 20.3647 8.01069 20.5582C8.95862 20.8515 9.9453 21.0005 10.9376 21.0001C13.6054 20.997 16.1631 19.9359 18.0495 18.0495C19.9359 16.1631 20.9971 13.6054 21.0001 10.9376Z" fill="#6418C3"/>
<path d="M27.0918 26.0102L25.9062 21.8487C27.1172 19.6199 27.4402 17.0156 26.8105 14.5586C26.1808 12.1015 24.6449 9.97359 22.5112 8.60205C22.8618 10.3169 22.826 12.0883 22.4066 13.7876C21.9871 15.4868 21.1945 17.0714 20.0863 18.4261C18.978 19.7809 17.582 20.8718 15.9995 21.6197C14.417 22.3676 12.6879 22.7537 10.9376 22.7499C10.1577 22.7475 9.38001 22.6669 8.61621 22.5093C9.53107 23.9186 10.782 25.0783 12.2564 25.884C13.7308 26.6897 15.3824 27.1161 17.0626 27.1249C18.7348 27.1252 20.3804 26.7061 21.8488 25.9061L26.0103 27.0917C26.0884 27.1136 26.169 27.1247 26.2501 27.1249C26.3855 27.125 26.519 27.0936 26.6403 27.0332C26.7615 26.9729 26.867 26.8853 26.9486 26.7772C27.0302 26.6692 27.0856 26.5436 27.1105 26.4105C27.1353 26.2774 27.1289 26.1404 27.0918 26.0102Z" fill="#6418C3"/>
</g>
<defs>
<clipPath id="clip0_304_5530">
<rect width="28" height="28" fill="white"/>
</clipPath>
</defs>
</svg>
