<svg width="24" height="24" viewBox="0 0 24 24" fill="none" xmlns="http://www.w3.org/2000/svg">
<path d="M15.1092 14.9674L14.2583 15.8183C14.2034 15.8757 14.1373 15.9212 14.0641 15.9522C13.991 15.9831 13.9123 15.9988 13.8328 15.9983C13.6728 15.9969 13.5198 15.9322 13.4074 15.8183L11.0019 13.3801C10.9463 13.3242 10.9022 13.2578 10.8723 13.1848C10.8423 13.1118 10.8271 13.0336 10.8274 12.9547V7.29829C10.8274 7.13916 10.8906 6.98655 11.0031 6.87403C11.1156 6.76151 11.2683 6.69829 11.4274 6.69829H12.6274C12.7861 6.69971 12.9379 6.76339 13.0501 6.8756C13.1623 6.98782 13.226 7.1396 13.2274 7.29829V11.9619C13.2271 12.0408 13.2423 12.119 13.2723 12.192C13.3022 12.265 13.3463 12.3314 13.4019 12.3874L15.1365 14.1219C15.2445 14.2379 15.3023 14.3919 15.2972 14.5503C15.2921 14.7087 15.2245 14.8586 15.1092 14.9674ZM12.0001 2.49829C10.1208 2.49829 8.28375 3.05556 6.72119 4.09964C5.15862 5.14371 3.94075 6.62769 3.22158 8.36392C2.50241 10.1002 2.31424 12.0107 2.68087 13.8538C3.0475 15.697 3.95246 17.3901 5.28131 18.7189C6.61017 20.0478 8.30323 20.9527 10.1464 21.3194C11.9896 21.686 13.9001 21.4978 15.6363 20.7786C17.3725 20.0595 18.8565 18.8416 19.9006 17.279C20.9447 15.7165 21.5019 13.8794 21.5019 12.0001C21.5019 9.48007 20.5008 7.06325 18.7189 5.28131C16.937 3.49937 14.5202 2.49829 12.0001 2.49829Z" fill="white"/>
</svg>
