<svg width="76" height="76" viewBox="0 0 76 76" fill="none" xmlns="http://www.w3.org/2000/svg">
<path d="M64.8661 64.8811C61.3139 68.43 57.0936 71.2398 52.4492 73.1481C47.8048 75.0565 42.8282 76.0256 37.8071 75.9995C32.786 75.9734 27.8198 74.9525 23.1954 72.996C18.5711 71.0394 14.3804 68.1858 10.8653 64.6002C12.5627 66.1893 14.8045 67.0673 17.1296 67.0537C19.4547 67.0401 21.6861 66.1359 23.3648 64.527C25.0435 62.9182 26.0417 60.7272 26.1541 58.4048C26.2664 56.0824 25.4844 53.8053 23.9689 52.0419C25.8111 53.8905 28 55.3572 30.4103 56.358C32.8205 57.3588 35.4046 57.874 38.0144 57.874C40.6242 57.874 43.2082 57.3588 45.6185 56.358C48.0287 55.3572 50.2177 53.8905 52.0599 52.0419C50.3573 53.7445 49.4008 56.0537 49.4008 58.4615C49.4008 60.8693 50.3573 63.1785 52.0599 64.8811C53.7625 66.5837 56.0717 67.5402 58.4795 67.5402C60.8873 67.5402 63.1965 66.5837 64.8991 64.8811H64.8661Z" fill="#FFCC66"/>
<path d="M65.3455 24.9418C63.5813 26.5801 61.24 27.4529 58.8338 27.3693C56.4276 27.2857 54.1525 26.2525 52.5063 24.4956C48.8907 20.6763 43.9061 18.4497 38.6488 18.3056C33.3916 18.1615 28.2925 20.1117 24.4731 23.7273C20.6538 27.3428 18.4272 32.3275 18.2831 37.5847C18.139 42.842 20.0892 47.9411 23.7048 51.7604C22.0359 50.1078 19.7911 49.1668 17.4426 49.1355C15.0941 49.1041 12.825 49.9849 11.1126 51.5924C9.40019 53.1999 8.378 55.4089 8.26104 57.7547C8.14408 60.1004 8.94147 62.4002 10.4855 64.17C-12.4335 40.1275 4.68551 0.00692109 37.9981 0.00692109C43.286 -0.0018996 48.5172 1.09621 53.3552 3.23061C58.1931 5.36502 62.5308 8.48845 66.0891 12.4C67.6117 14.1806 68.3849 16.4821 68.2462 18.8208C68.1076 21.1596 67.0679 23.3536 65.3455 24.9418Z" fill="#6FABE6"/>
<path d="M23.5064 64.6333C22.2039 65.8872 20.5565 66.7233 18.7756 67.0343C16.9946 67.3454 15.1613 67.1173 13.5109 66.3791C11.8606 65.641 10.4684 64.4266 9.513 62.8917C8.55764 61.3568 8.08268 59.5715 8.14906 57.7648C8.21545 55.9581 8.82016 54.2124 9.88559 52.7518C10.951 51.2912 12.4286 50.1822 14.1287 49.5672C15.8288 48.9522 17.6739 48.8592 19.4272 49.3001C21.1805 49.7411 22.7621 50.6958 23.969 52.0419C25.5341 53.7937 26.3601 56.0833 26.2739 58.4308C26.1876 60.7783 25.1958 63.0011 23.5064 64.6333Z" fill="#9DCC6B"/>
<path d="M64.8665 64.8809C64.0234 65.724 63.0226 66.3927 61.9211 66.8489C60.8196 67.3052 59.6391 67.54 58.4469 67.54C57.2546 67.54 56.0741 67.3052 54.9726 66.8489C53.8711 66.3927 52.8703 65.724 52.0272 64.8809C51.1842 64.0379 50.5155 63.0371 50.0592 61.9356C49.603 60.8341 49.3681 59.6535 49.3681 58.4613C49.3681 57.2691 49.603 56.0885 50.0592 54.987C50.5155 53.8856 51.1842 52.8847 52.0272 52.0417C55.6331 48.4396 57.7134 43.5874 57.8365 38.4921C57.9596 33.3968 56.1159 28.4498 52.6882 24.6778C54.312 26.3259 56.5032 27.2926 58.8151 27.381C61.127 27.4694 63.3856 26.6727 65.1304 25.1533C66.8753 23.634 67.975 21.5064 68.2053 19.2043C68.4357 16.9021 67.7794 14.5988 66.3702 12.7639C72.8119 20.0049 76.2439 29.4333 75.9644 39.1209C75.6849 48.8085 71.715 58.0234 64.8665 64.8809Z" fill="#DB5669"/>
<path d="M75.8551 34.7078C75.2676 41.4572 72.8866 47.9269 68.9587 53.4469C65.0307 58.967 59.6986 63.3367 53.5145 66.1036C52.3763 65.3691 51.4171 64.389 50.7072 63.2353C49.9973 62.0816 49.5548 60.7836 49.4122 59.4365C49.2696 58.0894 49.4304 56.7275 49.8829 55.4507C50.3355 54.1739 51.0682 53.0147 52.0273 52.0581C55.6331 48.456 57.7135 43.6038 57.8366 38.5085C57.9596 33.4132 56.116 28.4662 52.6883 24.6942C54.312 26.3423 56.5032 27.3091 58.8152 27.3974C61.1271 27.4858 63.3857 26.6891 65.1305 25.1698C66.8753 23.6504 67.975 21.5228 68.2054 19.2207C68.4357 16.9186 67.7794 14.6153 66.3702 12.7803C71.828 18.8663 75.1572 26.5629 75.8551 34.7078Z" fill="#F26674"/>
<path d="M65.3457 24.9423C63.5814 26.5806 61.2401 27.4534 58.834 27.3698C56.4278 27.2862 54.1527 26.253 52.5064 24.4961C48.8909 20.6768 43.9062 18.4502 38.649 18.3061C33.3918 18.162 28.2926 20.1122 24.4733 23.7278C20.654 27.3433 18.4273 32.328 18.2832 37.5852C18.1392 42.8424 20.0894 47.9416 23.7049 51.7609C22.6061 50.6375 21.2348 49.8181 19.7248 49.3829C18.2148 48.9476 16.6178 48.9114 15.0896 49.2776C13.5614 49.6438 12.1543 50.4001 11.0056 51.4725C9.85697 52.5448 9.006 53.8968 8.53578 55.3962C3.71442 49.5051 0.788158 42.2931 0.141538 34.708C0.782279 27.3508 3.55266 20.3396 8.11401 14.5316C12.6754 8.72355 18.8301 4.37026 25.8257 2.00389C32.8214 -0.362476 40.355 -0.639401 47.5055 1.20697C54.6561 3.05334 61.1138 6.943 66.0893 12.4005C67.6119 14.1811 68.3851 16.4826 68.2464 18.8213C68.1077 21.1601 67.068 23.354 65.3457 24.9423Z" fill="#82BCF4"/>
<path d="M21.9365 65.8394C16.7365 63.4176 12.1543 59.8467 8.53542 55.3961C8.97336 53.9974 9.74367 52.7257 10.7804 51.6897C11.8172 50.6537 13.0895 49.8843 14.4885 49.4474C15.8876 49.0105 17.3716 48.9191 18.8137 49.181C20.2557 49.4429 21.6129 50.0503 22.7689 50.9512C23.925 51.8521 24.8456 53.0197 25.4519 54.3541C26.0582 55.6884 26.3321 57.1498 26.2503 58.6132C26.1685 60.0766 25.7333 61.4983 24.982 62.7568C24.2308 64.0153 23.1858 65.073 21.9365 65.8394Z" fill="#B5E08C"/>
<path d="M53.5144 66.1038C48.5436 68.339 43.1486 69.4741 37.6986 69.4313C32.2485 69.3885 26.8719 68.1689 21.9368 65.8559C23.0731 65.1628 24.0429 64.2281 24.7775 63.1182C25.512 62.0083 25.9934 60.7503 26.1873 59.4336C26.3813 58.1168 26.2831 56.7735 25.8998 55.4989C25.5165 54.2243 24.8574 53.0497 23.9693 52.0583C25.8115 53.9069 28.0005 55.3737 30.4107 56.3745C32.8209 57.3753 35.405 57.8904 38.0148 57.8904C40.6246 57.8904 43.2087 57.3753 45.6189 56.3745C48.0292 55.3737 50.2181 53.9069 52.0603 52.0583C51.0996 53.0126 50.3647 54.1699 49.9095 55.4453C49.4544 56.7206 49.2905 58.0817 49.43 59.4287C49.5694 60.7756 50.0086 62.0742 50.7154 63.2293C51.4222 64.3844 52.3786 65.3665 53.5144 66.1038Z" fill="#FFDE76"/>
</svg>
