<svg width="24" height="24" viewBox="0 0 24 24" fill="none" xmlns="http://www.w3.org/2000/svg">
<path d="M15.5993 15.4351L14.6142 16.4202C14.5506 16.4866 14.4742 16.5394 14.3895 16.5752C14.3048 16.611 14.2137 16.6292 14.1217 16.6286C13.9364 16.6269 13.7594 16.552 13.6292 16.4202L10.8444 13.5976C10.78 13.5328 10.729 13.456 10.6943 13.3714C10.6597 13.2869 10.642 13.1964 10.6424 13.105V6.55683C10.6424 6.37261 10.7156 6.19593 10.8458 6.06567C10.9761 5.93541 11.1528 5.86223 11.337 5.86223H12.7262C12.9099 5.86387 13.0856 5.93758 13.2155 6.06749C13.3454 6.1974 13.4191 6.37312 13.4208 6.55683V11.9558C13.4204 12.0471 13.4381 12.1377 13.4728 12.2222C13.5074 12.3067 13.5584 12.3836 13.6229 12.4483L15.6309 14.4564C15.756 14.5906 15.8228 14.7689 15.8169 14.9523C15.811 15.1356 15.7328 15.3092 15.5993 15.4351ZM12 1C9.82441 1 7.69767 1.64514 5.88873 2.85383C4.07979 4.06253 2.66989 5.78049 1.83733 7.79048C1.00477 9.80047 0.786929 12.0122 1.21137 14.146C1.6358 16.2798 2.68345 18.2398 4.22183 19.7782C5.76021 21.3165 7.72022 22.3642 9.85401 22.7886C11.9878 23.2131 14.1995 22.9952 16.2095 22.1627C18.2195 21.3301 19.9375 19.9202 21.1462 18.1113C22.3549 16.3023 23 14.1756 23 12C23 9.08262 21.8411 6.28472 19.7782 4.22182C17.7153 2.15892 14.9174 1 12 1Z" fill="#6418C3"/>
</svg>
