<svg width="28" height="28" viewBox="0 0 28 28" fill="none" xmlns="http://www.w3.org/2000/svg">
<g clip-path="url(#clip0_304_10923)">
<path d="M14 27.9999C21.7319 27.9999 27.9999 21.7319 27.9999 14C27.9999 6.268 21.7319 0 14 0C6.268 0 0 6.268 0 14C0 21.7319 6.268 27.9999 14 27.9999Z" fill="#FDDF6D"/>
<path d="M17 25.9332C9.26806 25.9332 3.00008 19.6652 3.00008 11.9333C3.00008 7.80237 4.78956 4.08993 7.63521 1.52734C3.10284 3.84477 0 8.56 0 14C0 21.732 6.26797 27.9999 13.9999 27.9999C17.601 27.9999 20.8841 26.6399 23.3647 24.406C21.4552 25.3823 19.292 25.9332 17 25.9332Z" fill="#FCC56B"/>
<path d="M16.037 23.3996C12.9073 23.3996 10.3701 20.8624 10.3701 17.7327H21.7039C21.7039 20.8624 19.1667 23.3996 16.037 23.3996Z" fill="#7F184C"/>
<path d="M13.4476 10.2354C13.133 10.2354 12.8781 9.9804 12.8781 9.66589C12.8781 8.93128 12.2805 8.3336 11.5458 8.3336C10.8112 8.3336 10.2135 8.93133 10.2135 9.66589C10.2135 9.98045 9.95849 10.2354 9.64398 10.2354C9.32942 10.2354 9.07446 9.9804 9.07446 9.66589C9.07446 8.3032 10.1831 7.19458 11.5458 7.19458C12.9084 7.19458 14.0171 8.3032 14.0171 9.66589C14.0172 9.9804 13.7622 10.2354 13.4476 10.2354Z" fill="#7F184C"/>
<path d="M23.067 10.2354C22.7524 10.2354 22.4974 9.9804 22.4974 9.66589C22.4974 8.93128 21.8998 8.3336 21.1652 8.3336C20.4305 8.3336 19.8329 8.93133 19.8329 9.66589C19.8329 9.98045 19.5779 10.2354 19.2634 10.2354C18.9489 10.2354 18.6938 9.9804 18.6938 9.66589C18.6938 8.3032 19.8025 7.19458 21.1652 7.19458C22.5278 7.19458 23.6365 8.3032 23.6365 9.66589C23.6365 9.9804 23.3815 10.2354 23.067 10.2354Z" fill="#7F184C"/>
<path d="M7.98358 13.1323C6.94392 13.1323 6.10107 13.9752 6.10107 15.0148H9.86619C9.86608 13.9752 9.02324 13.1323 7.98358 13.1323Z" fill="#F9A880"/>
<path d="M24.4042 12.8806C23.3646 12.8806 22.5217 13.7235 22.5217 14.7631H26.2868C26.2868 13.7235 25.444 12.8806 24.4042 12.8806Z" fill="#F9A880"/>
<path d="M11.7527 17.7339V18.6185C11.7527 18.9915 12.0551 19.2938 12.428 19.2938H19.6458C20.0188 19.2938 20.3211 18.9915 20.3211 18.6185V17.7339H11.7527Z" fill="#F2F2F2"/>
<path d="M16.1558 21.0499C14.624 20.3382 12.9241 20.4416 11.5457 21.1797C12.5814 22.5297 14.2104 23.4009 16.0434 23.4009C16.8513 23.4009 17.6189 23.2307 18.3144 22.9261C17.8042 22.1367 17.0726 21.4759 16.1558 21.0499Z" fill="#FC4C59"/>
<path d="M19.366 4.68874C19.6115 3.82115 18.5511 2.76141 16.9975 2.32174C15.4439 1.88207 13.9854 2.22897 13.7399 3.09656C13.4943 3.96416 14.5547 5.0239 16.1084 5.46357C17.662 5.90324 19.1205 5.55634 19.366 4.68874Z" fill="#FCEB88"/>
</g>
<defs>
<clipPath id="clip0_304_10923">
<rect width="28" height="28" fill="white"/>
</clipPath>
</defs>
</svg>
