<svg width="28" height="28" viewBox="0 0 28 28" fill="none" xmlns="http://www.w3.org/2000/svg">
<g clip-path="url(#clip0_304_10968)">
<path d="M14 27.9999C21.7319 27.9999 27.9999 21.7319 27.9999 14C27.9999 6.268 21.7319 0 14 0C6.268 0 0 6.268 0 14C0 21.7319 6.268 27.9999 14 27.9999Z" fill="#FDDF6D"/>
<path d="M17 25.9332C9.26806 25.9332 3.00008 19.6652 3.00008 11.9333C3.00008 7.80237 4.78956 4.08993 7.63521 1.52734C3.10284 3.84477 0 8.56 0 14C0 21.732 6.26797 27.9999 13.9999 27.9999C17.601 27.9999 20.8841 26.6399 23.3647 24.406C21.4552 25.3823 19.292 25.9332 17 25.9332Z" fill="#FCC56B"/>
<path d="M23.132 12.5407C22.9321 12.5408 22.7381 12.4353 22.6339 12.2482C22.2685 11.5922 21.5757 11.1847 20.8257 11.1847C20.0943 11.1847 19.3921 11.5982 18.993 12.2639C18.8313 12.5336 18.4814 12.6211 18.2117 12.4595C17.9419 12.2977 17.8543 11.9479 18.0161 11.6782C18.6198 10.6712 19.6964 10.0457 20.8258 10.0457C21.9886 10.0457 23.0628 10.6772 23.629 11.6939C23.7821 11.9686 23.6834 12.3155 23.4086 12.4685C23.3209 12.5175 23.2258 12.5407 23.132 12.5407Z" fill="#7F184C"/>
<path d="M13.4156 12.5407C13.2157 12.5408 13.0217 12.4353 12.9175 12.2482C12.5521 11.5922 11.8593 11.1847 11.1094 11.1847C10.3781 11.1847 9.6758 11.5982 9.27669 12.2639C9.11503 12.5336 8.76526 12.6211 8.49537 12.4595C8.22566 12.2977 8.13799 11.9479 8.29981 11.6782C8.90351 10.6712 9.98008 10.0457 11.1095 10.0457C12.2723 10.0457 13.3465 10.6772 13.9127 11.6939C14.0658 11.9686 13.9671 12.3155 13.6924 12.4685C13.6046 12.5175 13.5094 12.5407 13.4156 12.5407Z" fill="#7F184C"/>
<path d="M16.1027 24.3406C12.063 24.3406 8.78821 21.0658 8.78821 17.0261H23.417C23.4171 21.0658 20.1423 24.3406 16.1027 24.3406Z" fill="#7F184C"/>
<path d="M10.5729 17.0269V18.1686C10.5729 18.6501 10.9631 19.0403 11.4446 19.0403H20.7607C21.2421 19.0403 21.6324 18.6501 21.6324 18.1686V17.0269H10.5729Z" fill="#F2F2F2"/>
<path d="M16.2563 21.3068C14.2792 20.3882 12.085 20.5216 10.3059 21.4744C11.6429 23.2169 13.7452 24.3413 16.1113 24.3413C17.1539 24.3413 18.1449 24.1217 19.0424 23.7286C18.3838 22.7096 17.4396 21.8566 16.2563 21.3068Z" fill="#FC4C59"/>
<path d="M7.99683 18.5282C7.14224 19.4629 5.69183 19.5278 4.75706 18.6732C3.8223 17.8186 3.75744 16.3682 4.61203 15.4335C5.46663 14.4987 9.38758 13.6086 9.38758 13.6086C9.38758 13.6086 8.85143 17.5936 7.99683 18.5282Z" fill="#3FA9F5"/>
<path d="M23.7356 18.0167C24.5902 18.9514 26.0406 19.0163 26.9754 18.1617C27.91 17.3072 27.975 15.8567 27.1204 14.922C26.2658 13.9873 22.3448 13.0972 22.3448 13.0972C22.3448 13.0972 22.8811 17.082 23.7356 18.0167Z" fill="#3FA9F5"/>
<path d="M18.5974 5.07717C18.8429 4.20958 17.7825 3.14983 16.2289 2.71016C14.6753 2.27049 13.2168 2.6174 12.9713 3.48499C12.7258 4.35258 13.7862 5.41233 15.3398 5.852C16.8934 6.29167 18.3519 5.94476 18.5974 5.07717Z" fill="#FCEB88"/>
</g>
<defs>
<clipPath id="clip0_304_10968">
<rect width="28" height="28" fill="white"/>
</clipPath>
</defs>
</svg>
