<svg width="40" height="40" viewBox="0 0 40 40" fill="none" xmlns="http://www.w3.org/2000/svg">
<path d="M27.0312 21.4828H12.9688C12.1057 21.4828 11.4062 20.7834 11.4062 19.9203C11.4062 19.0576 12.1057 18.3578 12.9688 18.3578H27.0312C27.8943 18.3578 28.5938 19.0576 28.5938 19.9203C28.5938 20.7834 27.8943 21.4828 27.0312 21.4828ZM30.3485 37.1176C31.0867 36.6705 31.3226 35.7098 30.8755 34.9716C30.4282 34.2334 29.4675 33.9975 28.7296 34.4449C26.105 36.0345 23.0862 36.875 20 36.875C10.6952 36.875 3.125 29.3048 3.125 20C3.125 10.6952 10.6952 3.125 20 3.125C29.3048 3.125 36.875 10.6952 36.875 20C36.875 23.3273 35.8856 26.5659 34.0137 29.3658C33.5339 30.0833 33.7268 31.0538 34.444 31.5332C35.1617 32.0129 36.1319 31.8201 36.6113 31.1029C38.8284 27.7872 40 23.9478 40 20C40 14.6579 37.9196 9.63531 34.1422 5.85785C30.3647 2.08038 25.3421 0 20 0C14.6579 0 9.63531 2.08038 5.85785 5.85785C2.08038 9.63531 0 14.6579 0 20C0 25.3421 2.08038 30.3647 5.85785 34.1422C9.63531 37.9196 14.6579 40 20 40C23.6572 40 27.2357 39.0033 30.3485 37.1176Z" fill="#FF4A55"/>
</svg>
