<svg width="24" height="24" viewBox="0 0 24 24" fill="none" xmlns="http://www.w3.org/2000/svg">
<path d="M21.0001 10.0001H7.82806L11.4141 6.41408C11.7784 6.03688 11.98 5.53167 11.9754 5.00728C11.9709 4.48289 11.7605 3.98126 11.3897 3.61044C11.0189 3.23963 10.5173 3.02929 9.99286 3.02473C9.46847 3.02018 8.96327 3.22177 8.58606 3.58608L1.58606 10.5861C1.21112 10.9611 1.00049 11.4698 1.00049 12.0001C1.00049 12.5304 1.21112 13.039 1.58606 13.4141L8.58606 20.4141C8.77056 20.6051 8.99124 20.7575 9.23525 20.8623C9.47926 20.9671 9.7417 21.0223 10.0073 21.0246C10.2728 21.0269 10.5362 20.9763 10.782 20.8757C11.0278 20.7752 11.2511 20.6267 11.4389 20.4389C11.6266 20.2511 11.7751 20.0278 11.8757 19.782C11.9763 19.5362 12.0269 19.2728 12.0246 19.0073C12.0223 18.7417 11.9671 18.4793 11.8623 18.2353C11.7574 17.9913 11.6051 17.7706 11.4141 17.5861L7.82806 14.0001H21.0001C21.5305 14.0001 22.0392 13.7894 22.4143 13.4143C22.7893 13.0392 23.0001 12.5305 23.0001 12.0001C23.0001 11.4696 22.7893 10.9609 22.4143 10.5859C22.0392 10.2108 21.5305 10.0001 21.0001 10.0001Z" fill="white"/>
</svg>
