<svg width="28" height="28" viewBox="0 0 28 28" fill="none" xmlns="http://www.w3.org/2000/svg">
<path d="M26.1582 10.955C25.9526 10.339 25.4328 9.89713 24.8028 9.80087L18.4075 8.84275L15.5287 2.73175C15.2426 2.12625 14.6572 1.75 14.0001 1.75C13.343 1.75 12.7576 2.12625 12.4715 2.73175L9.63472 8.82088L3.19734 9.80087C2.56734 9.89713 2.04847 10.339 1.84197 10.955C1.63109 11.5876 1.78684 12.2736 2.24884 12.7452L6.90472 17.5105L5.80484 24.227C5.69547 24.8981 5.96672 25.5553 6.51447 25.9411C7.04122 26.3147 7.71847 26.3515 8.28197 26.0409L13.9598 22.8699L19.7182 26.0409C20.2835 26.3515 20.959 26.313 21.4857 25.9411C22.0335 25.5553 22.3056 24.8981 22.1953 24.227L21.0937 17.5018L25.7513 12.7452C26.2133 12.2736 26.3691 11.5876 26.1582 10.955Z" fill="#464366"/>
</svg>
