<svg width="225" height="34" viewBox="0 0 225 34" fill="none" xmlns="http://www.w3.org/2000/svg">
<path d="M208.346 12.0083L207.775 10.2933C207.694 10.0629 207.545 9.86294 207.346 9.7209C207.148 9.57886 206.91 9.5017 206.666 9.5H200.833C199.906 9.50271 199.017 9.87233 198.361 10.5281C197.705 11.1839 197.336 12.0726 197.333 13V15.3333H205.021L208.346 12.0083Z" fill="#464366"/>
<path d="M217.166 13H210.656L206.328 17.3283C206.106 17.5433 205.809 17.6644 205.5 17.6667H197.333V27C197.336 27.9274 197.705 28.8161 198.361 29.4719C199.017 30.1277 199.906 30.4973 200.833 30.5H217.166C218.094 30.4973 218.982 30.1277 219.638 29.4719C220.294 28.8161 220.664 27.9274 220.666 27V16.5C220.664 15.5726 220.294 14.6839 219.638 14.0281C218.982 13.3723 218.094 13.0027 217.166 13Z" fill="#464366"/>
<rect x="210.5" y="1.5" width="13" height="13" rx="6.5" fill="#E328AF" stroke="#0D0B21" stroke-width="3"/>
<path d="M152.334 14.3332V21.3332C152.332 23.1891 151.593 24.9684 150.281 26.2807C148.969 27.593 147.19 28.3311 145.334 28.3332H138.334C138.024 28.3332 137.727 28.4561 137.509 28.6749C137.29 28.8937 137.167 29.1904 137.167 29.4998C137.167 29.8093 137.29 30.106 137.509 30.3248C137.727 30.5436 138.024 30.6665 138.334 30.6665H145.334C147.808 30.6637 150.18 29.6794 151.93 27.9297C153.68 26.18 154.664 23.8077 154.667 21.3332V14.3332C154.667 14.0238 154.544 13.727 154.325 13.5082C154.106 13.2894 153.81 13.1665 153.5 13.1665C153.191 13.1665 152.894 13.2894 152.675 13.5082C152.457 13.727 152.334 14.0238 152.334 14.3332Z" fill="#464366"/>
<path d="M145.333 27.1668C146.88 27.165 148.362 26.5498 149.456 25.4563C150.549 24.3627 151.165 22.88 151.166 21.3335V13.1668C151.165 11.6203 150.549 10.1376 149.456 9.04405C148.362 7.95048 146.88 7.33532 145.333 7.3335H137.166C135.62 7.33532 134.137 7.95048 133.044 9.04405C131.95 10.1376 131.335 11.6203 131.333 13.1668V21.3335C131.335 22.88 131.95 24.3627 133.044 25.4563C134.137 26.5498 135.62 27.165 137.166 27.1668H145.333ZM138.111 15.9833L139.603 18.0455L144.54 13.4768C144.768 13.2667 145.069 13.1554 145.378 13.1675C145.688 13.1795 145.98 13.314 146.19 13.5412C146.4 13.7685 146.511 14.0699 146.499 14.3792C146.487 14.6884 146.353 14.9803 146.125 15.1904L140.221 20.6522C140.1 20.7642 139.957 20.8493 139.8 20.9017C139.644 20.9542 139.478 20.9728 139.314 20.9565C139.15 20.9401 138.991 20.8891 138.848 20.8068C138.705 20.7245 138.581 20.6128 138.484 20.479L136.221 17.3504C136.049 17.0994 135.982 16.791 136.034 16.4911C136.086 16.1912 136.253 15.9235 136.5 15.7451C136.746 15.5667 137.053 15.4918 137.354 15.5363C137.655 15.5808 137.927 15.7412 138.111 15.9833Z" fill="#464366"/>
<rect x="147.5" y="1.5" width="13" height="13" rx="6.5" fill="#5ECFFF" stroke="#0D0B21" stroke-width="3"/>
<path d="M68.5455 5C67.1463 5 66 6.14629 66 7.54545V24.0909C66 25.4901 67.1463 26.6364 68.5455 26.6364H70.0158C69.93 26.1123 69.8376 25.538 69.8244 25.0368C69.8244 22.7169 71.1552 20.6365 73.179 19.6314C72.6746 19.0256 72.3699 18.248 72.3699 17.4029C72.3699 15.4805 73.9441 13.9091 75.8674 13.9091C77.7906 13.9091 79.3636 15.4805 79.3636 17.4029C79.3636 18.2483 79.059 19.0255 78.5545 19.6314C80.5789 20.6362 81.9091 22.7165 81.9091 25.0368C81.8782 25.638 81.8279 26.0623 81.6879 26.6364H91.4545C92.8537 26.6364 94 25.4901 94 24.0909V7.54545C94 6.14629 92.8537 5 91.4545 5H68.5455ZM68.5455 6.27273H91.4545C92.1706 6.27273 92.7273 6.82936 92.7273 7.54545V10.0909H67.2727V7.54545C67.2727 6.82936 67.8294 6.27273 68.5455 6.27273ZM84.764 13.9886L90.4913 17.1705C90.9289 17.4127 90.9289 18.0419 90.4913 18.2841L84.764 21.4659C84.3396 21.7021 83.8177 21.3948 83.8182 20.9091V14.5455C83.8024 14.0154 84.3463 13.758 84.764 13.9886ZM75.8674 15.1818C74.6313 15.1818 73.6426 16.169 73.6426 17.4029C73.6426 18.6367 74.6313 19.6239 75.8674 19.6239C77.1035 19.6239 78.0909 18.6367 78.0909 17.4029C78.0909 16.169 77.1035 15.1818 75.8674 15.1818ZM74.3224 20.53C72.4002 21.1859 71.0971 22.9883 71.0971 25.0368C71.1114 25.55 71.2234 26.1035 71.3034 26.6364H80.3965C80.5443 26.0322 80.6073 25.5652 80.6364 25.0368C80.6364 22.9889 79.3342 21.1875 77.4123 20.5312C76.9453 20.7633 76.4219 20.8967 75.8674 20.8967C75.3127 20.8967 74.7897 20.7622 74.3224 20.53Z" fill="#464366"/>
<path d="M72.3636 27.9092C71.1852 27.9092 70.188 28.725 69.9027 29.8183H66V31.091H69.9027C70.188 32.1843 71.1852 33.0001 72.3636 33.0001C73.5425 33.0001 74.5421 32.1848 74.8271 31.091H94V29.8183H74.8271C74.5421 28.7245 73.5425 27.9092 72.3636 27.9092Z" fill="#464366"/>
<path d="M90.1826 7.54541V8.81814H91.4553V7.54541H90.1826Z" fill="#464366"/>
<path d="M87.6367 7.54541V8.81814H88.9094V7.54541H87.6367Z" fill="#464366"/>
<path d="M85.0918 7.54541V8.81814H86.3645V7.54541H85.0918Z" fill="#464366"/>
<path d="M82.5459 7.54541V8.81814H83.8186V7.54541H82.5459Z" fill="#464366"/>
<rect x="81.5" y="1.5" width="13" height="13" rx="6.5" fill="#5ECFFF" stroke="#0D0B21" stroke-width="3"/>
<path d="M25.4704 24.1863L23.333 20.9803V16.6668C23.333 14.1915 22.3497 11.8175 20.5993 10.0672C18.849 8.31683 16.475 7.3335 13.9997 7.3335C11.5243 7.3335 9.15036 8.31683 7.40002 10.0672C5.64968 11.8175 4.66635 14.1915 4.66635 16.6668V20.9803L2.52902 24.1863C2.41226 24.3621 2.34532 24.5662 2.3353 24.777C2.32529 24.9878 2.37258 25.1974 2.47214 25.3834C2.57171 25.5695 2.71983 25.7251 2.90076 25.8337C3.08169 25.9423 3.28867 25.9998 3.49968 26.0002H24.4997C24.7107 25.9998 24.9177 25.9423 25.0986 25.8337C25.2795 25.7251 25.4277 25.5695 25.5272 25.3834C25.6268 25.1974 25.6741 24.9878 25.6641 24.777C25.6541 24.5662 25.5871 24.3621 25.4704 24.1863Z" fill="#464366"/>
<path d="M14.0004 30.6665C15.0348 30.6674 16.04 30.3239 16.8576 29.6902C17.6751 29.0564 18.2584 28.1685 18.5154 27.1665H9.48535C9.74232 28.1685 10.3256 29.0564 11.1431 29.6902C11.9607 30.3239 12.9659 30.6674 14.0004 30.6665Z" fill="#464366"/>
<rect x="18.5" y="1.5" width="13" height="13" rx="6.5" fill="#5ECFFF" stroke="#0D0B21" stroke-width="3"/>
</svg>
