<svg width="28" height="28" viewBox="0 0 28 28" fill="none" xmlns="http://www.w3.org/2000/svg">
<path d="M22.167 1.1665H5.83366C5.5541 1.16972 5.28499 1.27323 5.07533 1.45817C5.90732 1.75089 6.63933 2.27339 7.18651 2.96512C7.7337 3.65684 8.07366 4.48947 8.16699 5.3665C8.18483 5.52155 8.18483 5.67813 8.16699 5.83317V25.6665C8.16644 25.8897 8.22989 26.1083 8.34983 26.2964C8.46976 26.4846 8.64115 26.6345 8.84366 26.7282C9.04664 26.8216 9.2722 26.8548 9.49349 26.8238C9.71479 26.7928 9.92253 26.6988 10.092 26.5532L13.417 23.7065L16.742 26.5532C16.9533 26.7339 17.2222 26.8332 17.5003 26.8332C17.7784 26.8332 18.0473 26.7339 18.2587 26.5532L21.5837 23.7065L24.9087 26.5532C25.12 26.7339 25.3889 26.8332 25.667 26.8332C25.8358 26.832 26.0025 26.7962 26.157 26.7282C26.3595 26.6345 26.5309 26.4846 26.6508 26.2964C26.7708 26.1083 26.8342 25.8897 26.8337 25.6665V5.83317C26.8337 4.59549 26.342 3.40851 25.4668 2.53334C24.5917 1.65817 23.4047 1.1665 22.167 1.1665ZM21.0003 17.4998H14.0003C13.6909 17.4998 13.3942 17.3769 13.1754 17.1581C12.9566 16.9393 12.8337 16.6426 12.8337 16.3332C12.8337 16.0238 12.9566 15.727 13.1754 15.5082C13.3942 15.2894 13.6909 15.1665 14.0003 15.1665H21.0003C21.3097 15.1665 21.6065 15.2894 21.8253 15.5082C22.0441 15.727 22.167 16.0238 22.167 16.3332C22.167 16.6426 22.0441 16.9393 21.8253 17.1581C21.6065 17.3769 21.3097 17.4998 21.0003 17.4998ZM21.0003 12.8332H14.0003C13.6909 12.8332 13.3942 12.7103 13.1754 12.4915C12.9566 12.2727 12.8337 11.9759 12.8337 11.6665C12.8337 11.3571 12.9566 11.0603 13.1754 10.8415C13.3942 10.6228 13.6909 10.4998 14.0003 10.4998H21.0003C21.3097 10.4998 21.6065 10.6228 21.8253 10.8415C22.0441 11.0603 22.167 11.3571 22.167 11.6665C22.167 11.9759 22.0441 12.2727 21.8253 12.4915C21.6065 12.7103 21.3097 12.8332 21.0003 12.8332ZM21.0003 8.1665H14.0003C13.6909 8.1665 13.3942 8.04359 13.1754 7.8248C12.9566 7.606 12.8337 7.30926 12.8337 6.99984C12.8337 6.69042 12.9566 6.39367 13.1754 6.17488C13.3942 5.95609 13.6909 5.83317 14.0003 5.83317H21.0003C21.3097 5.83317 21.6065 5.95609 21.8253 6.17488C22.0441 6.39367 22.167 6.69042 22.167 6.99984C22.167 7.30926 22.0441 7.606 21.8253 7.8248C21.6065 8.04359 21.3097 8.1665 21.0003 8.1665ZM5.83366 5.83317V15.1665H2.33366C2.02424 15.1665 1.72749 15.0436 1.5087 14.8248C1.28991 14.606 1.16699 14.3093 1.16699 13.9998V5.83317C1.16699 5.66984 1.16699 5.51817 1.16699 5.3665C1.22888 4.74767 1.53406 4.17876 2.0154 3.78493C2.49674 3.3911 3.11482 3.20462 3.73366 3.2665C4.3525 3.32839 4.92141 3.63357 5.31523 4.11491C5.70906 4.59626 5.89554 5.21433 5.83366 5.83317Z" fill="white"/>
</svg>
