<svg width="24" height="24" viewBox="0 0 24 24" fill="none" xmlns="http://www.w3.org/2000/svg">
<path d="M20.5835 16.5457L16.0382 11.9994L20.5821 7.45463C21.1375 6.89908 21.1375 5.9907 20.5821 5.43493L18.5601 3.4155C18.0047 2.86134 17.0965 2.86134 16.5411 3.4155L11.997 7.96032L7.45342 3.4155C6.89937 2.86134 5.98982 2.86134 5.43417 3.4155L3.41657 5.43493C2.86114 5.99048 2.86114 6.89886 3.41657 7.45463L7.96043 11.9995L3.41657 16.5457C2.86114 17.1012 2.86114 18.0096 3.41657 18.5651L5.43582 20.5832C5.99124 21.1388 6.90076 21.1388 7.4548 20.5832L11.9987 16.04L16.5422 20.5832C17.0977 21.1388 18.0058 21.1388 18.5642 20.5832L20.5835 18.5651C21.1388 18.0096 21.1388 17.1012 20.5835 16.5457Z" fill="#FF4A55"/>
</svg>
