<svg width="20" height="20" viewBox="0 0 20 20" fill="none" xmlns="http://www.w3.org/2000/svg">
<path d="M19.78 5.52C19.5919 4.92308 19.2934 4.36678 18.9 3.88C18.6837 4.84003 18.121 5.68658 17.3195 6.25767C16.5181 6.82876 15.5342 7.08428 14.5562 6.97533C13.5781 6.86639 12.6746 6.40063 12.0185 5.66718C11.3624 4.93373 10.9998 3.9841 11 3C10.9969 2.66227 11.0407 2.32573 11.13 2H5C3.93174 1.99914 2.89128 2.34043 2.03109 2.97388C1.1709 3.60732 0.536201 4.49961 0.219996 5.52L10 10.86L19.78 5.52Z" fill="#6418C3"/>
<path d="M10.48 12.88C10.3324 12.9591 10.1675 13.0005 10 13.0005C9.83252 13.0005 9.66764 12.9591 9.52 12.88L0 7.69001V15C0.000477079 16.3259 0.527415 17.5974 1.46499 18.535C2.40257 19.4726 3.67406 19.9995 5 20H15C16.3259 19.9995 17.5974 19.4726 18.535 18.535C19.4726 17.5974 19.9995 16.3259 20 15V7.69001L10.48 12.88Z" fill="#6418C3"/>
<path d="M15 6C16.6569 6 18 4.65685 18 3C18 1.34315 16.6569 0 15 0C13.3431 0 12 1.34315 12 3C12 4.65685 13.3431 6 15 6Z" fill="#6418C3"/>
</svg>
