<svg width="96" height="92" viewBox="0 0 96 92" fill="none" xmlns="http://www.w3.org/2000/svg">
<circle cx="50" cy="46" r="31" fill="#1D133A"/>
<path d="M49.9997 3C58.0411 3 65.9214 5.2549 72.7456 9.50863C79.5699 13.7623 85.0646 19.8444 88.6058 27.0642C92.147 34.2839 93.5927 42.352 92.7788 50.3521C91.965 58.3522 88.9241 65.9638 84.0015 72.3225C79.0789 78.6812 72.4719 83.5321 64.9309 86.3244C57.3898 89.1167 49.2168 89.7384 41.3402 88.119C33.4635 86.4996 26.1987 82.704 20.3709 77.1631C14.5431 71.6222 10.3858 64.5582 8.37109 56.7732" stroke="#6418C3" stroke-width="6" stroke-linecap="round"/>
<circle cx="7.5" cy="56.5" r="7.5" fill="#FFAB2D"/>
<path d="M45.0413 61.5833C46.7416 61.5934 48.4269 61.266 49.9997 60.6199C51.5708 61.2715 53.2572 61.5991 54.958 61.5833C60.1218 61.5833 64.1663 58.8278 64.1663 55.3088V49.441C64.1663 45.922 60.1218 43.1666 54.958 43.1666C54.7186 43.1666 54.4834 43.1779 54.2497 43.1907V36.555C54.2497 33.1083 50.2051 30.4166 45.0413 30.4166C39.8776 30.4166 35.833 33.1083 35.833 36.555V55.4448C35.833 58.8916 39.8776 61.5833 45.0413 61.5833ZM61.333 55.3088C61.333 56.9366 58.715 58.7499 54.958 58.7499C51.201 58.7499 48.583 56.9366 48.583 55.3088V53.9984C50.5015 55.1652 52.7131 55.7604 54.958 55.714C57.203 55.7604 59.4145 55.1652 61.333 53.9984V55.3088ZM54.958 45.9999C58.715 45.9999 61.333 47.8133 61.333 49.441C61.333 51.0688 58.715 52.8807 54.958 52.8807C51.201 52.8807 48.583 51.0673 48.583 49.441C48.583 47.8147 51.201 45.9999 54.958 45.9999ZM45.0413 33.2499C48.7983 33.2499 51.4163 34.9924 51.4163 36.555C51.4163 38.1176 48.7983 39.8615 45.0413 39.8615C41.2843 39.8615 38.6663 38.119 38.6663 36.555C38.6663 34.991 41.2843 33.2499 45.0413 33.2499ZM38.6663 41.0161C40.5928 42.1602 42.8012 42.7417 45.0413 42.6948C47.2814 42.7417 49.4899 42.1602 51.4163 41.0161V43.6341C49.8724 44.0232 48.4565 44.8079 47.308 45.9107C46.5631 46.0719 45.8034 46.1545 45.0413 46.1572C41.2843 46.1572 38.6663 44.4147 38.6663 42.8521V41.0161ZM38.6663 47.3132C40.5932 48.4561 42.8015 49.0371 45.0413 48.9905C45.2935 48.9905 45.5372 48.9593 45.7851 48.9466C45.764 49.1106 45.7522 49.2757 45.7497 49.441V52.3948C45.5117 52.4089 45.2822 52.4543 45.0413 52.4543C41.2843 52.4543 38.6663 50.7118 38.6663 49.1478V47.3132ZM38.6663 53.6088C40.5928 54.7529 42.8012 55.3345 45.0413 55.2876C45.2793 55.2876 45.5131 55.2692 45.7497 55.2578V55.3088C45.7699 56.5148 46.2334 57.6711 47.0516 58.5573C46.3887 58.6824 45.7159 58.7469 45.0413 58.7499C41.2843 58.7499 38.6663 57.0074 38.6663 55.4448V53.6088Z" fill="white"/>
</svg>
