<svg width="182" height="178" viewBox="0 0 182 178" fill="none" xmlns="http://www.w3.org/2000/svg">
<circle cx="91" cy="90.999" r="47.3843" stroke="#1E1C3A" stroke-width="2"/>
<path d="M67.3079 132.037C56.6937 125.908 48.8668 115.906 45.4709 104.129C42.075 92.353 43.3743 79.7188 49.0959 68.88C54.8175 58.0412 64.5164 49.841 76.1557 46.0014C87.795 42.1618 100.469 42.9815 111.517 48.2884" stroke="#5ECFFF" stroke-width="10" stroke-linecap="round"/>
<circle cx="91.0001" cy="91.0011" r="66.1041" stroke="#1E1C3A" stroke-width="2"/>
<path d="M57.9481 148.248C48.3017 142.679 40.219 134.762 34.4506 125.233C28.6823 115.705 25.4153 104.873 24.953 93.7437C24.4907 82.6146 26.8481 71.5491 31.8063 61.5748C36.7645 51.6006 44.1628 43.0409 53.314 36.6907C62.4653 30.3405 73.0728 26.4057 84.1515 25.2517C95.2303 24.0977 106.421 25.762 116.685 30.0898C126.948 34.4177 135.952 41.2689 142.859 50.0073C149.766 58.7456 154.354 69.0877 156.195 80.0731" stroke="#E328AF" stroke-width="10" stroke-linecap="round"/>
<circle cx="90.9998" cy="90.9998" r="85.9938" stroke="#1E1C3A" stroke-width="2"/>
<path d="M48.003 165.473C33.6529 157.188 22.0021 144.933 14.4519 130.183C6.90168 115.433 3.77368 98.8162 5.44414 82.3306C7.1146 65.845 13.5124 50.1931 23.8679 37.2575C34.2234 24.322 48.0956 14.6537 63.8159 9.41568C79.5363 4.17765 96.4351 3.59295 112.48 7.73191C128.525 11.8709 143.032 20.5572 154.257 32.7461C165.482 44.9349 172.946 60.1072 175.752 76.438C178.558 92.7687 176.586 109.562 170.073 124.799" stroke="#6418C3" stroke-width="10" stroke-linecap="round"/>
</svg>
