<svg width="12" height="12" viewBox="0 0 12 12" fill="none" xmlns="http://www.w3.org/2000/svg">
<path d="M11.7223 9.03055L8.69215 5.99971L11.7214 2.96983C12.0917 2.59947 12.0917 1.99388 11.7214 1.62337L10.3734 0.277083C10.0031 -0.092361 9.39767 -0.092361 9.02742 0.277083L5.99803 3.30696L2.96894 0.277083C2.59958 -0.092361 1.99321 -0.092361 1.62278 0.277083L0.277713 1.62337C-0.092571 1.99374 -0.092571 2.59932 0.277713 2.96983L3.30695 5.99974L0.277713 9.03055C-0.092571 9.40091 -0.092571 10.0065 0.277713 10.3768L1.62388 11.7222C1.99416 12.0926 2.6005 12.0926 2.96987 11.7222L5.9991 8.69339L9.02816 11.7222C9.39845 12.0926 10.0039 12.0926 10.3761 11.7222L11.7223 10.3768C12.0926 10.0065 12.0926 9.40088 11.7223 9.03055Z" fill="white"/>
</svg>
