<svg width="40" height="40" viewBox="0 0 40 40" fill="none" xmlns="http://www.w3.org/2000/svg">
<path d="M10 3.5L0 13.5L5 16.5951L10 13.5L12.8235 8.5L10 3.5Z" fill="#FF2820"/>
<path d="M10 13.5H0V26.5L5 29.2457L10 26.5V13.5Z" fill="#0084FF"/>
<path d="M0 26.5V33.1666C0 35 1.5 36.5 3.33336 36.5H10L12.8235 31.192L10 26.5H0Z" fill="#0066DD"/>
<path d="M37.9343 7.05047L31.7495 11.9498V12L29.7324 19.7008L31.7495 27.494L37.9068 32.4495C38.7329 33.1427 39.9995 32.5605 39.9995 31.4791V8.02094C39.9995 6.93953 38.7604 6.35727 37.9343 7.05047Z" fill="#00AD3C"/>
<path d="M31.75 11.9498V6.79508C31.75 4.98281 30.2819 3.5 28.4875 3.5H21.9625H10V13.5H22.25V20L28.8316 19.2668L31.75 11.9498Z" fill="#FFBA00"/>
<path d="M22.25 26.5H10V36.5H21.9625H28.4875C30.2819 36.5 31.75 35.0194 31.75 33.2097V27.5L28.4849 20.7921L22.25 20V26.5Z" fill="#00AD3C"/>
<path d="M22.25 20L31.75 27.5V11.9498L22.25 20Z" fill="#00831E"/>
</svg>
