<svg width="24" height="24" viewBox="0 0 24 24" fill="none" xmlns="http://www.w3.org/2000/svg">
<path d="M20.7328 21.7518H3.57275C3.17493 21.7518 2.7934 21.5938 2.51209 21.3125C2.23079 21.0311 2.07275 20.6496 2.07275 20.2518V18.2118C2.07275 17.814 2.23079 17.4324 2.51209 17.1511C2.7934 16.8698 3.17493 16.7118 3.57275 16.7118H4.59275C4.81554 16.7118 5.02919 16.8003 5.18672 16.9578C5.34425 17.1154 5.43275 17.329 5.43275 17.5518C5.43275 17.6621 5.45448 17.7713 5.4967 17.8732C5.53891 17.9752 5.60078 18.0678 5.67878 18.1458C5.75679 18.2238 5.84939 18.2856 5.9513 18.3279C6.05321 18.3701 6.16244 18.3918 6.27275 18.3918H18.0328C18.2555 18.3918 18.4692 18.3033 18.6267 18.1458C18.7843 17.9882 18.8728 17.7746 18.8728 17.5518C18.8728 17.329 18.9613 17.1154 19.1188 16.9578C19.2763 16.8003 19.49 16.7118 19.7128 16.7118H20.7328C21.1306 16.7118 21.5121 16.8698 21.7934 17.1511C22.0747 17.4324 22.2328 17.814 22.2328 18.2118V20.2518C22.2328 20.6496 22.0747 21.0311 21.7934 21.3125C21.5121 21.5938 21.1306 21.7518 20.7328 21.7518Z" fill="#6418C3"/>
<path d="M6.21666 11.385C5.98482 11.1995 5.79767 10.9643 5.66905 10.6967C5.54043 10.4291 5.47365 10.136 5.47363 9.83905V9.83575C5.47364 9.50568 5.56357 9.18185 5.73377 8.89905C5.90397 8.61625 6.148 8.38516 6.43964 8.23061C6.73129 8.07605 7.05954 8.00388 7.38912 8.02183C7.71869 8.03979 8.03715 8.1472 8.31028 8.33253L10.503 9.82008L9.84891 4.92558C9.76631 4.5253 9.78934 4.11042 9.91573 3.72175C10.081 3.26076 10.3847 2.86208 10.7852 2.58022C11.1857 2.29836 11.6635 2.14709 12.1532 2.14709C12.6429 2.14709 13.1207 2.29836 13.5212 2.58022C13.9217 2.86208 14.2254 3.26076 14.3907 3.72175C14.5172 4.1104 14.5402 4.52529 14.4577 4.92558L13.8191 9.80958L15.9962 8.33253C16.2693 8.14721 16.5878 8.03981 16.9174 8.02187C17.2469 8.00392 17.5752 8.07611 17.8668 8.23067C18.1584 8.38523 18.4025 8.61633 18.5726 8.89913C18.7428 9.18194 18.8327 9.50577 18.8327 9.83583V9.83913C18.8327 10.1361 18.7659 10.4292 18.6373 10.6968C18.5087 10.9645 18.3215 11.1998 18.0896 11.3853L12.7717 15.6396C12.5961 15.7801 12.378 15.8566 12.1532 15.8566C11.9284 15.8566 11.7103 15.7801 11.5348 15.6396L6.21666 11.385Z" fill="#6418C3"/>
</svg>
