<svg width="28" height="28" viewBox="0 0 28 28" fill="none" xmlns="http://www.w3.org/2000/svg">
<g clip-path="url(#clip0_304_10981)">
<path d="M14 27.9999C21.7319 27.9999 27.9999 21.7319 27.9999 14C27.9999 6.268 21.7319 0 14 0C6.268 0 0 6.268 0 14C0 21.7319 6.268 27.9999 14 27.9999Z" fill="#FDDF6D"/>
<path d="M17 25.9332C9.26806 25.9332 3.00008 19.6652 3.00008 11.9333C3.00008 7.80237 4.78956 4.08993 7.63521 1.52734C3.10284 3.84477 0 8.56 0 14C0 21.732 6.26797 27.9999 13.9999 27.9999C17.601 27.9999 20.8841 26.6399 23.3647 24.406C21.4552 25.3823 19.292 25.9332 17 25.9332Z" fill="#FCC56B"/>
<path d="M11.7445 11.346C10.341 11.4032 9.60376 12.5419 9.54272 12.6398V27.2747C10.9428 27.7445 12.4415 27.9995 13.9998 27.9995C14.0565 27.9995 14.113 27.998 14.1696 27.9974C14.1696 22.8781 14.1696 17.759 14.1696 12.6397C13.6458 11.8023 12.7187 11.3062 11.7445 11.346Z" fill="#3FA9F5"/>
<path d="M21.4608 11.346C20.0574 11.4032 19.3201 12.5419 19.259 12.6398V26.977C21.004 26.2691 22.5742 25.2202 23.8859 23.912C23.8859 20.1547 23.8859 16.3972 23.8859 12.6398C23.3621 11.8023 22.435 11.3062 21.4608 11.346Z" fill="#3FA9F5"/>
<path d="M24.64 13.7115C24.44 13.7115 24.2461 13.6061 24.1419 13.419C23.6248 12.4906 22.6442 11.914 21.5829 11.914C20.5486 11.914 19.5567 12.4967 18.9944 13.4347C18.8327 13.7044 18.4828 13.792 18.2131 13.6303C17.9432 13.4686 17.8557 13.1188 18.0175 12.849C18.7845 11.5697 20.1507 10.7749 21.583 10.7749C23.0572 10.7749 24.419 11.5757 25.1371 12.8647C25.2902 13.1395 25.1916 13.4863 24.9167 13.6394C24.8288 13.6884 24.7337 13.7115 24.64 13.7115Z" fill="#7F184C"/>
<path d="M14.7497 13.7115C14.5498 13.7115 14.3558 13.6061 14.2516 13.419C13.7345 12.4906 12.7539 11.914 11.6926 11.914C10.6583 11.914 9.66647 12.4967 9.10412 13.4347C8.94236 13.7044 8.59253 13.792 8.32281 13.6303C8.05298 13.4686 7.96543 13.1188 8.12719 12.849C8.89423 11.5697 10.2604 10.7749 11.6927 10.7749C13.1669 10.7749 14.5288 11.5757 15.2468 12.8647C15.3999 13.1395 15.3012 13.4863 15.0264 13.6394C14.9385 13.6884 14.8434 13.7115 14.7497 13.7115Z" fill="#7F184C"/>
<path d="M16.715 23.1051C18.1205 23.1051 19.2598 21.9658 19.2598 20.5604C19.2598 19.155 18.1205 18.0156 16.715 18.0156C15.3096 18.0156 14.1703 19.155 14.1703 20.5604C14.1703 21.9658 15.3096 23.1051 16.715 23.1051Z" fill="#7F184C"/>
<path d="M19.3511 4.81912C19.5966 3.95152 18.5362 2.89177 16.9826 2.4521C15.429 2.01243 13.9705 2.35934 13.725 3.22693C13.4794 4.09453 14.5398 5.15427 16.0935 5.59394C17.6471 6.03361 19.1056 5.68671 19.3511 4.81912Z" fill="#FCEB88"/>
</g>
<defs>
<clipPath id="clip0_304_10981">
<rect width="28" height="28" fill="white"/>
</clipPath>
</defs>
</svg>
