<svg width="973" height="79" viewBox="0 0 973 79" fill="none" xmlns="http://www.w3.org/2000/svg">
<path d="M2 56.9634L12.7667 55.191C23.5333 53.4187 45.0666 49.8739 66.6 50.2064C88.1333 50.5389 109.667 54.7486 131.2 57.4279C152.733 60.1071 174.267 61.2558 195.8 63.8114C217.333 66.3671 238.867 70.3297 260.4 68.8462C281.933 67.3628 303.467 60.4333 325 60.3787C346.533 60.3241 368.066 67.1444 389.6 70.8788C411.133 74.6133 432.666 75.262 454.2 75.1843C475.733 75.1067 497.266 74.3026 518.8 68.0078C540.333 61.7129 561.866 49.9273 583.4 45.3078C604.933 40.6883 626.466 43.235 648 49.2533C669.533 55.2716 691.066 64.7615 712.6 69.4873C734.133 74.2132 755.666 74.1749 777.2 74.9025C798.733 75.6302 820.266 77.1238 841.8 76.9918C863.333 76.8597 884.866 75.1021 906.4 68.4992C927.933 61.8963 949.466 50.4481 960.233 44.7241L971 39" stroke="#6418C3" stroke-width="4" stroke-linecap="round"/>
<path d="M5 33.8355L15.7333 28.1264C26.4667 22.4172 47.9333 10.9988 69.4 5.82233C90.8666 0.645892 112.333 1.7114 133.8 3.33552C155.267 4.95964 176.733 7.14237 198.2 19.8174C219.667 32.4925 241.133 55.6598 262.6 66.6808C284.067 77.7017 305.533 76.5761 327 75.0236C348.466 73.471 369.933 71.4915 391.4 63.3339C412.866 55.1763 434.333 40.8406 455.8 37.678C477.266 34.5153 498.733 42.5255 520.2 54.0029C541.666 65.4804 563.133 80.4249 584.6 74.1856C606.066 67.9463 627.533 40.5231 649 32.5915C670.466 24.66 691.933 36.2201 713.4 49.0332C734.866 61.8463 756.333 75.9125 777.8 67.396C799.266 58.8795 820.733 27.7803 842.2 21.1585C863.666 14.5367 885.133 32.3922 906.6 37.411C928.066 42.4297 949.533 34.6116 960.266 30.7025L971 26.7935" stroke="#E328AF" stroke-width="4" stroke-linecap="round"/>
</svg>
