<svg width="14" height="17" viewBox="0 0 14 17" fill="none" xmlns="http://www.w3.org/2000/svg">
<path d="M0 17V16.4599L0.409506 16.3313C0.767824 16.1942 1.0067 16.0141 1.12614 15.7912C1.26264 15.5683 1.3309 15.2683 1.3309 14.8911C1.34796 13.9138 1.35649 12.9365 1.35649 11.9592C1.35649 10.9647 1.35649 9.97025 1.35649 8.97579V8.04992C1.35649 7.05547 1.34796 6.06959 1.3309 5.09228C1.3309 4.09783 1.3309 3.10338 1.3309 2.10892C1.3309 1.69743 1.27118 1.3888 1.15174 1.18306C1.0323 0.960161 0.784887 0.788704 0.409506 0.668683L0 0.54009V0H7.21755C9.26508 0 10.7495 0.385779 11.6709 1.15734C12.5923 1.91175 13.053 2.87191 13.053 4.03782C13.053 4.9294 12.7288 5.73525 12.0804 6.45537C11.4321 7.15835 10.2974 7.66415 8.67642 7.97277C10.5533 8.17852 11.9098 8.66717 12.7459 9.43873C13.582 10.2103 14 11.1533 14 12.2678C14 12.8164 13.8806 13.3737 13.6417 13.9395C13.4028 14.4882 12.9933 14.9939 12.4132 15.4569C11.8501 15.9198 11.0823 16.297 10.1097 16.5885C9.13711 16.8628 7.90859 17 6.42413 17H0ZM4.99086 7.79274H6.19378C7.35405 7.79274 8.19013 7.53555 8.70201 7.02118C9.23096 6.48966 9.49543 5.58951 9.49543 4.32073C9.49543 3.0005 9.25655 2.07463 8.77879 1.54312C8.30104 1.0116 7.55027 0.745839 6.52651 0.745839H4.99086V7.79274ZM4.99086 16.2542H6.39854C7.67824 16.2542 8.63376 15.937 9.26508 15.3026C9.8964 14.6682 10.2121 13.648 10.2121 12.2421C10.2121 10.8875 9.90494 9.93596 9.29068 9.38729C8.69348 8.82148 7.70384 8.53858 6.32175 8.53858H4.99086V16.2542Z" fill="#464366"/>
</svg>
