<svg width="24" height="24" viewBox="0 0 24 24" fill="none" xmlns="http://www.w3.org/2000/svg">
<path d="M12.0047 0H11.9953C6.93187 0 2.8125 4.11937 2.8125 9.18281C2.8125 11.1502 3.46087 13.1017 4.63809 14.6778L11.6007 24H12.3993L19.3619 14.6779C20.5391 13.1017 21.1875 11.1502 21.1875 9.18281C21.1875 4.11937 17.0681 0 12.0047 0ZM12 11.7656C10.4492 11.7656 9.1875 10.5039 9.1875 8.95312C9.1875 7.40231 10.4492 6.14062 12 6.14062C13.5508 6.14062 14.8125 7.40231 14.8125 8.95312C14.8125 10.5039 13.5508 11.7656 12 11.7656Z" fill="#6418C3"/>
</svg>
