<svg width="24" height="24" viewBox="0 0 24 24" fill="none" xmlns="http://www.w3.org/2000/svg">
<path d="M20.6801 2.04996L2.68006 8.04996C2.4973 8.11191 2.33627 8.22521 2.21624 8.37631C2.09622 8.52741 2.02228 8.7099 2.00329 8.90193C1.9843 9.09396 2.02105 9.2874 2.10916 9.45908C2.19726 9.63077 2.33298 9.77342 2.50006 9.86996L9.00006 13.58V21C8.99995 21.2145 9.06901 21.4233 9.19698 21.5955C9.32494 21.7677 9.50501 21.894 9.71045 21.9558C9.9159 22.0175 10.1358 22.0114 10.3375 21.9383C10.5391 21.8652 10.7119 21.729 10.8301 21.55L14.3101 16.33L20.5001 19.87C20.6528 19.9554 20.825 19.9996 21 19.9982C21.1749 19.9968 21.3465 19.9499 21.4978 19.8622C21.6492 19.7744 21.7751 19.6487 21.8631 19.4976C21.9512 19.3464 21.9984 19.1749 22.0001 19V2.99996C21.999 2.84147 21.9605 2.68548 21.8878 2.54467C21.815 2.40386 21.71 2.28221 21.5814 2.18963C21.4528 2.09705 21.3041 2.03614 21.1475 2.01187C20.9908 1.9876 20.8307 2.00065 20.6801 2.04996ZM13.1101 14.54L11.0001 17.7V13.51L14.6701 10.89L13.1101 14.54Z" fill="white"/>
</svg>
