<svg width="28" height="28" viewBox="0 0 28 28" fill="none" xmlns="http://www.w3.org/2000/svg">
<g clip-path="url(#clip0_304_10956)">
<path d="M13.5514 27.551C21.0356 27.551 27.1027 21.4838 27.1027 13.9996C27.1027 6.5154 21.0356 0.448242 13.5514 0.448242C6.06716 0.448242 0 6.5154 0 13.9996C0 21.4838 6.06716 27.551 13.5514 27.551Z" fill="#FFDB6C"/>
<path d="M16.4552 25.5502C8.97106 25.5502 2.90397 19.4831 2.90397 11.9989C2.90397 8.00039 4.63609 4.40692 7.39054 1.92651C3.00339 4.16964 0 8.73375 0 13.9995C0 21.4836 6.0671 27.5507 13.5513 27.5507C17.0369 27.5507 20.2148 26.2342 22.616 24.0719C20.7676 25.017 18.6737 25.5502 16.4552 25.5502Z" fill="#FCC56B"/>
<path d="M7.72776 14.1953C6.7214 14.1953 5.90552 15.0111 5.90552 16.0175H9.54995C9.54995 15.0111 8.73412 14.1953 7.72776 14.1953Z" fill="#F9A880"/>
<path d="M23.6223 14.1953C22.6159 14.1953 21.8 15.0111 21.8 16.0175H25.4445C25.4445 15.0111 24.6286 14.1953 23.6223 14.1953Z" fill="#F9A880"/>
<path d="M5.75122 6.66549C9.28962 5.85343 12.154 6.13289 15.3269 6.87232C15.7974 6.98191 16.2944 7.10414 16.8193 7.12016C17.6935 7.1469 18.6763 6.92936 19.5236 6.71646C22.8687 5.87613 25.4818 6.31319 27.9999 6.85126L27.8139 8.33937C27.4208 8.34806 27.2972 8.53137 27.1848 8.8892C26.5971 10.7618 27.0977 13.9839 22.7525 13.6051C19.894 13.3558 19.0754 12.5726 17.7129 9.12905C17.597 8.83615 17.5217 8.35211 16.8597 8.36999C16.4859 8.38005 16.1516 8.44612 16.0351 9.09553C15.8178 10.3055 14.1654 13.5933 10.8105 13.5897C7.84723 13.5865 6.71684 12.0484 6.58187 8.65912C6.56514 8.2383 6.1984 8.15841 5.97839 8.15348L5.75122 6.66549Z" fill="#56586F"/>
<path d="M10.8897 6.19751L8.82031 13.2546C9.36489 13.4787 10.0223 13.5893 10.8105 13.5901C10.8244 13.5901 10.8381 13.5896 10.852 13.5895L12.9574 6.40942C12.2689 6.30541 11.5832 6.23256 10.8897 6.19751Z" fill="#737891"/>
<path d="M23.758 6.25459C23.0694 6.23255 22.3545 6.25459 21.6036 6.33848L19.7562 12.6386C20.2614 13.0629 20.8579 13.3092 21.6453 13.4598L23.758 6.25459Z" fill="#737891"/>
<path d="M17.482 21.6518C16.5641 21.6518 15.6565 21.3384 14.9235 20.7375C14.6881 20.5445 14.6538 20.1971 14.8468 19.9617C15.0399 19.7262 15.3872 19.6919 15.6227 19.8849C16.4439 20.5583 17.5669 20.7347 18.5538 20.3456C19.5153 19.9662 20.2237 19.0609 20.4024 17.9829C20.4523 17.6826 20.736 17.4794 21.0364 17.5292C21.3368 17.5791 21.5399 17.8629 21.4902 18.1633C21.2483 19.6213 20.2782 20.8505 18.9583 21.3711C18.4807 21.5596 17.9799 21.6518 17.482 21.6518Z" fill="#7F184C"/>
<path d="M19.0313 5.05088C19.2689 4.21109 18.2425 3.1853 16.7386 2.75972C15.2348 2.33413 13.823 2.66991 13.5853 3.5097C13.3477 4.34949 14.3741 5.37528 15.878 5.80086C17.3818 6.22645 18.7936 5.89067 19.0313 5.05088Z" fill="#FCEB88"/>
</g>
<defs>
<clipPath id="clip0_304_10956">
<rect width="28" height="28" fill="white"/>
</clipPath>
</defs>
</svg>
