<svg width="126" height="61" viewBox="0 0 126 61" fill="none" xmlns="http://www.w3.org/2000/svg">
<g filter="url(#filter0_d_304_815)">
<path d="M4.75739 14C4.75739 6.26802 11.0254 0 18.7574 0H111.757C119.489 0 125.757 6.26801 125.757 14V47C125.757 54.732 119.489 61 111.757 61H18.7574C11.0254 61 4.75739 54.732 4.75739 47V14Z" fill="#464366"/>
<path d="M7.24264 38.1213C8.41421 36.9497 10.3137 36.9497 11.4853 38.1213L17.8492 44.4853C19.0208 45.6569 19.0208 47.5564 17.8492 48.7279L11.4853 55.0919C10.3137 56.2635 8.41421 56.2635 7.24264 55.0919L0.878679 48.7279C-0.292893 47.5563 -0.292893 45.6569 0.87868 44.4853L7.24264 38.1213Z" fill="#464366"/>
</g>
<defs>
<filter id="filter0_d_304_815" x="-8" y="-4" width="141.758" height="77" filterUnits="userSpaceOnUse" color-interpolation-filters="sRGB">
<feFlood flood-opacity="0" result="BackgroundImageFix"/>
<feColorMatrix in="SourceAlpha" type="matrix" values="0 0 0 0 0 0 0 0 0 0 0 0 0 0 0 0 0 0 127 0" result="hardAlpha"/>
<feOffset dy="4"/>
<feGaussianBlur stdDeviation="4"/>
<feColorMatrix type="matrix" values="0 0 0 0 0 0 0 0 0 0 0 0 0 0 0 0 0 0 0.12 0"/>
<feBlend mode="normal" in2="BackgroundImageFix" result="effect1_dropShadow_304_815"/>
<feBlend mode="normal" in="SourceGraphic" in2="effect1_dropShadow_304_815" result="shape"/>
</filter>
</defs>
</svg>
