<svg width="28" height="28" viewBox="0 0 28 28" fill="none" xmlns="http://www.w3.org/2000/svg">
<g clip-path="url(#clip0_304_11015)">
<path d="M14 27.9999C21.7319 27.9999 27.9999 21.7319 27.9999 14C27.9999 6.268 21.7319 0 14 0C6.268 0 0 6.268 0 14C0 21.7319 6.268 27.9999 14 27.9999Z" fill="#FC4C59"/>
<path d="M17 25.9332C9.26806 25.9332 3.00008 19.6652 3.00008 11.9333C3.00008 7.80237 4.78956 4.08993 7.63521 1.52734C3.10284 3.84477 0 8.56 0 14C0 21.732 6.26797 27.9999 13.9999 27.9999C17.601 27.9999 20.8841 26.6399 23.3647 24.406C21.4552 25.3823 19.292 25.9332 17 25.9332Z" fill="#BC3B4A"/>
<path d="M22.2838 22.5432C22.0839 22.5433 21.8899 22.4378 21.7858 22.2507C21.0897 21.0012 19.7699 20.225 18.3414 20.225C16.9498 20.225 15.6163 21.0073 14.8614 22.2664C14.6996 22.5361 14.3497 22.6235 14.0801 22.462C13.8103 22.3002 13.7228 21.9505 13.8845 21.6807C14.8442 20.0802 16.5519 19.0859 18.3414 19.0859C20.1828 19.0859 21.8839 20.0862 22.7808 21.6964C22.9339 21.9711 22.8353 22.318 22.5605 22.471C22.4727 22.52 22.3776 22.5432 22.2838 22.5432Z" fill="#7C152E"/>
<path d="M13.9702 15.2448C14.8282 15.2448 15.5237 14.5493 15.5237 13.6914C15.5237 12.8334 14.8282 12.1379 13.9702 12.1379C13.1123 12.1379 12.4167 12.8334 12.4167 13.6914C12.4167 14.5493 13.1123 15.2448 13.9702 15.2448Z" fill="#15132B"/>
<path d="M22.2834 14.8249C23.1414 14.8249 23.8369 14.1294 23.8369 13.2715C23.8369 12.4135 23.1414 11.718 22.2834 11.718C21.4255 11.718 20.73 12.4135 20.73 13.2715C20.73 14.1294 21.4255 14.8249 22.2834 14.8249Z" fill="#15132B"/>
<path d="M13.9976 15.8153C13.7387 15.8153 13.4792 15.769 13.2293 15.6759C12.679 15.4709 12.2416 15.064 11.9974 14.53C11.7511 13.9915 11.7465 13.3469 11.9848 12.7615C12.1144 12.4432 12.3098 12.16 12.5531 11.9302C12.4512 11.8779 12.3477 11.8245 12.2429 11.7701C11.854 11.5682 11.5414 11.3836 11.239 11.2052C10.8816 10.9942 10.5119 10.776 9.98666 10.5099C9.70606 10.3678 9.59373 10.0251 9.73592 9.74451C9.87805 9.46385 10.2207 9.35152 10.5014 9.49377C11.0593 9.77634 11.445 10.0041 11.8181 10.2242C12.1206 10.4028 12.4064 10.5715 12.7679 10.7592C13.011 10.8854 13.2467 11.0058 13.4732 11.1215C14.4424 11.6167 15.2795 12.0443 15.8366 12.4963C15.9048 12.5517 15.9592 12.6219 15.9957 12.7017C16.2399 13.2357 16.2615 13.8329 16.0566 14.3831C15.8517 14.9333 15.4446 15.3709 14.9107 15.615C14.6191 15.7484 14.3088 15.8153 13.9976 15.8153ZM13.7039 12.5217C13.403 12.6404 13.1673 12.8778 13.0399 13.1909C12.9195 13.4868 12.9171 13.8022 13.0334 14.0563C13.151 14.3136 13.3618 14.5096 13.6269 14.6084C13.8917 14.7069 14.1795 14.6967 14.4369 14.5791C14.6943 14.4614 14.8903 14.2506 14.989 13.9855C15.0729 13.7601 15.078 13.5184 15.0054 13.2929C14.6791 13.0507 14.2282 12.7969 13.7039 12.5217Z" fill="#7C152E"/>
<path d="M22.3576 15.4277C22.0463 15.4277 21.736 15.3607 21.4446 15.2274C20.9107 14.9833 20.5036 14.5457 20.2987 13.9955C20.0938 13.4452 20.1154 12.8482 20.3596 12.3141C20.3997 12.2264 20.4615 12.1502 20.5391 12.0929C21.1377 11.6507 21.9283 11.191 22.8888 10.7266C24.3303 10.0296 24.4261 9.97341 25.5983 9.28577L25.7763 9.18137C26.0477 9.02223 26.3966 9.11323 26.5558 9.38459C26.7149 9.65589 26.6239 10.0049 26.3526 10.164L26.1747 10.2684C25.1352 10.8782 24.9131 11.0084 23.8699 11.5167C24.0778 11.7148 24.2454 11.9515 24.3645 12.2193C24.6339 12.8252 24.6314 13.5441 24.3579 14.1423C24.1138 14.6762 23.6762 15.0832 23.126 15.2882C22.876 15.3814 22.6165 15.4277 22.3576 15.4277ZM21.3469 12.9144C21.2773 13.1374 21.2833 13.3756 21.3661 13.5979C21.4649 13.863 21.661 14.0739 21.9182 14.1915C22.1755 14.3091 22.4633 14.3193 22.7283 14.2208C22.9934 14.122 23.2043 13.9259 23.3219 13.6687C23.4596 13.3676 23.4602 12.9896 23.3235 12.6821C23.2387 12.4915 23.0624 12.2431 22.6994 12.0984C22.173 12.3776 21.7202 12.6506 21.3469 12.9144Z" fill="#7C152E"/>
<path d="M19.4645 5.22073C19.71 4.35313 18.6496 3.29339 17.096 2.85372C15.5424 2.41405 14.0839 2.76095 13.8384 3.62854C13.5928 4.49614 14.6532 5.55588 16.2069 5.99555C17.7605 6.43522 19.2189 6.08832 19.4645 5.22073Z" fill="#F76B6B"/>
</g>
<defs>
<clipPath id="clip0_304_11015">
<rect width="28" height="28" fill="white"/>
</clipPath>
</defs>
</svg>
