<svg width="24" height="24" viewBox="0 0 24 24" fill="none" xmlns="http://www.w3.org/2000/svg">
<path d="M13.5001 5.00004H12.0001V3.00004C11.9994 2.79308 11.9347 2.59139 11.8148 2.42273C11.6948 2.25406 11.5256 2.12671 11.3303 2.05819C11.135 1.98966 10.9233 1.98333 10.7242 2.04007C10.5252 2.09682 10.3486 2.21384 10.2189 2.37504L6.21885 7.37504C6.07275 7.558 5.99539 7.78638 6.00021 8.02046C6.00504 8.25455 6.09174 8.47955 6.24525 8.65634L10.2453 13.2563C10.3792 13.4095 10.5566 13.5183 10.7539 13.5681C10.9512 13.6179 11.159 13.6064 11.3496 13.5351C11.5402 13.4638 11.7046 13.3362 11.8208 13.1691C11.937 13.002 11.9995 12.8035 12.0001 12.6V11H14.0001C15.9301 11 18.9901 12.6973 18.9901 17.25C18.9906 17.4696 19.0633 17.6829 19.197 17.8571C19.3307 18.0313 19.518 18.1566 19.73 18.2138C19.9421 18.271 20.167 18.2569 20.3702 18.1736C20.5733 18.0903 20.7435 17.9425 20.8544 17.7529C21.6002 16.4611 21.9931 14.9958 21.9935 13.5041C21.9939 12.0124 21.6018 10.5469 20.8566 9.25465C20.1114 7.96244 19.0394 6.88903 17.7481 6.14222C16.4568 5.39542 14.9917 5.0015 13.5001 5.00004Z" fill="#5ECFFF"/>
<path d="M4.27999 8.00012L7.78099 3.62512C7.94522 3.41778 8.02066 3.15383 7.99081 2.89102C7.96096 2.6282 7.82826 2.3879 7.62171 2.22266C7.41517 2.05743 7.15159 1.9807 6.88864 2.00927C6.62568 2.03785 6.38473 2.16938 6.21849 2.37512L2.21849 7.37512C2.07673 7.55259 1.99951 7.77298 1.99951 8.00012C1.99951 8.22726 2.07673 8.44765 2.21849 8.62512L6.21849 13.6251C6.38473 13.8309 6.62568 13.9624 6.88864 13.991C7.15159 14.0195 7.41517 13.9428 7.62171 13.7776C7.82826 13.6123 7.96096 13.372 7.99081 13.1092C8.02066 12.8464 7.94522 12.5825 7.78099 12.3751L4.27999 8.00012Z" fill="#5ECFFF"/>
</svg>
