<svg width="34" height="34" viewBox="0 0 34 34" fill="none" xmlns="http://www.w3.org/2000/svg">
<path d="M27.9544 32.9375H6.04562C5.2876 32.9375 4.56063 32.6364 4.02463 32.1004C3.48862 31.5644 3.1875 30.8374 3.1875 30.0794V3.92062C3.1875 3.1626 3.48862 2.43563 4.02463 1.89963C4.56063 1.36362 5.2876 1.0625 6.04562 1.0625H27.9544C28.7124 1.0625 29.4394 1.36362 29.9754 1.89963C30.5114 2.43563 30.8125 3.1626 30.8125 3.92062V30.0794C30.8125 30.8374 30.5114 31.5644 29.9754 32.1004C29.4394 32.6364 28.7124 32.9375 27.9544 32.9375ZM6.04562 3.1875C5.85119 3.1875 5.66472 3.26474 5.52723 3.40223C5.38974 3.53971 5.3125 3.72619 5.3125 3.92062V30.0794C5.3125 30.2738 5.38974 30.4603 5.52723 30.5978C5.66472 30.7353 5.85119 30.8125 6.04562 30.8125H27.9544C28.1488 30.8125 28.3353 30.7353 28.4728 30.5978C28.6103 30.4603 28.6875 30.2738 28.6875 30.0794V3.92062C28.6875 3.72619 28.6103 3.53971 28.4728 3.40223C28.3353 3.26474 28.1488 3.1875 27.9544 3.1875H6.04562Z" fill="#38E25D"/>
<path d="M24.2354 32.9375H9.76416V1.0625H24.2354V32.9375ZM11.8892 30.8125H22.121V3.1875H11.8892V30.8125Z" fill="#38E25D"/>
<path d="M4.25 15.9375H11.6875V18.0625H4.25V15.9375Z" fill="#38E25D"/>
<path d="M22.3125 15.9375H29.75V18.0625H22.3125V15.9375Z" fill="#38E25D"/>
<path d="M22.3125 8.37244H29.75V10.4974H22.3125V8.37244Z" fill="#38E25D"/>
<path d="M22.3125 23.5132H29.75V25.6382H22.3125V23.5132Z" fill="#38E25D"/>
<path d="M3.92041 8.37244H11.3579V10.4974H3.92041V8.37244Z" fill="#38E25D"/>
<path d="M3.92041 23.5132H11.3579V25.6382H3.92041V23.5132Z" fill="#38E25D"/>
<path d="M10.8267 2.125H22.7586V32.4062H10.8267V2.125Z" fill="#38E25D"/>
</svg>
