<svg width="39" height="29" viewBox="0 0 39 29" fill="none" xmlns="http://www.w3.org/2000/svg">
<g clip-path="url(#clip0_304_4846)">
<path d="M38.0625 21.6515C38.0625 22.5053 37.891 23.3507 37.5579 24.1395C37.2247 24.9283 36.7364 25.645 36.1208 26.2487C35.5052 26.8524 34.7743 27.3313 33.97 27.658C33.1657 27.9847 32.3036 28.1529 31.433 28.1529H0.9375V0.847168H31.433V15.1502C33.1913 15.1502 34.8775 15.8351 36.1208 17.0544C37.364 18.2736 38.0625 19.9272 38.0625 21.6515Z" fill="#464366"/>
<path d="M31.433 6.04825H0.9375V0.847168H31.433V6.04825ZM4.91518 22.9518H20.8259V11.2493H4.91518V22.9518ZM31.433 15.1502C30.1219 15.1502 28.8401 15.5315 27.7499 16.2458C26.6597 16.9602 25.81 17.9756 25.3082 19.1636C24.8064 20.3515 24.6752 21.6587 24.931 22.9199C25.1868 24.181 25.8181 25.3394 26.7453 26.2487C27.6724 27.1579 28.8537 27.7771 30.1397 28.028C31.4257 28.2788 32.7586 28.1501 33.97 27.658C35.1814 27.1659 36.2168 26.3326 36.9452 25.2635C37.6737 24.1943 38.0625 22.9374 38.0625 21.6515C38.0625 19.9272 37.364 18.2736 36.1208 17.0544C34.8775 15.8351 33.1913 15.1502 31.433 15.1502Z" fill="#464366"/>
<path d="M14.8594 17.1006L20.8259 22.9518H4.91516L10.8817 17.1006L12.8705 19.051L14.8594 17.1006Z" fill="#464366"/>
<path d="M17.1797 15.1501C17.3764 15.1501 17.5687 15.0929 17.7322 14.9858C17.8957 14.8786 18.0232 14.7263 18.0984 14.5481C18.1737 14.3699 18.1934 14.1738 18.155 13.9847C18.1167 13.7955 18.022 13.6217 17.8829 13.4853C17.7438 13.349 17.5666 13.2561 17.3737 13.2184C17.1808 13.1808 16.9809 13.2001 16.7992 13.2739C16.6175 13.3478 16.4622 13.4727 16.3529 13.6331C16.2436 13.7935 16.1853 13.982 16.1853 14.1749C16.1853 14.4336 16.2901 14.6816 16.4766 14.8645C16.6631 15.0474 16.916 15.1501 17.1797 15.1501Z" fill="#464366"/>
<path d="M32.096 14.533V1.49729C32.0956 1.15256 31.9558 0.822062 31.7072 0.5783C31.4586 0.334537 31.1216 0.197417 30.7701 0.197021H1.60046C1.24893 0.197417 0.911923 0.334537 0.663357 0.5783C0.414792 0.822062 0.27497 1.15256 0.274567 1.49729V27.5027C0.27497 27.8475 0.414792 28.178 0.663357 28.4217C0.911923 28.6655 1.24893 28.8026 1.60046 28.803H31.433C33.3095 28.8035 35.1139 28.0944 36.4708 26.8233C37.8277 25.5522 38.6326 23.817 38.718 21.9787C38.8034 20.1404 38.1628 18.3405 36.9293 16.9537C35.6959 15.5669 33.9647 14.6998 32.096 14.533ZM30.7701 1.49729V5.39811H1.60046V1.49729H30.7701ZM1.60046 27.5027V6.69838H30.7701V14.533C29.2824 14.6646 27.8719 15.2416 26.7298 16.1858C25.5877 17.13 24.7692 18.3957 24.3854 19.8114C24.0015 21.2271 24.0708 22.7244 24.5838 24.1002C25.0968 25.476 26.0288 26.6638 27.2534 27.5027H1.60046ZM31.433 27.5027C30.253 27.5027 29.0994 27.1596 28.1182 26.5166C27.137 25.8737 26.3723 24.9598 25.9207 23.8907C25.4691 22.8215 25.351 21.645 25.5812 20.51C25.8114 19.375 26.3796 18.3324 27.2141 17.5141C28.0485 16.6958 29.1116 16.1385 30.269 15.9127C31.4264 15.6869 32.6261 15.8028 33.7163 16.2457C34.8066 16.6885 35.7384 17.4385 36.394 18.4007C37.0496 19.363 37.3996 20.4942 37.3996 21.6515C37.3978 23.2028 36.7686 24.6901 35.6501 25.787C34.5315 26.884 33.0149 27.501 31.433 27.5027ZM2.92635 3.4477C2.92635 3.31912 2.96523 3.19342 3.03808 3.0865C3.11092 2.97959 3.21446 2.89626 3.3356 2.84705C3.45674 2.79785 3.59003 2.78497 3.71863 2.81006C3.84723 2.83514 3.96536 2.89706 4.05807 2.98799C4.15079 3.07891 4.21393 3.19475 4.23951 3.32087C4.26509 3.44698 4.25196 3.5777 4.20178 3.6965C4.1516 3.81529 4.06663 3.91683 3.95761 3.98827C3.84859 4.05971 3.72042 4.09784 3.5893 4.09784C3.41347 4.09784 3.24485 4.02934 3.12052 3.90742C2.9962 3.78549 2.92635 3.62013 2.92635 3.4477ZM5.57814 3.4477C5.57814 3.31912 5.61702 3.19342 5.68986 3.0865C5.76271 2.97959 5.86625 2.89626 5.98738 2.84705C6.10852 2.79785 6.24182 2.78497 6.37042 2.81006C6.49902 2.83514 6.61714 2.89706 6.70986 2.98799C6.80257 3.07891 6.86571 3.19475 6.89129 3.32087C6.91687 3.44698 6.90374 3.5777 6.85357 3.6965C6.80339 3.81529 6.71842 3.91683 6.6094 3.98827C6.50038 4.05971 6.3722 4.09784 6.24108 4.09784C6.06526 4.09784 5.89664 4.02934 5.77231 3.90742C5.64798 3.78549 5.57814 3.62013 5.57814 3.4477ZM8.22992 3.4477C8.22992 3.31912 8.2688 3.19342 8.34165 3.0865C8.4145 2.97959 8.51803 2.89626 8.63917 2.84705C8.76031 2.79785 8.89361 2.78497 9.0222 2.81006C9.1508 2.83514 9.26893 2.89706 9.36164 2.98799C9.45436 3.07891 9.5175 3.19475 9.54308 3.32087C9.56866 3.44698 9.55553 3.5777 9.50535 3.6965C9.45518 3.81529 9.3702 3.91683 9.26118 3.98827C9.15216 4.05971 9.02399 4.09784 8.89287 4.09784C8.71704 4.09784 8.54842 4.02934 8.4241 3.90742C8.29977 3.78549 8.22992 3.62013 8.22992 3.4477ZM34.4826 23.759C34.6233 23.8624 34.7162 24.0165 34.7411 24.1871C34.766 24.3578 34.7207 24.5312 34.6152 24.6692C34.5097 24.8071 34.3526 24.8983 34.1786 24.9227C34.0045 24.9471 33.8277 24.9027 33.6871 24.7992L31.0353 22.8488C30.9529 22.7883 30.886 22.7098 30.84 22.6195C30.794 22.5292 30.77 22.4296 30.7701 22.3287V19.078C30.7701 18.9056 30.8399 18.7402 30.9643 18.6183C31.0886 18.4964 31.2572 18.4279 31.433 18.4279C31.6089 18.4279 31.7775 18.4964 31.9018 18.6183C32.0261 18.7402 32.096 18.9056 32.096 19.078V22.0036L34.4826 23.759ZM20.8259 10.5992H4.91519C4.73937 10.5992 4.57074 10.6677 4.44642 10.7896C4.32209 10.9115 4.25224 11.0769 4.25224 11.2493V22.9518C4.25224 23.1242 4.32209 23.2896 4.44642 23.4115C4.57074 23.5334 4.73937 23.6019 4.91519 23.6019H20.8259C21.0017 23.6019 21.1704 23.5334 21.2947 23.4115C21.419 23.2896 21.4888 23.1242 21.4888 22.9518V11.2493C21.4888 11.0769 21.419 10.9115 21.2947 10.7896C21.1704 10.6677 21.0017 10.5992 20.8259 10.5992ZM6.51561 22.3016L10.8817 18.0199L15.2478 22.3016H6.51561ZM17.1228 22.3016L13.808 19.051L14.8594 18.0199L19.2255 22.3016H17.1228ZM20.163 21.3823L15.3281 16.6408C15.2038 16.5189 15.0352 16.4505 14.8594 16.4505C14.6835 16.4505 14.5149 16.5189 14.3906 16.6408L12.8705 18.1316L11.3504 16.6408C11.2261 16.5189 11.0575 16.4505 10.8817 16.4505C10.7059 16.4505 10.5373 16.5189 10.4129 16.6408L5.57814 21.3823V11.8995H20.163V21.3823ZM17.1797 15.8003C17.5075 15.8003 17.8279 15.705 18.1005 15.5264C18.373 15.3478 18.5855 15.0939 18.7109 14.7969C18.8363 14.4999 18.8692 14.1731 18.8052 13.8579C18.7413 13.5426 18.5834 13.253 18.3516 13.0257C18.1198 12.7983 17.8245 12.6435 17.503 12.5808C17.1815 12.5181 16.8483 12.5503 16.5455 12.6733C16.2426 12.7963 15.9838 13.0047 15.8016 13.272C15.6195 13.5392 15.5223 13.8535 15.5223 14.1749C15.5228 14.6059 15.6976 15.019 16.0083 15.3237C16.319 15.6284 16.7403 15.7998 17.1797 15.8003ZM17.1797 13.8499C17.2453 13.8499 17.3093 13.8689 17.3639 13.9047C17.4184 13.9404 17.4608 13.9911 17.4859 14.0505C17.511 14.1099 17.5176 14.1753 17.5048 14.2384C17.492 14.3014 17.4604 14.3593 17.4141 14.4048C17.3677 14.4503 17.3087 14.4812 17.2444 14.4938C17.1801 14.5063 17.1134 14.4999 17.0528 14.4753C16.9923 14.4507 16.9405 14.409 16.9041 14.3555C16.8677 14.3021 16.8482 14.2392 16.8482 14.1749C16.8482 14.0887 16.8831 14.006 16.9453 13.9451C17.0075 13.8841 17.0918 13.8499 17.1797 13.8499Z" fill="#15132B"/>
</g>
<defs>
<clipPath id="clip0_304_4846">
<rect width="39" height="29" fill="white"/>
</clipPath>
</defs>
</svg>
