<svg width="24" height="24" viewBox="0 0 24 24" fill="none" xmlns="http://www.w3.org/2000/svg">
<path d="M21 12H20V3C20 2.73478 19.8946 2.48043 19.7071 2.29289C19.5196 2.10536 19.2652 2 19 2H5C4.73478 2 4.48043 2.10536 4.29289 2.29289C4.10536 2.48043 4 2.73478 4 3V12H3C2.73478 12 2.48043 12.1054 2.29289 12.2929C2.10536 12.4804 2 12.7348 2 13V17C2.00156 18.3256 2.52885 19.5965 3.46619 20.5338C4.40353 21.4712 5.6744 21.9984 7 22H17C18.3256 21.9984 19.5965 21.4712 20.5338 20.5338C21.4712 19.5965 21.9984 18.3256 22 17V13C22 12.7348 21.8946 12.4804 21.7071 12.2929C21.5196 12.1054 21.2652 12 21 12ZM6 4H18V12H16C15.7901 12 15.5856 12.066 15.4153 12.1887C15.2451 12.3114 15.1177 12.4845 15.0513 12.6836L14.2793 15H9.7207L8.9487 12.6836C8.8823 12.4845 8.75495 12.3114 8.58468 12.1887C8.41441 12.066 8.20987 12 8 12H6V4Z" fill="#464366"/>
<path d="M9 8H15C15.2652 8 15.5196 7.89464 15.7071 7.7071C15.8946 7.51957 16 7.26521 16 7C16 6.73478 15.8946 6.48043 15.7071 6.29289C15.5196 6.10536 15.2652 6 15 6H9C8.73478 6 8.48043 6.10536 8.29289 6.29289C8.10536 6.48043 8 6.73478 8 7C8 7.26521 8.10536 7.51957 8.29289 7.7071C8.48043 7.89464 8.73478 8 9 8Z" fill="#464366"/>
<path d="M9 11H12C12.2652 11 12.5196 10.8946 12.7071 10.7071C12.8946 10.5196 13 10.2652 13 10C13 9.73478 12.8946 9.48043 12.7071 9.29289C12.5196 9.10536 12.2652 9 12 9H9C8.73478 9 8.48043 9.10536 8.29289 9.29289C8.10536 9.48043 8 9.73478 8 10C8 10.2652 8.10536 10.5196 8.29289 10.7071C8.48043 10.8946 8.73478 11 9 11Z" fill="#464366"/>
</svg>
