<svg width="24" height="24" viewBox="0 0 24 24" fill="none" xmlns="http://www.w3.org/2000/svg">
<path d="M19 6H13V14.59L15.29 12.29C15.4786 12.103 15.7336 11.9983 15.9992 11.9988C16.2647 11.9993 16.5193 12.1051 16.7071 12.2929C16.8949 12.4807 17.0007 12.7353 17.0012 13.0008C17.0017 13.2664 16.897 13.5214 16.71 13.71L12.71 17.71C12.5198 17.8947 12.2651 17.9979 12 17.9979C11.7349 17.9979 11.4802 17.8947 11.29 17.71L7.29 13.71C7.10297 13.5214 6.99826 13.2664 6.9988 13.0008C6.99934 12.7353 7.10509 12.4807 7.29289 12.2929C7.4807 12.1051 7.73526 11.9993 8.00085 11.9988C8.26644 11.9983 8.52143 12.103 8.71 12.29L11 14.59V6H5C4.20506 6.00232 3.44335 6.31914 2.88124 6.88124C2.31914 7.44335 2.00232 8.20506 2 9V19C2.00232 19.7949 2.31914 20.5566 2.88124 21.1188C3.44335 21.6809 4.20506 21.9977 5 22H19C19.7949 21.9977 20.5566 21.6809 21.1188 21.1188C21.6809 20.5566 21.9977 19.7949 22 19V9C21.9977 8.20506 21.6809 7.44335 21.1188 6.88124C20.5566 6.31914 19.7949 6.00232 19 6Z" fill="white"/>
<path d="M13 3C13 2.73478 12.8947 2.48043 12.7071 2.29289C12.5196 2.10536 12.2652 2 12 2C11.7348 2 11.4804 2.10536 11.2929 2.29289C11.1054 2.48043 11 2.73478 11 3V6H13V3Z" fill="white"/>
</svg>
