<svg width="24" height="24" viewBox="0 0 24 24" fill="none" xmlns="http://www.w3.org/2000/svg">
<path d="M20.6802 2.04996L2.68018 8.04996C2.49742 8.11191 2.33639 8.22521 2.21637 8.37631C2.09634 8.52741 2.0224 8.7099 2.00341 8.90193C1.98442 9.09396 2.02117 9.2874 2.10928 9.45908C2.19738 9.63077 2.3331 9.77342 2.50018 9.86996L9.00018 13.58V21C9.00008 21.2145 9.06913 21.4233 9.1971 21.5955C9.32507 21.7677 9.50513 21.894 9.71058 21.9558C9.91602 22.0175 10.1359 22.0114 10.3376 21.9383C10.5393 21.8652 10.712 21.729 10.8302 21.55L14.3102 16.33L20.5002 19.87C20.6529 19.9554 20.8252 19.9996 21.0001 19.9982C21.1751 19.9968 21.3466 19.9499 21.498 19.8622C21.6493 19.7744 21.7752 19.6487 21.8632 19.4976C21.9513 19.3464 21.9985 19.1749 22.0002 19V2.99996C21.9991 2.84147 21.9606 2.68548 21.8879 2.54467C21.8151 2.40386 21.7102 2.28221 21.5815 2.18963C21.4529 2.09705 21.3042 2.03614 21.1476 2.01187C20.991 1.9876 20.8308 2.00065 20.6802 2.04996ZM13.1102 14.54L11.0002 17.7V13.51L14.6702 10.89L13.1102 14.54Z" fill="#464366"/>
</svg>
