<svg width="24" height="24" viewBox="0 0 24 24" fill="none" xmlns="http://www.w3.org/2000/svg">
<g clip-path="url(#clip0_304_6753)">
<path d="M16.4935 6.34528C16.0279 5.8745 15.2693 5.86857 14.7964 6.33205L5.92643 15.0986L2.07056 11.1068C1.61067 10.6275 0.849313 10.6118 0.370044 11.0717C-0.109276 11.5315 -0.125009 12.2929 0.334881 12.7722C0.336964 12.7743 0.338996 12.7764 0.34108 12.7786L5.0425 17.6508C5.26749 17.8803 5.57501 18.0103 5.89643 18.0116H5.90966C6.22499 18.0106 6.52734 17.8858 6.75156 17.664L16.4826 8.04231C16.9528 7.57606 16.9576 6.81752 16.4935 6.34528Z" fill="#34A8D9"/>
<path d="M12.2591 17.6504C12.4835 17.8793 12.79 18.0092 13.1106 18.0112H13.1238C13.4392 18.0102 13.7415 17.8853 13.9657 17.6636L23.6968 8.0419C24.1379 7.54523 24.0929 6.78507 23.5962 6.34399C23.146 5.94411 22.4694 5.93885 22.0131 6.33164L13.1467 15.0982L12.8303 14.7698C12.3705 14.2905 11.6092 14.2747 11.1298 14.7346C10.6505 15.1945 10.6347 15.9558 11.0946 16.4351C11.0967 16.4373 11.0988 16.4395 11.1009 16.4416L12.2591 17.6504Z" fill="#34A8D9"/>
</g>
<defs>
<clipPath id="clip0_304_6753">
<rect width="24" height="24" fill="white"/>
</clipPath>
</defs>
</svg>
