<svg width="24" height="24" viewBox="0 0 24 24" fill="none" xmlns="http://www.w3.org/2000/svg">
<path d="M15.109 14.9674L14.2581 15.8183C14.2031 15.8757 14.137 15.9212 14.0639 15.9522C13.9907 15.9831 13.912 15.9988 13.8326 15.9983C13.6726 15.9969 13.5196 15.9322 13.4071 15.8183L11.0017 13.3801C10.946 13.3242 10.902 13.2578 10.872 13.1848C10.8421 13.1118 10.8268 13.0336 10.8271 12.9547V7.29829C10.8271 7.13916 10.8904 6.98655 11.0029 6.87403C11.1154 6.76151 11.268 6.69829 11.4271 6.69829H12.6271C12.7858 6.69971 12.9376 6.76339 13.0498 6.8756C13.162 6.98782 13.2257 7.1396 13.2271 7.29829V11.9619C13.2268 12.0408 13.2421 12.119 13.272 12.192C13.302 12.265 13.346 12.3314 13.4017 12.3874L15.1362 14.1219C15.2443 14.2379 15.302 14.3919 15.2969 14.5503C15.2918 14.7087 15.2242 14.8586 15.109 14.9674ZM11.9999 2.49829C10.1206 2.49829 8.28351 3.05556 6.72094 4.09964C5.15838 5.14371 3.9405 6.62769 3.22133 8.36392C2.50216 10.1002 2.314 12.0107 2.68063 13.8538C3.04726 15.697 3.95222 17.3901 5.28107 18.7189C6.60992 20.0478 8.30298 20.9527 10.1462 21.3194C11.9893 21.686 13.8998 21.4978 15.6361 20.7786C17.3723 20.0595 18.8563 18.8416 19.9003 17.279C20.9444 15.7165 21.5017 13.8794 21.5017 12.0001C21.5017 9.48007 20.5006 7.06325 18.7187 5.28131C16.9367 3.49937 14.5199 2.49829 11.9999 2.49829Z" fill="#FF4A55"/>
</svg>
