<svg width="24" height="24" viewBox="0 0 24 24" fill="none" xmlns="http://www.w3.org/2000/svg">
<path d="M14.23 13.63C14.0824 13.7091 13.9175 13.7504 13.75 13.7504C13.5825 13.7504 13.4177 13.7091 13.27 13.63L7.96002 10.73L6.62002 9.99999H4.00002C3.7348 9.99999 3.48045 10.1054 3.29291 10.2929C3.10537 10.4804 3.00002 10.7348 3.00002 11C3.00002 11.2652 3.10537 11.5196 3.29291 11.7071C3.48045 11.8946 3.7348 12 4.00002 12H6.00002V14H5.00002C4.7348 14 4.48045 14.1054 4.29291 14.2929C4.10538 14.4804 4.00002 14.7348 4.00002 15C4.00002 15.2652 4.10538 15.5196 4.29291 15.7071C4.48045 15.8946 4.7348 16 5.00002 16H6.13002C6.35028 16.8588 6.85022 17.6199 7.55097 18.1631C8.25171 18.7063 9.11338 19.0008 10 19H18C18.5253 19.0001 19.0456 18.8968 19.5309 18.6958C20.0163 18.4948 20.4573 18.2002 20.8288 17.8287C21.2002 17.4573 21.4949 17.0163 21.6958 16.5309C21.8968 16.0455 22.0002 15.5253 22 15V9.38999L14.23 13.63Z" fill="#6418C3"/>
<path d="M7.13 8L13.75 11.6108L21.521 7.372C21.556 7.35899 21.5917 7.34804 21.6279 7.3392C21.3105 6.64299 20.7999 6.05251 20.1568 5.63787C19.5137 5.22322 18.7652 5.00184 18 5H10C9.03378 5.00182 8.10171 5.35757 7.38 6H3C2.73478 6 2.48043 6.10536 2.29289 6.29289C2.10536 6.48043 2 6.73478 2 7C2 7.26522 2.10536 7.51957 2.29289 7.70711C2.48043 7.89464 2.73478 8 3 8H7.13Z" fill="#6418C3"/>
</svg>
