<svg width="108" height="24" viewBox="0 0 108 24" fill="none" xmlns="http://www.w3.org/2000/svg">
<g clip-path="url(#clip0_304_4452)">
<path d="M22.5262 16.95C22.4648 16.9013 18 13.683 16.7745 13.914C16.1895 14.0175 15.855 14.4165 15.1838 15.2153C15.0758 15.3443 14.8162 15.6532 14.6145 15.873C14.1903 15.7346 13.7765 15.5662 13.3762 15.369C11.3104 14.3633 9.64124 12.6941 8.6355 10.6283C8.43815 10.2281 8.26972 9.81425 8.1315 9.39C8.352 9.1875 8.661 8.928 8.793 8.817C9.588 8.1495 9.98775 7.815 10.0912 7.2285C10.3035 6.0135 7.0875 1.518 7.05375 1.4775C6.90784 1.26905 6.71741 1.09565 6.49625 0.969827C6.2751 0.844008 6.02874 0.768921 5.775 0.75C4.4715 0.75 0.75 5.57775 0.75 6.39075C0.75 6.438 0.81825 11.241 6.741 17.2658C12.7597 23.1817 17.562 23.25 17.6092 23.25C18.423 23.25 23.25 19.5285 23.25 18.225C23.2313 17.9722 23.1567 17.7266 23.0315 17.5061C22.9063 17.2856 22.7338 17.0957 22.5262 16.95Z" fill="#464366"/>
</g>
<path d="M102 1H89.9999C88.6743 1.00159 87.4035 1.52888 86.4662 2.46622C85.5288 3.40356 85.0015 4.67441 84.9999 6V14C85.0014 15.1522 85.4 16.2687 86.1287 17.1613C86.8573 18.0538 87.8714 18.6679 88.9999 18.9V22C88.9999 22.181 89.049 22.3587 89.1421 22.514C89.2351 22.6693 89.3685 22.7965 89.5282 22.8819C89.6878 22.9673 89.8676 23.0078 90.0485 22.999C90.2293 22.9902 90.4043 22.9325 90.5549 22.832L96.2999 19H102C103.326 18.9984 104.596 18.4711 105.534 17.5338C106.471 16.5964 106.998 15.3256 107 14V6C106.998 4.67441 106.471 3.40356 105.534 2.46622C104.596 1.52888 103.326 1.00159 102 1ZM99.9999 13H91.9999C91.7347 13 91.4804 12.8946 91.2928 12.7071C91.1053 12.5196 90.9999 12.2652 90.9999 12C90.9999 11.7348 91.1053 11.4804 91.2928 11.2929C91.4804 11.1054 91.7347 11 91.9999 11H99.9999C100.265 11 100.52 11.1054 100.707 11.2929C100.895 11.4804 101 11.7348 101 12C101 12.2652 100.895 12.5196 100.707 12.7071C100.52 12.8946 100.265 13 99.9999 13ZM102 9H89.9999C89.7347 9 89.4804 8.89464 89.2928 8.70711C89.1053 8.51957 88.9999 8.26522 88.9999 8C88.9999 7.73478 89.1053 7.48043 89.2928 7.29289C89.4804 7.10536 89.7347 7 89.9999 7H102C102.265 7 102.52 7.10536 102.707 7.29289C102.895 7.48043 103 7.73478 103 8C103 8.26522 102.895 8.51957 102.707 8.70711C102.52 8.89464 102.265 9 102 9Z" fill="#6418C3"/>
<g clip-path="url(#clip1_304_4452)">
<path d="M55.5755 4.94971H44.6258C43.1816 4.94971 42 6.13133 42 7.57553V16.4245C42 17.8687 43.1816 19.0504 44.6258 19.0504H55.5755C57.0197 19.0504 58.2013 17.8687 58.2013 16.4245V7.57553C58.2013 6.10507 57.0197 4.94971 55.5755 4.94971Z" fill="#464366"/>
<path d="M64.057 6.39386C63.8994 6.42012 63.7419 6.49889 63.6106 6.57766L59.5143 8.9409V15.0328L63.6368 17.396C64.3983 17.8424 65.3436 17.5798 65.79 16.8184C65.9213 16.582 66.0001 16.3194 66.0001 16.0306V7.91683C66.0001 6.94528 65.081 6.15753 64.057 6.39386Z" fill="#464366"/>
</g>
<defs>
<clipPath id="clip0_304_4452">
<rect width="24" height="24" fill="white"/>
</clipPath>
<clipPath id="clip1_304_4452">
<rect width="24" height="24" fill="white" transform="translate(42)"/>
</clipPath>
</defs>
</svg>
