<svg width="28" height="28" viewBox="0 0 28 28" fill="none" xmlns="http://www.w3.org/2000/svg">
<path d="M9.3335 2.33325H5.8335C3.9005 2.33325 2.3335 3.90026 2.3335 5.83325V9.33325C2.3335 11.2662 3.9005 12.8333 5.8335 12.8333H9.3335C11.2665 12.8333 12.8335 11.2662 12.8335 9.33325V5.83325C12.8335 3.90026 11.2665 2.33325 9.3335 2.33325Z" fill="#6418C3"/>
<path d="M22.167 2.33325H18.667C16.734 2.33325 15.167 3.90026 15.167 5.83325V9.33325C15.167 11.2662 16.734 12.8333 18.667 12.8333H22.167C24.1 12.8333 25.667 11.2662 25.667 9.33325V5.83325C25.667 3.90026 24.1 2.33325 22.167 2.33325Z" fill="#6418C3"/>
<path d="M9.3335 15.1665H5.8335C3.9005 15.1665 2.3335 16.7335 2.3335 18.6665V22.1665C2.3335 24.0995 3.9005 25.6665 5.8335 25.6665H9.3335C11.2665 25.6665 12.8335 24.0995 12.8335 22.1665V18.6665C12.8335 16.7335 11.2665 15.1665 9.3335 15.1665Z" fill="#6418C3"/>
<path d="M22.167 15.1665H18.667C16.734 15.1665 15.167 16.7335 15.167 18.6665V22.1665C15.167 24.0995 16.734 25.6665 18.667 25.6665H22.167C24.1 25.6665 25.667 24.0995 25.667 22.1665V18.6665C25.667 16.7335 24.1 15.1665 22.167 15.1665Z" fill="#6418C3"/>
</svg>
