<svg width="24" height="24" viewBox="0 0 24 24" fill="none" xmlns="http://www.w3.org/2000/svg">
<path d="M22.4054 7.48914C22.408 8.47301 22.2155 9.44764 21.8389 10.3566C21.4624 11.2656 20.9093 12.0908 20.2116 12.7846L10.7556 22.2405C9.74881 23.246 8.38391 23.8106 6.96097 23.8101C5.53803 23.8096 4.1735 23.2442 3.16733 22.238C2.16115 21.2318 1.59568 19.8673 1.59522 18.4443C1.59475 17.0214 2.15932 15.6565 3.16482 14.6497L12.7386 5.07617C13.0396 4.77284 13.3975 4.53194 13.7919 4.36727C14.1862 4.20261 14.6092 4.11743 15.0365 4.11661C15.4639 4.1158 15.8872 4.19937 16.2821 4.36254C16.6771 4.5257 17.036 4.76524 17.3381 5.06742C17.6403 5.3696 17.8799 5.72847 18.043 6.12344C18.2062 6.51841 18.2897 6.94171 18.2889 7.36905C18.2881 7.79639 18.2029 8.21936 18.0382 8.6137C17.8735 9.00804 17.6326 9.36598 17.3293 9.66699L10.0756 16.9205C10.0053 16.9909 9.90989 17.0304 9.81044 17.0304C9.711 17.0304 9.61562 16.9909 9.5453 16.9205L8.48476 15.86C8.41445 15.7897 8.37495 15.6943 8.37495 15.5949C8.37495 15.4954 8.41445 15.4 8.48476 15.3297L15.7385 8.07617C15.831 7.98364 15.9044 7.8738 15.9545 7.7529C16.0046 7.63201 16.0304 7.50244 16.0304 7.37158C16.0304 7.24073 16.0046 7.11115 15.9545 6.99026C15.9044 6.86937 15.831 6.75952 15.7385 6.66699C15.5483 6.48642 15.2961 6.38574 15.0339 6.38574C14.7717 6.38574 14.5194 6.48642 14.3293 6.66699L4.75554 16.2405C4.17084 16.8252 3.84237 17.6182 3.84238 18.4451C3.84239 19.272 4.17089 20.065 4.75559 20.6497C5.3403 21.2344 6.13333 21.5629 6.96022 21.5629C7.78711 21.5629 8.58013 21.2344 9.16482 20.6497L18.6209 11.1939C19.6035 10.2113 20.1555 8.87873 20.1555 7.48921C20.1554 6.09968 19.6035 4.76708 18.6209 3.78454C17.6384 2.802 16.3058 2.25002 14.9162 2.25002C13.5267 2.25003 12.1941 2.80201 11.2116 3.78456L7.07559 7.92054C7.00526 7.99086 6.90989 8.03036 6.81044 8.03036C6.711 8.03036 6.61562 7.99086 6.5453 7.92054L5.48476 6.86001C5.41445 6.78968 5.37495 6.69431 5.37495 6.59486C5.37495 6.49542 5.41445 6.40004 5.48476 6.32972L9.62075 2.19388C10.6681 1.14657 12.0025 0.433347 13.4552 0.144391C14.9079 -0.144566 16.4136 0.00372455 17.7821 0.57051C19.1505 1.1373 20.3201 2.09712 21.143 3.32862C21.966 4.56012 22.4053 6.00799 22.4054 7.48914Z" fill="#5ECFFF"/>
</svg>
