<svg width="1275" height="610" viewBox="0 0 1275 610" fill="none" xmlns="http://www.w3.org/2000/svg">
<rect x="0.25" y="304.25" width="1274.5" height="0.5" rx="0.25" stroke="#464366" stroke-width="0.5" stroke-dasharray="4 8"/>
<rect x="0.25" y="399.25" width="1274.5" height="0.5" rx="0.25" stroke="#464366" stroke-width="0.5" stroke-dasharray="4 8"/>
<rect x="0.25" y="494.25" width="1274.5" height="0.5" rx="0.25" stroke="#464366" stroke-width="0.5" stroke-dasharray="4 8"/>
<rect x="0.25" y="589.25" width="1274.5" height="0.5" rx="0.25" stroke="#464366" stroke-width="0.5" stroke-dasharray="4 8"/>
<rect y="209" width="1275" height="2" rx="1" fill="#A5A5A5"/>
<rect x="0.25" y="114.25" width="1274.5" height="0.5" rx="0.25" stroke="#464366" stroke-width="0.5" stroke-dasharray="4 8"/>
<rect x="0.25" y="19.25" width="1274.5" height="0.5" rx="0.25" stroke="#464366" stroke-width="0.5" stroke-dasharray="4 8"/>
<line x1="180.5" y1="2.18557e-08" x2="180.5" y2="610" stroke="#464366"/>
<line x1="361.5" y1="2.18557e-08" x2="361.5" y2="610" stroke="#464366"/>
<line x1="546.5" y1="2.18557e-08" x2="546.5" y2="610" stroke="#464366"/>
<line x1="726.5" y1="2.18557e-08" x2="726.5" y2="610" stroke="#464366"/>
<line x1="908.5" y1="2.18557e-08" x2="908.5" y2="610" stroke="#464366"/>
<line x1="1089.5" y1="2.18557e-08" x2="1089.5" y2="610" stroke="#464366"/>
<line x1="1273.5" y1="2.18557e-08" x2="1273.5" y2="610" stroke="#464366"/>
</svg>
