<svg width="18" height="18" viewBox="0 0 18 18" fill="none" xmlns="http://www.w3.org/2000/svg">
<g clip-path="url(#clip0_304_4081)">
<path d="M9.66736 1.41778C8.16772 1.28572 6.66259 1.60133 5.34232 2.32468C4.02204 3.04804 2.94592 4.14665 2.25003 5.48161C1.55413 6.81656 1.26972 8.32789 1.43277 9.82448C1.59581 11.3211 2.19899 12.7357 3.16602 13.8895C4.13305 15.0433 5.42049 15.8844 6.86556 16.3065C8.31062 16.7286 9.8484 16.7127 11.2844 16.2608C12.7204 15.8089 13.9902 14.9413 14.9332 13.7678C15.8761 12.5943 16.4499 11.1674 16.582 9.6678C16.7566 7.65737 16.1267 5.65974 14.8305 4.11312C13.5342 2.56649 11.6774 1.59717 9.66736 1.41778ZM8.45337 15.2038C7.22639 15.0958 6.059 14.6263 5.09883 13.8548C4.13866 13.0833 3.42884 12.0444 3.05911 10.8695C2.68939 9.69453 2.67638 8.43635 3.02172 7.25402C3.36707 6.0717 4.05525 5.01833 4.99926 4.22712C5.94327 3.43592 7.1007 2.94241 8.32518 2.80901C9.54966 2.67561 10.7862 2.90831 11.8784 3.47768C12.9707 4.04704 13.8695 4.92751 14.4614 6.00773C15.0532 7.08796 15.3114 8.31942 15.2034 9.54641C15.0565 11.1909 14.2634 12.7101 12.998 13.7707C11.7326 14.8313 10.0983 15.3467 8.45337 15.2038Z" fill="#A5A5A5"/>
<path d="M9.71428 8.77545L10.0533 4.92502C10.0694 4.7422 10.0123 4.56048 9.89438 4.41983C9.77649 4.27917 9.60756 4.19111 9.42475 4.17501C9.24193 4.15892 9.06021 4.2161 8.91956 4.33399C8.7789 4.45187 8.69084 4.6208 8.67474 4.80362L8.31055 8.93943C8.29449 9.12223 8.3517 9.30392 8.4696 9.44455L10.3554 11.6945C10.4744 11.8316 10.6424 11.9164 10.8232 11.9307C11.0041 11.9451 11.1834 11.8878 11.3224 11.7712C11.4615 11.6547 11.5492 11.4882 11.5667 11.3076C11.5842 11.127 11.53 10.9468 11.4159 10.8057L9.71428 8.77545Z" fill="#A5A5A5"/>
</g>
<defs>
<clipPath id="clip0_304_4081">
<rect width="16" height="16" fill="white" transform="translate(1.45658) scale(1.03795) rotate(5.03246)"/>
</clipPath>
</defs>
</svg>
