<svg width="28" height="28" viewBox="0 0 28 28" fill="none" xmlns="http://www.w3.org/2000/svg">
<path d="M14.0002 12.7007C13.3755 12.7007 12.7649 12.8859 12.2455 13.233C11.7261 13.58 11.3213 14.0733 11.0822 14.6504C10.8432 15.2275 10.7806 15.8626 10.9025 16.4753C11.0244 17.0879 11.3252 17.6507 11.7669 18.0924C12.2086 18.5341 12.7714 18.8349 13.384 18.9568C13.9967 19.0787 14.6317 19.0161 15.2089 18.7771C15.786 18.538 16.2793 18.1332 16.6263 17.6138C16.9734 17.0944 17.1586 16.4838 17.1586 15.8591C17.1556 15.0223 16.8219 14.2207 16.2303 13.629C15.6386 13.0373 14.8369 12.7036 14.0002 12.7007Z" fill="#6418C3"/>
<path d="M22.6689 7.84009H19.3089L17.6737 5.51049C17.3996 5.09271 17.0256 4.74995 16.5856 4.5133C16.1455 4.27665 15.6533 4.15359 15.1537 4.15529H12.8465C12.3468 4.15359 11.8547 4.27665 11.4146 4.5133C10.9746 4.74995 10.6005 5.09271 10.3265 5.51049L8.74729 7.84009H5.38729C4.98117 7.83257 4.57767 7.90664 4.20071 8.05792C3.82374 8.2092 3.48097 8.4346 3.19271 8.72077C2.90445 9.00694 2.67656 9.34806 2.52254 9.72392C2.36853 10.0998 2.29152 10.5027 2.29609 10.9089V20.8097C2.29904 21.6138 2.61977 22.3841 3.18834 22.9526C3.75691 23.5212 4.52721 23.8419 5.33129 23.8449H22.6689C23.0718 23.8508 23.4718 23.7768 23.8459 23.627C24.2199 23.4773 24.5606 23.2548 24.8481 22.9725C25.1356 22.6903 25.3642 22.3537 25.5208 21.9825C25.6773 21.6112 25.7587 21.2126 25.7601 20.8097V10.9089C25.7647 10.5027 25.6877 10.0998 25.5336 9.72392C25.3796 9.34806 25.1517 9.00694 24.8635 8.72077C24.5752 8.4346 24.2324 8.2092 23.8555 8.05792C23.4785 7.90664 23.075 7.83257 22.6689 7.84009ZM14.0001 20.1601C13.1534 20.1601 12.3258 19.9089 11.622 19.4383C10.9182 18.9677 10.3698 18.2988 10.0463 17.5164C9.72281 16.7339 9.63874 15.8731 9.80474 15.0429C9.97073 14.2127 10.3793 13.4503 10.9788 12.8524C11.5783 12.2545 12.3416 11.848 13.1723 11.6841C14.003 11.5203 14.8636 11.6066 15.6451 11.9322C16.4267 12.2577 17.0941 12.8078 17.5629 13.5129C18.0317 14.2179 18.2807 15.0462 18.2785 15.8929C18.2755 17.0257 17.8235 18.111 17.0214 18.9109C16.2194 19.7109 15.1329 20.1601 14.0001 20.1601Z" fill="#6418C3"/>
</svg>
