<svg width="28" height="28" viewBox="0 0 28 28" fill="none" xmlns="http://www.w3.org/2000/svg">
<path d="M2.33301 23.3332C2.33578 24.2606 2.70542 25.1492 3.36119 25.805C4.01697 26.4608 4.9056 26.8304 5.83301 26.8332H12.833V15.1665H2.33301V23.3332Z" fill="#464366"/>
<path d="M15.167 26.8332H22.167C23.0944 26.8304 23.983 26.4608 24.6388 25.805C25.2946 25.1492 25.6642 24.2606 25.667 23.3332V15.1665H15.167V26.8332Z" fill="#464366"/>
<path d="M23.3336 5.83317H19.6236C19.7649 5.46054 19.8361 5.06501 19.8336 4.6665C19.8309 3.7391 19.4612 2.85047 18.8055 2.19469C18.1497 1.53891 17.2611 1.16927 16.3337 1.1665C15.4697 1.16876 14.6377 1.49325 14.0003 2.0765C13.363 1.49325 12.5309 1.16876 11.667 1.1665C10.7396 1.16927 9.85095 1.53891 9.19517 2.19469C8.5394 2.85047 8.16976 3.7391 8.16699 4.6665C8.16451 5.06501 8.2357 5.46054 8.37699 5.83317H4.66699C3.73958 5.83594 2.85096 6.20558 2.19518 6.86136C1.5394 7.51714 1.16976 8.40577 1.16699 9.33317V11.6665C1.16699 11.9759 1.28991 12.2727 1.5087 12.4915C1.72749 12.7103 2.02424 12.8332 2.33366 12.8332H12.8337V5.83317H11.667C11.4362 5.83317 11.2107 5.76475 11.0188 5.63655C10.827 5.50836 10.6774 5.32615 10.5891 5.11297C10.5008 4.89979 10.4777 4.66521 10.5227 4.4389C10.5678 4.21259 10.6789 4.00471 10.842 3.84155C11.0052 3.67838 11.2131 3.56727 11.4394 3.52225C11.6657 3.47724 11.9003 3.50034 12.1135 3.58864C12.3266 3.67695 12.5088 3.82648 12.637 4.01834C12.7652 4.2102 12.8337 4.43576 12.8337 4.6665V5.83317H15.167V4.6665C15.167 4.43576 15.2354 4.2102 15.3636 4.01834C15.4918 3.82648 15.674 3.67695 15.8872 3.58864C16.1004 3.50034 16.3349 3.47724 16.5613 3.52225C16.7876 3.56727 16.9954 3.67838 17.1586 3.84155C17.3218 4.00471 17.4329 4.21259 17.4779 4.4389C17.5229 4.66521 17.4998 4.89979 17.4115 5.11297C17.3232 5.32615 17.1737 5.50836 16.9818 5.63655C16.79 5.76475 16.5644 5.83317 16.3337 5.83317H15.167V12.8332H25.667C25.9764 12.8332 26.2731 12.7103 26.4919 12.4915C26.7107 12.2727 26.8336 11.9759 26.8336 11.6665V9.33317C26.8309 8.40577 26.4612 7.51714 25.8055 6.86136C25.1497 6.20558 24.2611 5.83594 23.3336 5.83317Z" fill="#464366"/>
</svg>
