<svg width="28" height="28" viewBox="0 0 28 28" fill="none" xmlns="http://www.w3.org/2000/svg">
<g clip-path="url(#clip0_304_11005)">
<path d="M14 27.9999C21.7319 27.9999 27.9999 21.7319 27.9999 14C27.9999 6.268 21.7319 0 14 0C6.268 0 0 6.268 0 14C0 21.7319 6.268 27.9999 14 27.9999Z" fill="#CCE7A0"/>
<path d="M17 25.9332C9.26806 25.9332 3.00008 19.6652 3.00008 11.9333C3.00008 7.80237 4.78956 4.08993 7.63521 1.52734C3.10284 3.84477 0 8.56 0 14C0 21.732 6.26797 27.9999 13.9999 27.9999C17.601 27.9999 20.8841 26.6399 23.3647 24.406C21.4552 25.3823 19.292 25.9332 17 25.9332Z" fill="#AED893"/>
<path d="M17.4039 23.0025C19.0656 23.0025 20.4127 21.6554 20.4127 19.9937C20.4127 18.332 19.0656 16.9849 17.4039 16.9849C15.7421 16.9849 14.395 18.332 14.395 19.9937C14.395 21.6554 15.7421 23.0025 17.4039 23.0025Z" fill="#7F184C"/>
<path d="M10.5448 13.0725C10.399 13.0725 10.2532 13.017 10.142 12.9058C9.91962 12.6833 9.91962 12.3227 10.142 12.1003L13.1132 9.12915C13.3358 8.90674 13.6963 8.9069 13.9187 9.12915C14.1411 9.35167 14.1411 9.71222 13.9187 9.93464L10.9474 12.9058C10.8363 13.017 10.6905 13.0725 10.5448 13.0725Z" fill="#639657"/>
<path d="M13.516 13.0721C13.3702 13.0721 13.2244 13.0165 13.1132 12.9053L10.142 9.93417C9.91962 9.71165 9.91962 9.3511 10.142 9.12868C10.3644 8.90632 10.7251 8.90632 10.9474 9.12868L13.9187 12.0998C14.1411 12.3224 14.1411 12.6829 13.9187 12.9053C13.8075 13.0165 13.6617 13.0721 13.516 13.0721Z" fill="#639657"/>
<path d="M21.3276 13.0725C21.1818 13.0725 21.0361 13.017 20.9249 12.9058C20.7025 12.6833 20.7025 12.3227 20.9249 12.1003L23.8961 9.12915C24.1187 8.90674 24.4793 8.9069 24.7016 9.12915C24.924 9.35167 24.924 9.71222 24.7016 9.93464L21.7304 12.9058C21.6192 13.017 21.4734 13.0725 21.3276 13.0725Z" fill="#639657"/>
<path d="M24.2989 13.0721C24.1532 13.0721 24.0074 13.0165 23.8961 12.9053L20.9249 9.93417C20.7025 9.71165 20.7025 9.3511 20.9249 9.12868C21.1474 8.90632 21.5079 8.90632 21.7304 9.12868L24.7016 12.0998C24.924 12.3224 24.924 12.6829 24.7016 12.9053C24.5905 13.0165 24.4447 13.0721 24.2989 13.0721Z" fill="#639657"/>
<path d="M19.1713 4.97024C19.4168 4.10264 18.3564 3.0429 16.8028 2.60323C15.2492 2.16356 13.7907 2.51046 13.5452 3.37806C13.2996 4.24565 14.36 5.3054 15.9137 5.74506C17.4673 6.18473 18.9258 5.83783 19.1713 4.97024Z" fill="#E6F9BD"/>
</g>
<defs>
<clipPath id="clip0_304_11005">
<rect width="28" height="28" fill="white"/>
</clipPath>
</defs>
</svg>
