<svg width="225" height="34" viewBox="0 0 225 34" fill="none" xmlns="http://www.w3.org/2000/svg">
<path d="M208.346 12.0083L207.775 10.2933C207.694 10.0629 207.545 9.86294 207.346 9.7209C207.148 9.57886 206.91 9.5017 206.666 9.5H200.833C199.906 9.50271 199.017 9.87233 198.361 10.5281C197.705 11.1839 197.336 12.0726 197.333 13V15.3333H205.021L208.346 12.0083Z" fill="#464366"/>
<path d="M217.166 13H210.656L206.328 17.3283C206.106 17.5433 205.809 17.6644 205.5 17.6667H197.333V27C197.336 27.9274 197.705 28.8161 198.361 29.4719C199.017 30.1277 199.906 30.4973 200.833 30.5H217.166C218.094 30.4973 218.982 30.1277 219.638 29.4719C220.294 28.8161 220.664 27.9274 220.666 27V16.5C220.664 15.5726 220.294 14.6839 219.638 14.0281C218.982 13.3723 218.094 13.0027 217.166 13Z" fill="#464366"/>
<rect x="210.5" y="1.5" width="13" height="13" rx="6.5" fill="#E328AF" stroke="#0D0B21" stroke-width="3"/>
<path d="M152.334 14.3333V21.3333C152.332 23.1892 151.593 24.9685 150.281 26.2808C148.969 27.5931 147.19 28.3313 145.334 28.3333H138.334C138.024 28.3333 137.727 28.4562 137.509 28.675C137.29 28.8938 137.167 29.1905 137.167 29.5C137.167 29.8094 137.29 30.1061 137.509 30.3249C137.727 30.5437 138.024 30.6666 138.334 30.6666H145.334C147.808 30.6638 150.18 29.6795 151.93 27.9298C153.68 26.1801 154.664 23.8078 154.667 21.3333V14.3333C154.667 14.0239 154.544 13.7271 154.325 13.5083C154.106 13.2895 153.81 13.1666 153.5 13.1666C153.191 13.1666 152.894 13.2895 152.675 13.5083C152.457 13.7271 152.334 14.0239 152.334 14.3333Z" fill="#464366"/>
<path d="M145.333 27.1667C146.88 27.1649 148.362 26.5497 149.456 25.4562C150.549 24.3626 151.165 22.8799 151.166 21.3334V13.1667C151.165 11.6202 150.549 10.1375 149.456 9.04393C148.362 7.95036 146.88 7.3352 145.333 7.33337H137.166C135.62 7.3352 134.137 7.95036 133.044 9.04393C131.95 10.1375 131.335 11.6202 131.333 13.1667V21.3334C131.335 22.8799 131.95 24.3626 133.044 25.4562C134.137 26.5497 135.62 27.1649 137.166 27.1667H145.333ZM138.111 15.9832L139.603 18.0454L144.54 13.4767C144.768 13.2665 145.069 13.1553 145.378 13.1673C145.688 13.1794 145.98 13.3139 146.19 13.5411C146.4 13.7683 146.511 14.0697 146.499 14.379C146.487 14.6883 146.353 14.9801 146.125 15.1903L140.221 20.652C140.1 20.7641 139.957 20.8491 139.8 20.9016C139.644 20.954 139.478 20.9727 139.314 20.9563C139.15 20.94 138.991 20.889 138.848 20.8067C138.705 20.7244 138.581 20.6127 138.484 20.4789L136.221 17.3503C136.049 17.0993 135.982 16.7909 136.034 16.491C136.086 16.1911 136.253 15.9234 136.5 15.745C136.746 15.5666 137.053 15.4916 137.354 15.5361C137.655 15.5806 137.927 15.7411 138.111 15.9832Z" fill="#464366"/>
<rect x="147.5" y="1.5" width="13" height="13" rx="6.5" fill="#5ECFFF" stroke="#0D0B21" stroke-width="3"/>
<path d="M68.333 28.3333C68.3358 29.2607 68.7054 30.1493 69.3612 30.8051C70.017 31.4609 70.9056 31.8305 71.833 31.8333H78.833V20.1666H68.333V28.3333Z" fill="#464366"/>
<path d="M81.167 31.8333H88.167C89.0944 31.8305 89.983 31.4609 90.6388 30.8051C91.2946 30.1493 91.6642 29.2607 91.667 28.3333V20.1666H81.167V31.8333Z" fill="#464366"/>
<path d="M89.3336 10.8333H85.6236C85.7649 10.4607 85.8361 10.0651 85.8336 9.66663C85.8309 8.73922 85.4612 7.85059 84.8055 7.19481C84.1497 6.53903 83.2611 6.1694 82.3337 6.16663C81.4697 6.16888 80.6377 6.49337 80.0003 7.07663C79.363 6.49337 78.5309 6.16888 77.667 6.16663C76.7396 6.1694 75.851 6.53903 75.1952 7.19481C74.5394 7.85059 74.1698 8.73922 74.167 9.66663C74.1645 10.0651 74.2357 10.4607 74.377 10.8333H70.667C69.7396 10.8361 68.851 11.2057 68.1952 11.8615C67.5394 12.5173 67.1698 13.4059 67.167 14.3333V16.6666C67.167 16.976 67.2899 17.2728 67.5087 17.4916C67.7275 17.7104 68.0242 17.8333 68.3337 17.8333H78.8337V10.8333H77.667C77.4362 10.8333 77.2107 10.7649 77.0188 10.6367C76.827 10.5085 76.6774 10.3263 76.5891 10.1131C76.5008 9.89991 76.4777 9.66533 76.5227 9.43902C76.5678 9.21271 76.6789 9.00483 76.842 8.84167C77.0052 8.67851 77.2131 8.56739 77.4394 8.52238C77.6657 8.47736 77.9003 8.50046 78.1135 8.58877C78.3266 8.67707 78.5088 8.8266 78.637 9.01846C78.7652 9.21032 78.8337 9.43588 78.8337 9.66663V10.8333H81.167V9.66663C81.167 9.43588 81.2354 9.21032 81.3636 9.01846C81.4918 8.8266 81.674 8.67707 81.8872 8.58877C82.1004 8.50046 82.3349 8.47736 82.5613 8.52238C82.7876 8.56739 82.9954 8.67851 83.1586 8.84167C83.3218 9.00483 83.4329 9.21271 83.4779 9.43902C83.5229 9.66533 83.4998 9.89991 83.4115 10.1131C83.3232 10.3263 83.1737 10.5085 82.9818 10.6367C82.79 10.7649 82.5644 10.8333 82.3337 10.8333H81.167V17.8333H91.667C91.9764 17.8333 92.2731 17.7104 92.4919 17.4916C92.7107 17.2728 92.8336 16.976 92.8336 16.6666V14.3333C92.8309 13.4059 92.4612 12.5173 91.8055 11.8615C91.1497 11.2057 90.2611 10.8361 89.3336 10.8333Z" fill="#464366"/>
<rect x="81.5" y="1.5" width="13" height="13" rx="6.5" fill="#5ECFFF" stroke="#0D0B21" stroke-width="3"/>
<path d="M25.4704 24.1862L23.333 20.9802V16.6667C23.333 14.1914 22.3497 11.8174 20.5993 10.067C18.849 8.3167 16.475 7.33337 13.9997 7.33337C11.5243 7.33337 9.15036 8.3167 7.40002 10.067C5.64968 11.8174 4.66635 14.1914 4.66635 16.6667V20.9802L2.52902 24.1862C2.41226 24.362 2.34532 24.5661 2.3353 24.7769C2.32529 24.9877 2.37258 25.1972 2.47214 25.3833C2.57171 25.5693 2.71983 25.7249 2.90076 25.8335C3.08169 25.9421 3.28867 25.9997 3.49968 26H24.4997C24.7107 25.9997 24.9177 25.9421 25.0986 25.8335C25.2795 25.7249 25.4277 25.5693 25.5272 25.3833C25.6268 25.1972 25.6741 24.9877 25.6641 24.7769C25.6541 24.5661 25.5871 24.362 25.4704 24.1862Z" fill="#464366"/>
<path d="M14.0004 30.6666C15.0348 30.6675 16.04 30.324 16.8576 29.6903C17.6751 29.0565 18.2584 28.1686 18.5154 27.1666H9.48535C9.74232 28.1686 10.3256 29.0565 11.1431 29.6903C11.9607 30.324 12.9659 30.6675 14.0004 30.6666Z" fill="#464366"/>
<rect x="18.5" y="1.5" width="13" height="13" rx="6.5" fill="#5ECFFF" stroke="#0D0B21" stroke-width="3"/>
</svg>
