<svg width="24" height="24" viewBox="0 0 24 24" fill="none" xmlns="http://www.w3.org/2000/svg">
<path d="M14.1203 5.0371C13.662 4.9819 12.5048 5 12.0003 5V3C12.0001 2.8231 11.953 2.64942 11.8638 2.49665C11.7746 2.34387 11.6465 2.21747 11.4926 2.13033C11.3387 2.04318 11.1644 1.99841 10.9875 2.00056C10.8106 2.00272 10.6374 2.05173 10.4857 2.1426L2.48567 6.9426C2.3378 7.03159 2.21546 7.15731 2.13054 7.30754C2.04561 7.45778 2.00098 7.62742 2.00098 7.8C2.00098 7.97258 2.04561 8.14222 2.13054 8.29246C2.21546 8.44269 2.3378 8.56841 2.48567 8.6574L10.4857 13.4574C10.6374 13.5483 10.8106 13.5973 10.9875 13.5994C11.1644 13.6016 11.3387 13.5568 11.4926 13.4697C11.6465 13.3825 11.7746 13.2561 11.8638 13.1034C11.953 12.9506 12.0001 12.7769 12.0003 12.6V11H14.0003C15.9303 11 18.9903 12.6973 18.9903 17.25C18.9908 17.4696 19.0635 17.6829 19.1972 17.8571C19.3309 18.0312 19.5183 18.1566 19.7303 18.2138C19.9423 18.271 20.1672 18.2568 20.3704 18.1735C20.5736 18.0903 20.7437 17.9424 20.8546 17.7529C21.5751 16.5077 21.9672 15.0998 21.9942 13.6614C22.0211 12.2231 21.682 10.8014 21.0087 9.5301C20.3354 8.25876 19.35 7.17944 18.1451 6.3935C16.9401 5.60757 15.5551 5.14082 14.1203 5.0371Z" fill="#464366"/>
</svg>
