<svg width="25" height="25" viewBox="0 0 25 25" fill="none" xmlns="http://www.w3.org/2000/svg">
<path d="M21.5967 22.658H3.72168C3.30728 22.658 2.90985 22.4933 2.61683 22.2003C2.3238 21.9073 2.15918 21.5099 2.15918 21.0955V18.9705C2.15918 18.5561 2.3238 18.1586 2.61683 17.8656C2.90985 17.5726 3.30728 17.408 3.72168 17.408H4.78418C5.01624 17.408 5.2388 17.5001 5.4029 17.6642C5.56699 17.8283 5.65918 18.0509 5.65918 18.283C5.65918 18.3979 5.68181 18.5116 5.72579 18.6178C5.76976 18.724 5.83421 18.8204 5.91546 18.9017C5.99671 18.9829 6.09317 19.0474 6.19933 19.0914C6.30549 19.1353 6.41927 19.158 6.53418 19.158H18.7842C19.0162 19.158 19.2388 19.0658 19.4029 18.9017C19.567 18.7376 19.6592 18.515 19.6592 18.283C19.6592 18.0509 19.7514 17.8283 19.9155 17.6642C20.0796 17.5001 20.3021 17.408 20.5342 17.408H21.5967C22.0111 17.408 22.4085 17.5726 22.7015 17.8656C22.9946 18.1586 23.1592 18.5561 23.1592 18.9705V21.0955C23.1592 21.5099 22.9946 21.9073 22.7015 22.2003C22.4085 22.4933 22.0111 22.658 21.5967 22.658Z" fill="white"/>
<path d="M6.47516 11.8594C6.23366 11.6662 6.03871 11.4211 5.90473 11.1424C5.77075 10.8636 5.70118 10.5583 5.70117 10.249V10.2456C5.70118 9.90177 5.79486 9.56445 5.97215 9.26986C6.14944 8.97527 6.40364 8.73456 6.70743 8.57356C7.01123 8.41257 7.35316 8.33739 7.69647 8.35609C8.03978 8.3748 8.37151 8.48668 8.65602 8.67973L10.9401 10.2293L10.2587 5.13082C10.1727 4.71387 10.1967 4.28171 10.3284 3.87684C10.5006 3.39664 10.8169 2.98134 11.234 2.68774C11.6512 2.39415 12.1489 2.23657 12.6591 2.23657C13.1692 2.23657 13.6669 2.39415 14.0841 2.68774C14.5013 2.98134 14.8176 3.39664 14.9898 3.87684C15.1215 4.28169 15.1456 4.71386 15.0595 5.13082L14.3944 10.2183L16.6622 8.67973C16.9467 8.48669 17.2784 8.37482 17.6217 8.35613C17.965 8.33743 18.3069 8.41263 18.6107 8.57363C18.9145 8.73463 19.1687 8.97536 19.346 9.26995C19.5232 9.56454 19.6169 9.90185 19.6169 10.2457V10.2491C19.6169 10.5584 19.5473 10.8638 19.4133 11.1426C19.2793 11.4213 19.0843 11.6664 18.8428 11.8597L13.3033 16.2913C13.1204 16.4376 12.8932 16.5173 12.6591 16.5173C12.4249 16.5173 12.1977 16.4376 12.0148 16.2913L6.47516 11.8594Z" fill="white"/>
</svg>
