<svg width="24" height="24" viewBox="0 0 24 24" fill="none" xmlns="http://www.w3.org/2000/svg">
<path d="M16.5 6V1.9725L20.595 6.75H17.25C17.0511 6.75 16.8603 6.67098 16.7197 6.53033C16.579 6.38968 16.5 6.19891 16.5 6ZM17.25 8.25C16.6533 8.25 16.081 8.01295 15.659 7.59099C15.2371 7.16903 15 6.59674 15 6V1.5H5.25C4.65326 1.5 4.08097 1.73705 3.65901 2.15901C3.23705 2.58097 3 3.15326 3 3.75V20.25C3 20.8467 3.23705 21.419 3.65901 21.841C4.08097 22.2629 4.65326 22.5 5.25 22.5H18.75C19.3467 22.5 19.919 22.2629 20.341 21.841C20.7629 21.419 21 20.8467 21 20.25V8.25H17.25Z" fill="white"/>
</svg>
