<svg width="22" height="16" viewBox="0 0 22 16" fill="none" xmlns="http://www.w3.org/2000/svg">
<path d="M22 15C22 15.2652 21.8946 15.5196 21.7071 15.7071C21.5196 15.8946 21.2652 16 21 16H9C8.73478 16 8.48043 15.8946 8.29289 15.7071C8.10536 15.5196 8 15.2652 8 15C8 13.4087 8.63214 11.8826 9.75736 10.7574C10.8826 9.63214 12.4087 9 14 9H16C17.5913 9 19.1174 9.63214 20.2426 10.7574C21.3679 11.8826 22 13.4087 22 15ZM15 0C14.2089 0 13.4355 0.234596 12.7777 0.674121C12.1199 1.11365 11.6072 1.73836 11.3045 2.46927C11.0017 3.20017 10.9225 4.00444 11.0769 4.78036C11.2312 5.55629 11.6122 6.26902 12.1716 6.82843C12.731 7.38784 13.4437 7.7688 14.2196 7.92314C14.9956 8.07748 15.7998 7.99827 16.5307 7.69552C17.2616 7.39277 17.8864 6.88008 18.3259 6.22228C18.7654 5.56448 19 4.79113 19 4C19 2.93913 18.5786 1.92172 17.8284 1.17157C17.0783 0.421427 16.0609 0 15 0ZM6 0C5.20887 0 4.43552 0.234596 3.77772 0.674121C3.11992 1.11365 2.60723 1.73836 2.30448 2.46927C2.00173 3.20017 1.92252 4.00444 2.07686 4.78036C2.2312 5.55629 2.61216 6.26902 3.17157 6.82843C3.73098 7.38784 4.44371 7.7688 5.21964 7.92314C5.99556 8.07748 6.79983 7.99827 7.53073 7.69552C8.26164 7.39277 8.88635 6.88008 9.32588 6.22228C9.7654 5.56448 10 4.79113 10 4C10 2.93913 9.57857 1.92172 8.82843 1.17157C8.07828 0.421427 7.06087 0 6 0ZM6 15C5.99851 13.9496 6.20546 12.9094 6.60884 11.9395C7.01223 10.9697 7.60404 10.0895 8.35 9.35C7.73954 9.11952 7.09253 9.00096 6.44 9H5.56C4.08621 9.00264 2.67354 9.58928 1.63141 10.6314C0.589277 11.6735 0.00264358 13.0862 0 14.56V15C0 15.2652 0.105357 15.5196 0.292893 15.7071C0.48043 15.8946 0.734784 16 1 16H6.18C6.06358 15.6793 6.0027 15.3411 6 15Z" fill="#464366"/>
</svg>
