<svg width="23" height="17" viewBox="0 0 23 17" fill="none" xmlns="http://www.w3.org/2000/svg">
<path d="M21.7503 5.36667C21.8806 5.34721 22.0001 5.28301 22.0882 5.18508C22.1764 5.08716 22.2277 4.96162 22.2333 4.83V1.87067C22.2333 1.72569 22.2048 1.58213 22.1493 1.44818C22.0938 1.31424 22.0125 1.19254 21.91 1.09002C21.8075 0.987505 21.6858 0.906185 21.5518 0.850704C21.4179 0.795222 21.2743 0.766667 21.1293 0.766667H1.87067C1.72569 0.766667 1.58213 0.795222 1.44819 0.850704C1.31424 0.906185 1.19254 0.987505 1.09002 1.09002C0.987507 1.19254 0.906187 1.31424 0.850705 1.44818C0.795224 1.58213 0.766668 1.72569 0.766668 1.87067V4.83C0.765148 4.96693 0.813209 5.0998 0.901982 5.20407C0.990754 5.30834 1.11425 5.37699 1.24967 5.39733C1.98638 5.49544 2.6624 5.85774 3.15202 6.41689C3.64164 6.97603 3.91154 7.69395 3.91154 8.43717C3.91154 9.18038 3.64164 9.89831 3.15202 10.4574C2.6624 11.0166 1.98638 11.3789 1.24967 11.477C1.11556 11.4972 0.993103 11.5647 0.904497 11.6674C0.815891 11.77 0.766995 11.901 0.766668 12.0367V14.996C0.766668 15.2888 0.882983 15.5696 1.09002 15.7766C1.29706 15.9837 1.57787 16.1 1.87067 16.1H21.1293C21.4221 16.1 21.7029 15.9837 21.91 15.7766C22.117 15.5696 22.2333 15.2888 22.2333 14.996V12.0367C22.2349 11.8997 22.1868 11.7669 22.098 11.6626C22.0093 11.5583 21.8858 11.4897 21.7503 11.4693C21.0136 11.3712 20.3376 11.0089 19.848 10.4498C19.3584 9.89064 19.0885 9.17272 19.0885 8.4295C19.0885 7.68629 19.3584 6.96836 19.848 6.40922C20.3376 5.85008 21.0136 5.48777 21.7503 5.38967V5.36667ZM11.5 12.2207C11.3484 12.2207 11.2001 12.1757 11.0741 12.0915C10.948 12.0072 10.8497 11.8875 10.7917 11.7474C10.7337 11.6073 10.7185 11.4531 10.7481 11.3044C10.7776 11.1557 10.8507 11.0191 10.9579 10.9119C11.0651 10.8047 11.2017 10.7316 11.3504 10.7021C11.4992 10.6725 11.6533 10.6877 11.7934 10.7457C11.9335 10.8037 12.0532 10.902 12.1375 11.0281C12.2217 11.1541 12.2667 11.3024 12.2667 11.454C12.2667 11.6573 12.1859 11.8523 12.0421 11.9961C11.8983 12.1399 11.7033 12.2207 11.5 12.2207ZM11.5 9.25367C11.3484 9.25367 11.2001 9.2087 11.0741 9.12446C10.948 9.04022 10.8497 8.92048 10.7917 8.78039C10.7337 8.6403 10.7185 8.48615 10.7481 8.33743C10.7776 8.18871 10.8507 8.05211 10.9579 7.94488C11.0651 7.83766 11.2017 7.76465 11.3504 7.73506C11.4992 7.70548 11.6533 7.72067 11.7934 7.77869C11.9335 7.83672 12.0532 7.93499 12.1375 8.06106C12.2217 8.18714 12.2667 8.33537 12.2667 8.487C12.2646 8.689 12.183 8.88204 12.0394 9.02417C11.8959 9.16629 11.702 9.24601 11.5 9.246V9.25367ZM11.5 6.187C11.3484 6.187 11.2001 6.14204 11.0741 6.05779C10.948 5.97355 10.8497 5.85381 10.7917 5.71372C10.7337 5.57363 10.7185 5.41948 10.7481 5.27076C10.7776 5.12205 10.8507 4.98544 10.9579 4.87822C11.0651 4.771 11.2017 4.69798 11.3504 4.6684C11.4992 4.63882 11.6533 4.654 11.7934 4.71203C11.9335 4.77005 12.0532 4.86832 12.1375 4.9944C12.2217 5.12047 12.2667 5.2687 12.2667 5.42033C12.2646 5.62233 12.183 5.81538 12.0394 5.9575C11.8959 6.09962 11.702 6.17934 11.5 6.17933V6.187Z" fill="#464366"/>
<path d="M21.1293 16.8667H1.87067C1.37454 16.8667 0.898724 16.6696 0.547906 16.3188C0.197088 15.9679 0 15.4921 0 14.996V12.0367C0.00343363 11.7212 0.118529 11.4172 0.324853 11.1786C0.531177 10.94 0.815378 10.7823 1.127 10.7333C1.67264 10.6468 2.16891 10.3668 2.52507 9.94448C2.88123 9.52216 3.07348 8.98575 3.06667 8.43333C3.07321 7.87979 2.87988 7.34246 2.52217 6.91997C2.16446 6.49748 1.66638 6.21818 1.11933 6.13333C0.808459 6.08422 0.52518 5.92615 0.320125 5.68739C0.11507 5.44863 0.00160172 5.14473 0 4.83V1.87067C0 1.37454 0.197088 0.898724 0.547906 0.547906C0.898724 0.197088 1.37454 0 1.87067 0H21.1293C21.6255 0 22.1013 0.197088 22.4521 0.547906C22.8029 0.898724 23 1.37454 23 1.87067V4.83C22.9981 5.14586 22.8836 5.45067 22.677 5.68959C22.4704 5.92852 22.1853 6.08587 21.873 6.13333C21.3274 6.21984 20.8311 6.49986 20.4749 6.92218C20.1188 7.34451 19.9265 7.88092 19.9333 8.43333C19.9268 8.98688 20.1201 9.52421 20.4778 9.9467C20.8355 10.3692 21.3336 10.6485 21.8807 10.7333C22.1909 10.7839 22.4733 10.9424 22.6781 11.1808C22.8829 11.4193 22.9969 11.7224 23 12.0367V14.996C23 15.4921 22.8029 15.9679 22.4521 16.3188C22.1013 16.6696 21.6255 16.8667 21.1293 16.8667ZM1.53333 12.2053V15.0037C1.53333 15.0931 1.56887 15.1789 1.63214 15.2422C1.6954 15.3055 1.7812 15.341 1.87067 15.341H21.1293C21.2188 15.341 21.3046 15.3055 21.3679 15.2422C21.4311 15.1789 21.4667 15.0931 21.4667 15.0037V12.2053C20.5873 12.0411 19.7931 11.5745 19.2216 10.8863C18.65 10.1981 18.3372 9.33173 18.3372 8.43717C18.3372 7.54261 18.65 6.67621 19.2216 5.98804C19.7931 5.29986 20.5873 4.83325 21.4667 4.669V1.87067C21.4667 1.7812 21.4311 1.6954 21.3679 1.63214C21.3046 1.56887 21.2188 1.53333 21.1293 1.53333H1.87067C1.7812 1.53333 1.6954 1.56887 1.63214 1.63214C1.56887 1.6954 1.53333 1.7812 1.53333 1.87067V4.669C2.41269 4.83325 3.20691 5.29986 3.77845 5.98804C4.34998 6.67621 4.66285 7.54261 4.66285 8.43717C4.66285 9.33173 4.34998 10.1981 3.77845 10.8863C3.20691 11.5745 2.41269 12.0411 1.53333 12.2053Z" fill="#464366"/>
</svg>
