<svg width="28" height="26" viewBox="0 0 28 26" fill="none" xmlns="http://www.w3.org/2000/svg">
<g clip-path="url(#clip0_304_7738)">
<path d="M13.9999 19.9431C11.7517 19.9432 9.55146 20.5928 7.66379 21.8138C5.77611 23.0348 4.28142 24.7752 3.35953 26.8257C2.43763 28.8761 2.1278 31.1492 2.4673 33.3716C2.8068 35.594 3.78117 37.6709 5.27321 39.3526C5.38224 39.4753 5.51591 39.5736 5.66549 39.6411C5.81507 39.7086 5.97721 39.7438 6.14132 39.7445C16.1001 39.7846 11.6299 39.776 21.8298 39.7729C21.9939 39.7731 22.1562 39.7385 22.306 39.6716C22.4558 39.6046 22.5898 39.5068 22.6991 39.3844C24.1998 37.7055 25.1824 35.6281 25.5286 33.403C25.8747 31.1779 25.5694 28.9002 24.6497 26.8447C23.73 24.7892 22.235 23.0438 20.3453 21.8192C18.4555 20.5946 16.2517 19.943 13.9999 19.9431ZM19.3558 29.0508L17.3165 30.5441C17.4332 30.8875 17.4951 31.2471 17.4999 31.6098C17.5031 32.3925 17.245 33.1538 16.7665 33.7732C16.2879 34.3925 15.6163 34.8344 14.8582 35.0288C14.1 35.2232 13.2987 35.1589 12.5812 34.8462C11.8636 34.5335 11.2711 33.9903 10.8973 33.3026C10.5236 32.6149 10.3901 31.8221 10.518 31.05C10.6459 30.2778 11.0279 29.5704 11.6034 29.04C12.179 28.5096 12.9151 28.1864 13.6951 28.1218C14.4751 28.0571 15.2544 28.2547 15.9094 28.6832L17.9773 27.1686C18.2272 26.9919 18.5365 26.9204 18.8386 26.9696C19.1407 27.0188 19.4114 27.1848 19.5923 27.4317C19.7731 27.6787 19.8497 27.9868 19.8055 28.2897C19.7612 28.5925 19.5997 28.8659 19.3558 29.0508Z" fill="#464366"/>
</g>
<defs>
<clipPath id="clip0_304_7738">
<rect width="28" height="25.4049" fill="white"/>
</clipPath>
</defs>
</svg>
