<svg width="24" height="24" viewBox="0 0 24 24" fill="none" xmlns="http://www.w3.org/2000/svg">
<path d="M8.57189 12C9.41967 12 10.2484 11.7486 10.9533 11.2776C11.6582 10.8066 12.2076 10.1371 12.5319 9.35385C12.8563 8.57059 12.9412 7.70873 12.7757 6.87726C12.6103 6.04579 12.202 5.28205 11.6025 4.68264C11.0029 4.08323 10.2391 3.67506 9.40764 3.50976C8.57614 3.34446 7.71429 3.42945 6.9311 3.75398C6.1479 4.07851 5.47853 4.62801 5.00764 5.33298C4.53675 6.03794 4.2855 6.86672 4.28564 7.71449C4.28684 8.85084 4.73883 9.9403 5.54242 10.7437C6.34601 11.5472 7.43554 11.999 8.57189 12Z" fill="#E328AF"/>
<path d="M14.1788 15.5407C13.0926 14.4266 11.699 13.6616 10.176 13.3434C8.65303 13.0252 7.06973 13.1682 5.62839 13.7541C4.18705 14.3401 2.95309 15.3424 2.08414 16.633C1.21519 17.9237 0.750703 19.444 0.75 20.9999C0.75 21.1988 0.829018 21.3896 0.96967 21.5303C1.11032 21.6709 1.30109 21.7499 1.5 21.7499H15.645C15.8439 21.7499 16.0347 21.6709 16.1753 21.5303C16.316 21.3896 16.395 21.1988 16.395 20.9999C16.3979 20.2047 16.2751 19.4139 16.0312 18.6569C15.6681 17.4866 15.0333 16.4188 14.1788 15.5407Z" fill="#E328AF"/>
<path d="M17.625 12.375C19.3854 12.375 20.8125 10.9479 20.8125 9.1875C20.8125 7.42709 19.3854 6 17.625 6C15.8646 6 14.4375 7.42709 14.4375 9.1875C14.4375 10.9479 15.8646 12.375 17.625 12.375Z" fill="#E328AF"/>
<path d="M17.625 13.2524C16.6197 13.2562 15.6338 13.53 14.7705 14.0452C14.9333 14.1907 15.0975 14.3339 15.2513 14.4914C16.2725 15.5411 17.0311 16.8173 17.4653 18.2159C17.6139 18.6764 17.7236 19.1486 17.793 19.6274H22.5C22.6989 19.6274 22.8897 19.5484 23.0303 19.4078C23.171 19.2671 23.25 19.0764 23.25 18.8774C23.2484 17.3861 22.6553 15.9563 21.6007 14.9017C20.5462 13.8472 19.1164 13.254 17.625 13.2524Z" fill="#E328AF"/>
</svg>
