<svg width="24" height="24" viewBox="0 0 24 24" fill="none" xmlns="http://www.w3.org/2000/svg">
<path d="M0.749554 17.25C0.749554 17.4489 0.828569 17.6397 0.969223 17.7803C1.10987 17.921 1.30064 18 1.49955 18H7.68705C7.88597 18 8.07673 17.921 8.21738 17.7803C8.35804 17.6397 8.43705 17.4489 8.43705 17.25C8.43705 17.0511 8.35804 16.8603 8.21738 16.7197C8.07673 16.579 7.88597 16.5 7.68705 16.5H3.3258L9.54705 10.35L15.2208 14.3925C15.3664 14.4962 15.5443 14.5446 15.7224 14.5288C15.9004 14.5129 16.067 14.434 16.1921 14.3063L23.0358 7.27501C23.1637 7.1308 23.2311 6.94291 23.2241 6.75031C23.2171 6.5577 23.1363 6.37518 22.9983 6.2406C22.8604 6.10602 22.6759 6.02972 22.4832 6.02751C22.2905 6.02531 22.1043 6.09737 21.9633 6.22877L15.5658 12.7988L9.9033 8.76376C9.75919 8.66109 9.58341 8.61268 9.40704 8.62709C9.23068 8.6415 9.06509 8.7178 8.93955 8.84251L2.24955 15.4538V11.0625C2.24955 10.8636 2.17054 10.6728 2.02988 10.5322C1.88923 10.3915 1.69847 10.3125 1.49955 10.3125C1.30064 10.3125 1.10987 10.3915 0.969223 10.5322C0.828569 10.6728 0.749554 10.8636 0.749554 11.0625V17.25Z" fill="#FF4A55"/>
</svg>
