<svg width="254" height="38" viewBox="0 0 254 38" fill="none" xmlns="http://www.w3.org/2000/svg">
<rect x="54.5" y="0.5" width="37" height="37" rx="11.5" fill="#15132B" stroke="#15132B"/>
<path d="M76.109 21.9671L75.2581 22.818C75.2031 22.8754 75.137 22.921 75.0639 22.9519C74.9907 22.9829 74.912 22.9986 74.8326 22.998C74.6726 22.9966 74.5196 22.9319 74.4071 22.818L72.0017 20.3799C71.946 20.3239 71.902 20.2575 71.872 20.1845C71.8421 20.1115 71.8268 20.0333 71.8271 19.9544V14.298C71.8271 14.1389 71.8904 13.9863 72.0029 13.8738C72.1154 13.7613 72.268 13.698 72.4271 13.698H73.6271C73.7858 13.6995 73.9376 13.7631 74.0498 13.8754C74.162 13.9876 74.2257 14.1394 74.2271 14.298V18.9617C74.2268 19.0406 74.2421 19.1188 74.272 19.1918C74.302 19.2648 74.346 19.3312 74.4017 19.3871L76.1362 21.1217C76.2443 21.2376 76.302 21.3916 76.2969 21.55C76.2918 21.7084 76.2242 21.8584 76.109 21.9671ZM72.9999 9.49805C71.1206 9.49805 69.2835 10.0553 67.7209 11.0994C66.1584 12.1435 64.9405 13.6274 64.2213 15.3637C63.5022 17.0999 63.314 19.0104 63.6806 20.8536C64.0473 22.6967 64.9522 24.3898 66.2811 25.7187C67.6099 27.0475 69.303 27.9525 71.1462 28.3191C72.9893 28.6857 74.8998 28.4976 76.6361 27.7784C78.3723 27.0592 79.8563 25.8414 80.9003 24.2788C81.9444 22.7162 82.5017 20.8791 82.5017 18.9999C82.5017 16.4798 81.5006 14.063 79.7187 12.2811C77.9367 10.4991 75.5199 9.49805 72.9999 9.49805Z" fill="#A5A5A5"/>
<rect x="162.5" y="0.5" width="37" height="37" rx="11.5" fill="#15132B" stroke="#15132B"/>
<path d="M190.908 15.8799C190.47 15.8163 190.052 15.6548 189.686 15.4075C189.319 15.1601 189.013 14.8332 188.79 14.4512C188.568 14.0691 188.434 13.6418 188.399 13.2009C188.365 12.76 188.43 12.317 188.59 11.9049C188.692 11.6354 188.707 11.3408 188.633 11.0624C188.559 10.784 188.4 10.5357 188.178 10.3524C187.197 9.52862 186.08 8.8815 184.878 8.43987C184.604 8.33816 184.305 8.32545 184.023 8.40355C183.742 8.48166 183.492 8.6466 183.31 8.87487C183.036 9.22561 182.685 9.50928 182.285 9.70438C181.885 9.89947 181.445 10.0009 181 10.0009C180.555 10.0009 180.115 9.89947 179.715 9.70438C179.315 9.50928 178.964 9.22561 178.69 8.87487C178.508 8.6466 178.258 8.48166 177.977 8.40355C177.695 8.32545 177.396 8.33816 177.123 8.43987C176.012 8.8476 174.974 9.42993 174.048 10.1649C173.814 10.3498 173.646 10.6046 173.567 10.8921C173.489 11.1796 173.505 11.4845 173.613 11.7624C173.786 12.1854 173.857 12.6432 173.821 13.0989C173.786 13.5546 173.643 13.9955 173.406 14.3864C173.169 14.7772 172.844 15.1071 172.457 15.3495C172.069 15.592 171.63 15.7402 171.175 15.7824C170.88 15.814 170.602 15.9396 170.383 16.1408C170.165 16.342 170.016 16.608 169.96 16.8999C169.82 17.5911 169.75 18.2946 169.75 18.9999C169.749 19.5903 169.797 20.1798 169.893 20.7624C169.94 21.0635 170.086 21.3406 170.307 21.5507C170.528 21.7609 170.812 21.8924 171.115 21.9249C171.58 21.9685 172.028 22.123 172.421 22.3752C172.815 22.6275 173.142 22.9704 173.375 23.375C173.609 23.7796 173.742 24.2343 173.764 24.701C173.785 25.1677 173.695 25.6328 173.5 26.0574C173.372 26.3335 173.341 26.6444 173.41 26.9406C173.479 27.2369 173.646 27.5014 173.883 27.6924C174.858 28.5012 175.963 29.1378 177.153 29.5749C177.305 29.6275 177.464 29.6554 177.625 29.6574C177.846 29.6569 178.063 29.6035 178.259 29.5017C178.454 29.3999 178.623 29.2527 178.75 29.0724C179.017 28.6829 179.376 28.3646 179.794 28.145C180.212 27.9254 180.678 27.8112 181.15 27.8124C181.608 27.8129 182.059 27.9204 182.468 28.1261C182.877 28.3318 183.232 28.6302 183.505 28.9974C183.687 29.2417 183.944 29.419 184.237 29.5017C184.53 29.5845 184.842 29.568 185.125 29.4549C186.212 29.0173 187.224 28.4125 188.125 27.6624C188.351 27.4753 188.512 27.2214 188.585 26.937C188.658 26.6527 188.639 26.3526 188.53 26.0799C188.354 25.6623 188.277 25.2094 188.305 24.7569C188.334 24.3045 188.467 23.8649 188.695 23.4729C188.923 23.0808 189.238 22.7471 189.617 22.4979C189.996 22.2488 190.427 22.0911 190.878 22.0374C191.169 21.997 191.441 21.8648 191.653 21.6598C191.864 21.4548 192.005 21.1878 192.055 20.8974C192.175 20.2718 192.241 19.6369 192.25 18.9999C192.25 18.328 192.187 17.6576 192.063 16.9974C192.012 16.7133 191.873 16.4525 191.666 16.2519C191.458 16.0513 191.193 15.9211 190.908 15.8799ZM184.75 18.9999C184.75 19.7415 184.53 20.4666 184.118 21.0833C183.706 21.6999 183.12 22.1806 182.435 22.4644C181.75 22.7482 180.996 22.8225 180.268 22.6778C179.541 22.5331 178.873 22.176 178.348 21.6515C177.824 21.1271 177.467 20.4589 177.322 19.7315C177.177 19.004 177.252 18.25 177.535 17.5648C177.819 16.8796 178.3 16.2939 178.917 15.8819C179.533 15.4698 180.258 15.2499 181 15.2499C181.995 15.2499 182.948 15.645 183.652 16.3482C184.355 17.0515 184.75 18.0053 184.75 18.9999Z" fill="#A5A5A5"/>
<rect x="108.5" y="0.5" width="37" height="37" rx="11.5" fill="#15132B" stroke="#15132B"/>
<path d="M134 9H120C119.204 9 118.441 9.31607 117.879 9.87868C117.316 10.4413 117 11.2044 117 12V14C117 14.2652 117.105 14.5196 117.293 14.7071C117.48 14.8946 117.735 15 118 15H119V26C119 26.7957 119.316 27.5587 119.879 28.1213C120.441 28.6839 121.204 29 122 29H132C132.796 29 133.559 28.6839 134.121 28.1213C134.684 27.5587 135 26.7957 135 26V15H136C136.265 15 136.52 14.8946 136.707 14.7071C136.895 14.5196 137 14.2652 137 14V12C137 11.2044 136.684 10.4413 136.121 9.87868C135.559 9.31607 134.796 9 134 9ZM125 24C125 24.2652 124.895 24.5196 124.707 24.7071C124.52 24.8946 124.265 25 124 25C123.735 25 123.48 24.8946 123.293 24.7071C123.105 24.5196 123 24.2652 123 24V18C123 17.7348 123.105 17.4804 123.293 17.2929C123.48 17.1054 123.735 17 124 17C124.265 17 124.52 17.1054 124.707 17.2929C124.895 17.4804 125 17.7348 125 18V24ZM131 24C131 24.2652 130.895 24.5196 130.707 24.7071C130.52 24.8946 130.265 25 130 25C129.735 25 129.48 24.8946 129.293 24.7071C129.105 24.5196 129 24.2652 129 24V18C129 17.7348 129.105 17.4804 129.293 17.2929C129.48 17.1054 129.735 17 130 17C130.265 17 130.52 17.1054 130.707 17.2929C130.895 17.4804 131 17.7348 131 18V24Z" fill="#A5A5A5"/>
<rect x="216.5" y="0.5" width="37" height="37" rx="11.5" fill="#15132B" stroke="#15132B"/>
<circle cx="235.5" cy="10.5" r="2.5" fill="#A5A5A5"/>
<circle cx="235.5" cy="18.5" r="2.5" fill="#A5A5A5"/>
<circle cx="235.5" cy="26.5" r="2.5" fill="#A5A5A5"/>
<rect x="0.5" y="0.5" width="37" height="37" rx="11.5" fill="#15132B" stroke="#15132B"/>
<path d="M24 9H14C12.6741 9.00048 11.4026 9.52741 10.465 10.465C9.52741 11.4026 9.00048 12.6741 9 14V24C9.00048 25.3259 9.52741 26.5974 10.465 27.535C11.4026 28.4726 12.6741 28.9995 14 29H24C25.3259 28.9995 26.5974 28.4726 27.535 27.535C28.4726 26.5974 28.9995 25.3259 29 24V14C28.9995 12.6741 28.4726 11.4026 27.535 10.465C26.5974 9.52741 25.3259 9.00048 24 9ZM22 26H16C15.7348 26 15.4804 25.8946 15.2929 25.7071C15.1054 25.5196 15 25.2652 15 25C15 24.7348 15.1054 24.4804 15.2929 24.2929C15.4804 24.1054 15.7348 24 16 24H22C22.2652 24 22.5196 24.1054 22.7071 24.2929C22.8946 24.4804 23 24.7348 23 25C23 25.2652 22.8946 25.5196 22.7071 25.7071C22.5196 25.8946 22.2652 26 22 26ZM26 20C25.9992 20.265 25.8936 20.5189 25.7062 20.7062C25.5189 20.8936 25.265 20.9992 25 21H23V22C22.9992 22.265 22.8936 22.5189 22.7062 22.7062C22.5189 22.8936 22.265 22.9992 22 23H16C15.735 22.9992 15.4811 22.8936 15.2938 22.7062C15.1064 22.5189 15.0008 22.265 15 22V21H13C12.735 20.9992 12.4811 20.8936 12.2938 20.7062C12.1064 20.5189 12.0008 20.265 12 20V13C12.0008 12.735 12.1064 12.4811 12.2938 12.2938C12.4811 12.1064 12.735 12.0008 13 12H25C25.265 12.0008 25.5189 12.1064 25.7062 12.2938C25.8936 12.4811 25.9992 12.735 26 13V20Z" fill="#A5A5A5"/>
</svg>
