<svg width="24" height="24" viewBox="0 0 24 24" fill="none" xmlns="http://www.w3.org/2000/svg">
<path d="M14.8877 12.8681C15.8292 15.2504 16.5286 17.7029 16.9829 20.2085C17.6311 19.8132 18.2369 19.3385 18.7877 18.788C20.2178 17.3576 21.1409 15.5552 21.467 13.5992C20.0621 13.0179 18.5232 12.6963 16.9104 12.6963C16.2209 12.6963 15.5453 12.7556 14.8877 12.8681Z" fill="white"/>
<path d="M18.7954 5.2199C18.7925 5.21726 18.7899 5.21438 18.7873 5.21174C16.9741 3.39854 14.5633 2.3999 11.9991 2.3999C10.9964 2.3999 10.0172 2.55326 9.08789 2.84774C10.5771 4.71374 11.8873 6.70502 13.0102 8.80958C15.1256 7.91126 17.0739 6.69446 18.7954 5.2199Z" fill="white"/>
<path d="M19.5499 6.06982C17.7442 7.62094 15.726 8.87782 13.5303 9.81741C13.854 10.469 14.1598 11.1312 14.4483 11.8032C15.2542 11.6498 16.0762 11.5716 16.9104 11.5716C18.5263 11.5716 20.0979 11.8622 21.5892 12.4341C21.5957 12.2899 21.5993 12.1452 21.5993 12.0002C21.5993 9.8215 20.8783 7.75438 19.5499 6.06982Z" fill="white"/>
<path d="M6.09082 19.5672C7.77154 20.885 9.83074 21.5998 11.9999 21.5998C13.3787 21.5998 14.7128 21.3106 15.9337 20.7619C15.476 18.1101 14.7433 15.5517 13.7658 13.1167C10.3683 14.0438 7.56922 16.4349 6.09082 19.5672Z" fill="white"/>
<path d="M11.818 12.5994C12.3117 12.3906 12.8152 12.2135 13.3264 12.0681C13.0566 11.4503 12.7703 10.8412 12.4691 10.2407C9.87566 11.2036 7.14854 11.6918 4.34702 11.6918C3.69614 11.6918 3.04957 11.6649 2.40781 11.6126C2.40253 11.741 2.39941 11.8701 2.39941 11.9999C2.39941 14.5641 3.39806 16.9749 5.21126 18.7881C5.21174 18.7885 5.21246 18.7893 5.21318 18.7897C5.8403 17.5391 6.66038 16.4022 7.65974 15.4029C8.86094 14.2017 10.2599 13.2585 11.818 12.5994Z" fill="white"/>
<path d="M11.9421 9.23039C10.8028 7.12055 9.47012 5.12999 7.96796 3.28223C6.95564 3.75119 6.023 4.39943 5.2106 5.21183C3.75812 6.66431 2.82884 8.50055 2.5166 10.4918C3.1202 10.5413 3.73028 10.5669 4.3466 10.5669C7.01276 10.5667 9.57116 10.0949 11.9421 9.23039Z" fill="white"/>
</svg>
