<svg width="24" height="24" viewBox="0 0 24 24" fill="none" xmlns="http://www.w3.org/2000/svg">
<g clip-path="url(#clip0_304_11899)">
<path d="M23.64 11.4001C20.52 6.3601 16.44 3.6001 12 3.6001C7.56 3.6001 3.48 6.3601 0.36 11.4001L0 12.0001L0.36 12.6001C3.36 17.6401 7.56 20.4001 12 20.4001C16.44 20.4001 20.52 17.6401 23.64 12.6001L24 12.0001L23.64 11.4001ZM12 18.0001C8.64 18.0001 5.4 15.8401 2.88 12.0001C5.4 8.1601 8.64 6.0001 12 6.0001C15.36 6.0001 18.6 8.1601 21.12 12.0001C18.6 15.8401 15.36 18.0001 12 18.0001Z" fill="#6418C3"/>
<path d="M11.9994 15.5999C13.9876 15.5999 15.5994 13.9881 15.5994 11.9999C15.5994 10.0117 13.9876 8.3999 11.9994 8.3999C10.0112 8.3999 8.39941 10.0117 8.39941 11.9999C8.39941 13.9881 10.0112 15.5999 11.9994 15.5999Z" fill="#6418C3"/>
</g>
<defs>
<clipPath id="clip0_304_11899">
<rect width="24" height="24" fill="white"/>
</clipPath>
</defs>
</svg>
