<svg width="34" height="34" viewBox="0 0 34 34" fill="none" xmlns="http://www.w3.org/2000/svg">
<path d="M23.375 8.5V2.79438L29.1762 9.5625H24.4375C24.1557 9.5625 23.8855 9.45056 23.6862 9.2513C23.4869 9.05204 23.375 8.78179 23.375 8.5ZM24.4375 11.6875C23.5921 11.6875 22.7814 11.3517 22.1836 10.7539C21.5858 10.1561 21.25 9.34538 21.25 8.5V2.125H7.4375C6.59212 2.125 5.78137 2.46083 5.1836 3.0586C4.58583 3.65637 4.25 4.46712 4.25 5.3125V28.6875C4.25 29.5329 4.58583 30.3436 5.1836 30.9414C5.78137 31.5392 6.59212 31.875 7.4375 31.875H26.5625C27.4079 31.875 28.2186 31.5392 28.8164 30.9414C29.4142 30.3436 29.75 29.5329 29.75 28.6875V11.6875H24.4375Z" fill="#5ECFFF"/>
</svg>
