<svg width="24" height="24" viewBox="0 0 24 24" fill="none" xmlns="http://www.w3.org/2000/svg">
<path d="M21.78 7.52C21.5679 6.83322 21.2096 6.20051 20.7297 5.66538C20.2498 5.13025 19.6597 4.70539 19 4.42V3C18.9992 2.73503 18.8936 2.48113 18.7062 2.29377C18.5189 2.1064 18.265 2.00079 18 2H6C5.73503 2.00079 5.48113 2.1064 5.29377 2.29377C5.1064 2.48113 5.00079 2.73503 5 3V4.42C4.34029 4.70539 3.75021 5.13025 3.27032 5.66538C2.79042 6.20051 2.43211 6.83322 2.22 7.52C2.07567 8.00014 2.00157 8.49864 2 9V17C2.00048 18.3259 2.52741 19.5974 3.46499 20.535C4.40257 21.4726 5.67406 21.9995 7 22H17C18.3259 21.9995 19.5974 21.4726 20.535 20.535C21.4726 19.5974 21.9995 18.3259 22 17V9C21.9984 8.49864 21.9243 8.00014 21.78 7.52ZM5 9.0435L4.04 8.52C4.0385 8.50591 4.04205 8.49173 4.05 8.48C4.15792 7.8196 4.49411 7.218 5 6.78V9.0435ZM17 10.1335L12 12.86L7 10.1339V4H17V10.1335ZM19 9.0435V6.78C19.5059 7.21803 19.842 7.81962 19.95 8.48C19.958 8.49173 19.9615 8.50591 19.96 8.52L19 9.0435Z" fill="white"/>
<path d="M9 7H15C15.2652 7 15.5196 6.89464 15.7071 6.7071C15.8946 6.51957 16 6.26521 16 6C16 5.73478 15.8946 5.48043 15.7071 5.29289C15.5196 5.10536 15.2652 5 15 5H9C8.73478 5 8.48043 5.10536 8.29289 5.29289C8.10536 5.48043 8 5.73478 8 6C8 6.26521 8.10536 6.51957 8.29289 6.7071C8.48043 6.89464 8.73478 7 9 7Z" fill="white"/>
<path d="M9 10H13C13.2652 10 13.5196 9.89464 13.7071 9.7071C13.8946 9.51957 14 9.26521 14 9C14 8.73478 13.8946 8.48043 13.7071 8.29289C13.5196 8.10536 13.2652 8 13 8H9C8.73478 8 8.48043 8.10536 8.29289 8.29289C8.10536 8.48043 8 8.73478 8 9C8 9.26521 8.10536 9.51957 8.29289 9.7071C8.48043 9.89464 8.73478 10 9 10Z" fill="white"/>
</svg>
