<svg width="24" height="24" viewBox="0 0 24 24" fill="none" xmlns="http://www.w3.org/2000/svg">
<path d="M2 22H18.644C19.3522 22.0044 20.0396 21.7611 20.5875 21.3122C21.1353 20.8634 21.509 20.2372 21.644 19.542L22.944 12.542C23.0237 12.1136 23.0078 11.6728 22.8975 11.2512C22.7873 10.8296 22.5853 10.4375 22.306 10.103C22.0182 9.75714 21.6577 9.47899 21.2501 9.28834C20.8425 9.0977 20.3979 8.99925 19.948 9H15.178V5C15.178 2.939 13.064 2 11.102 2C10.8368 2 10.5824 2.10536 10.3949 2.29289C10.2074 2.48043 10.102 2.73478 10.102 3C10.102 4.907 9.762 6.91 9.378 7.284L6.593 10H2C1.73478 10 1.48043 10.1054 1.29289 10.2929C1.10536 10.4804 1 10.7348 1 11V21C1 21.2652 1.10536 21.5196 1.29289 21.7071C1.48043 21.8947 1.73478 22 2 22ZM8 11.421L10.774 8.721C11.704 7.814 11.986 5.609 12.074 4.137C12.615 4.266 13.183 4.517 13.183 5.005V10.005C13.183 10.2702 13.2884 10.5246 13.4759 10.7121C13.6634 10.8996 13.9178 11.005 14.183 11.005H19.953C20.11 11.0039 20.2653 11.0373 20.4079 11.103C20.5505 11.1687 20.6768 11.265 20.778 11.385C20.8702 11.4932 20.9369 11.6207 20.9732 11.7581C21.0096 11.8956 21.0146 12.0394 20.988 12.179L19.688 19.179C19.6377 19.4165 19.5057 19.6288 19.3149 19.7788C19.1241 19.9289 18.8866 20.0071 18.644 20H8V11.421ZM3 12H6V20H3V12Z" fill="#6418C3"/>
</svg>
