<svg width="28" height="28" viewBox="0 0 28 28" fill="none" xmlns="http://www.w3.org/2000/svg">
<path d="M23.3337 9.33317V16.3332C23.3316 18.1891 22.5935 19.9684 21.2812 21.2807C19.9688 22.593 18.1895 23.3311 16.3337 23.3332H9.33366C9.02424 23.3332 8.72749 23.4561 8.5087 23.6749C8.28991 23.8937 8.16699 24.1904 8.16699 24.4998C8.16699 24.8093 8.28991 25.106 8.5087 25.3248C8.72749 25.5436 9.02424 25.6665 9.33366 25.6665H16.3337C18.8081 25.6637 21.1805 24.6794 22.9302 22.9297C24.6799 21.18 25.6642 18.8077 25.667 16.3332V9.33317C25.667 9.02375 25.5441 8.72701 25.3253 8.50821C25.1065 8.28942 24.8097 8.1665 24.5003 8.1665C24.1909 8.1665 23.8942 8.28942 23.6754 8.50821C23.4566 8.72701 23.3337 9.02375 23.3337 9.33317Z" fill="#464366"/>
<path d="M16.333 22.1668C17.8795 22.165 19.3622 21.5498 20.4558 20.4563C21.5494 19.3627 22.1645 17.88 22.1663 16.3335V8.16683C22.1645 6.62029 21.5494 5.13762 20.4558 4.04405C19.3622 2.95048 17.8795 2.33532 16.333 2.3335H8.16634C6.6198 2.33532 5.13713 2.95048 4.04356 4.04405C2.95 5.13762 2.33483 6.62029 2.33301 8.16683V16.3335C2.33483 17.88 2.95 19.3627 4.04356 20.4563C5.13713 21.5498 6.6198 22.165 8.16634 22.1668H16.333ZM9.11134 10.9833L10.6027 13.0455L15.5405 8.47681C15.7677 8.26666 16.0691 8.15538 16.3784 8.16745C16.6877 8.17953 16.9795 8.31398 17.1897 8.54121C17.3999 8.76845 17.5111 9.06987 17.4991 9.37915C17.487 9.68844 17.3525 9.98026 17.1253 10.1904L11.2215 15.6522C11.1003 15.7642 10.9568 15.8493 10.8003 15.9017C10.6438 15.9542 10.478 15.9728 10.3138 15.9565C10.1496 15.9401 9.9907 15.8891 9.84765 15.8068C9.70461 15.7245 9.58066 15.6128 9.48398 15.479L7.22134 12.3504C7.04915 12.0994 6.98187 11.791 7.03386 11.4911C7.08585 11.1912 7.25299 10.9235 7.49962 10.7451C7.74625 10.5667 8.05283 10.4918 8.35394 10.5363C8.65506 10.5808 8.92686 10.7412 9.11134 10.9833Z" fill="#464366"/>
</svg>
