<svg width="28" height="28" viewBox="0 0 28 28" fill="none" xmlns="http://www.w3.org/2000/svg">
<path d="M22.1665 1.1665H5.83317C5.55361 1.16972 5.2845 1.27323 5.07484 1.45817C5.90683 1.75089 6.63884 2.27339 7.18603 2.96512C7.73321 3.65684 8.07317 4.48947 8.1665 5.3665C8.18434 5.52155 8.18434 5.67813 8.1665 5.83317V25.6665C8.16595 25.8897 8.22941 26.1083 8.34934 26.2964C8.46928 26.4846 8.64066 26.6345 8.84317 26.7282C9.04616 26.8216 9.27171 26.8548 9.49301 26.8238C9.7143 26.7928 9.92204 26.6988 10.0915 26.5532L13.4165 23.7065L16.7415 26.5532C16.9528 26.7339 17.2218 26.8332 17.4998 26.8332C17.7779 26.8332 18.0468 26.7339 18.2582 26.5532L21.5832 23.7065L24.9082 26.5532C25.1195 26.7339 25.3884 26.8332 25.6665 26.8332C25.8353 26.832 26.002 26.7962 26.1565 26.7282C26.359 26.6345 26.5304 26.4846 26.6503 26.2964C26.7703 26.1083 26.8337 25.8897 26.8332 25.6665V5.83317C26.8332 4.59549 26.3415 3.40851 25.4663 2.53334C24.5912 1.65817 23.4042 1.1665 22.1665 1.1665ZM20.9998 17.4998H13.9998C13.6904 17.4998 13.3937 17.3769 13.1749 17.1581C12.9561 16.9393 12.8332 16.6426 12.8332 16.3332C12.8332 16.0238 12.9561 15.727 13.1749 15.5082C13.3937 15.2894 13.6904 15.1665 13.9998 15.1665H20.9998C21.3093 15.1665 21.606 15.2894 21.8248 15.5082C22.0436 15.727 22.1665 16.0238 22.1665 16.3332C22.1665 16.6426 22.0436 16.9393 21.8248 17.1581C21.606 17.3769 21.3093 17.4998 20.9998 17.4998ZM20.9998 12.8332H13.9998C13.6904 12.8332 13.3937 12.7103 13.1749 12.4915C12.9561 12.2727 12.8332 11.9759 12.8332 11.6665C12.8332 11.3571 12.9561 11.0603 13.1749 10.8415C13.3937 10.6228 13.6904 10.4998 13.9998 10.4998H20.9998C21.3093 10.4998 21.606 10.6228 21.8248 10.8415C22.0436 11.0603 22.1665 11.3571 22.1665 11.6665C22.1665 11.9759 22.0436 12.2727 21.8248 12.4915C21.606 12.7103 21.3093 12.8332 20.9998 12.8332ZM20.9998 8.1665H13.9998C13.6904 8.1665 13.3937 8.04359 13.1749 7.8248C12.9561 7.606 12.8332 7.30926 12.8332 6.99984C12.8332 6.69042 12.9561 6.39367 13.1749 6.17488C13.3937 5.95609 13.6904 5.83317 13.9998 5.83317H20.9998C21.3093 5.83317 21.606 5.95609 21.8248 6.17488C22.0436 6.39367 22.1665 6.69042 22.1665 6.99984C22.1665 7.30926 22.0436 7.606 21.8248 7.8248C21.606 8.04359 21.3093 8.1665 20.9998 8.1665ZM5.83317 5.83317V15.1665H2.33317C2.02375 15.1665 1.72701 15.0436 1.50821 14.8248C1.28942 14.606 1.1665 14.3093 1.1665 13.9998V5.83317C1.1665 5.66984 1.1665 5.51817 1.1665 5.3665C1.22839 4.74767 1.53357 4.17876 2.01491 3.78493C2.49626 3.3911 3.11433 3.20462 3.73317 3.2665C4.35201 3.32839 4.92092 3.63357 5.31474 4.11491C5.70857 4.59626 5.89505 5.21433 5.83317 5.83317Z" fill="#6418C3"/>
</svg>
