<svg width="24" height="24" viewBox="0 0 24 24" fill="none" xmlns="http://www.w3.org/2000/svg">
<g clip-path="url(#clip0_304_5404)">
<path d="M16.4932 6.34528C16.0277 5.8745 15.2691 5.86857 14.7962 6.33205L5.92619 15.0986L2.07032 11.1068C1.61043 10.6275 0.849069 10.6118 0.3698 11.0717C-0.109521 11.5315 -0.125253 12.2929 0.334636 12.7722C0.33672 12.7743 0.338752 12.7764 0.340836 12.7786L5.04225 17.6508C5.26725 17.8803 5.57476 18.0103 5.89618 18.0116H5.90942C6.22474 18.0106 6.5271 17.8858 6.75131 17.664L16.4824 8.04231C16.9525 7.57606 16.9573 6.81752 16.4932 6.34528Z" fill="#6418C3"/>
<path d="M12.2586 17.6508C12.483 17.8798 12.7895 18.0097 13.1101 18.0116H13.1234C13.4387 18.0107 13.741 17.8858 13.9653 17.6641L23.6964 8.04239C24.1375 7.54572 24.0924 6.78556 23.5958 6.34448C23.1455 5.9446 22.469 5.93934 22.0126 6.33213L13.1462 15.0987L12.8299 14.7703C12.37 14.291 11.6087 14.2752 11.1293 14.7351C10.65 15.195 10.6342 15.9563 11.0941 16.4356C11.0962 16.4378 11.0983 16.44 11.1004 16.4421L12.2586 17.6508Z" fill="#6418C3"/>
</g>
<defs>
<clipPath id="clip0_304_5404">
<rect width="24" height="24" fill="white"/>
</clipPath>
</defs>
</svg>
