<svg width="40" height="40" viewBox="0 0 40 40" fill="none" xmlns="http://www.w3.org/2000/svg">
<path d="M12.1665 8.36095C12.193 8.11187 12.1919 7.86062 12.1635 7.61171L12.8426 37.7294C12.6403 37.6356 12.4692 37.4859 12.3493 37.2979C12.2294 37.1098 12.1659 36.8911 12.1665 36.668V36.6668V8.36095ZM7.83565 8.28366L7.83317 8.30848V8.33342V21.1667H3.33317C3.02375 21.1667 2.727 21.0438 2.50821 20.825C2.28942 20.6062 2.1665 20.3095 2.1665 20.0001V8.33342V8.33205V8.33068V8.32932V8.32795V8.32658V8.32522V8.32385V8.32249V8.32113V8.31976V8.3184V8.31704V8.31567V8.31431V8.31295V8.31159V8.31023V8.30887V8.30751V8.30615V8.30479V8.30343V8.30207V8.30071V8.29935V8.298V8.29664V8.29528V8.29392V8.29257V8.29121V8.28986V8.2885V8.28715V8.28579V8.28444V8.28308V8.28173V8.28038V8.27903V8.27767V8.27632V8.27497V8.27362V8.27227V8.27092V8.26957V8.26822V8.26687V8.26552V8.26417V8.26282V8.26147V8.26012V8.25878V8.25743V8.25608V8.25474V8.25339V8.25204V8.2507V8.24935V8.24801V8.24666V8.24532V8.24398V8.24263V8.24129V8.23995V8.2386V8.23726V8.23592V8.23458V8.23324V8.2319V8.23056V8.22922V8.22788V8.22654V8.2252V8.22386V8.22252V8.22118V8.21984V8.21851V8.21717V8.21583V8.2145V8.21316V8.21182V8.21049V8.20915V8.20782V8.20648V8.20515V8.20381V8.20248V8.20115V8.19981V8.19848V8.19715V8.19582V8.19448V8.19315V8.19182V8.19049V8.18916V8.18783V8.1865V8.18517V8.18384V8.18251V8.18118V8.17985V8.17852V8.17719V8.17587V8.17454V8.17321V8.17189V8.17056V8.16923V8.16791V8.16658V8.16525V8.16393V8.1626V8.16128V8.15996V8.15863V8.15731V8.15598V8.15466V8.15334V8.15202V8.15069V8.14937V8.14805V8.14673V8.14541V8.14409V8.14277V8.14144V8.14012V8.1388V8.13749V8.13617V8.13485V8.13353V8.13221V8.13089V8.12957V8.12826V8.12694V8.12562V8.1243V8.12299V8.12167V8.12036V8.11904V8.11772V8.11641V8.11509V8.11378V8.11246V8.11115V8.10984V8.10852V8.10721V8.1059V8.10458V8.10327V8.10196V8.10065V8.09933V8.09802V8.09671V8.0954V8.09409V8.09278V8.09147V8.09016V8.08885V8.08754V8.08623V8.08492V8.08361V8.0823V8.08099V8.07968V8.07838V8.07707V8.07576V8.07445V8.07315V8.07184V8.07053V8.06923V8.06792V8.06661V8.06531V8.064V8.0627V8.06139V8.06009V8.05878V8.05748V8.05617V8.05487V8.05357V8.05226V8.05096V8.04966V8.04836V8.04705V8.04575V8.04445V8.04315V8.04184V8.04054V8.03924V8.03794V8.03664V8.03534V8.03404V8.03274V8.03144V8.03014V8.02884V8.02754V8.02624V8.02494V8.02364V8.02235V8.02105V8.01975V8.01845V8.01715V8.01586V8.01456V8.01326V8.01197V8.01067V8.00937V8.00808V8.00678V8.00549V8.00419V8.00289V8.0016V8.0003V7.99901V7.99771V7.99642V7.99513V7.99383V7.99254V7.99124V7.98995V7.98866V7.98736V7.98607V7.98478V7.98349V7.98219V7.9809V7.97961V7.97832V7.97703V7.97574V7.97444V7.97315V7.97186V7.97057V7.96928V7.96799V7.9667V7.96541V7.96412V7.96283V7.96154V7.96025V7.95896V7.95767V7.95638V7.9551V7.95381V7.95252V7.95123V7.94994V7.94866V7.94737V7.94608V7.94479V7.94351V7.94222V7.94093V7.93965V7.93836V7.93707V7.93579V7.9345V7.93321V7.93193V7.93064V7.92936V7.92807V7.92679V7.9255V7.92422V7.92293V7.92165V7.92036V7.91908V7.9178V7.91651V7.91523V7.91394V7.91266V7.91138V7.91009V7.90881V7.90753V7.90625V7.90496V7.90368V7.9024V7.90112V7.89983V7.89855V7.89727V7.89599V7.89471V7.89343V7.89214V7.89086V7.88958V7.8883V7.88702V7.88574V7.88446V7.88318V7.8819V7.88062V7.87934V7.87806V7.87678V7.8755V7.87422V7.87294V7.87166V7.87038V7.8691V7.86782V7.86655V7.86527V7.86399V7.86271V7.86143V7.86015V7.85888V7.8576V7.85632V7.85504V7.85376V7.85249V7.85121V7.84993V7.84865V7.84738V7.8461V7.84482V7.84355V7.84227V7.84099V7.83972V7.83844V7.83716V7.83589V7.83461V7.83334V7.83206V7.83078V7.82951V7.82823V7.82696V7.82568V7.82441V7.82313V7.82186V7.82058V7.81931V7.81803V7.81676V7.81548V7.81421V7.81293V7.81166V7.81038V7.80911V7.80784V7.80656V7.80529V7.80401V7.80274V7.80147V7.80019V7.79892V7.79765V7.79637V7.7951V7.79383V7.79255V7.79128V7.79001V7.78873V7.78746V7.78619V7.78491V7.78364V7.78237V7.7811V7.77982V7.77855V7.77728V7.77601V7.77473V7.77346V7.77219V7.77092V7.76965V7.76837V7.7671V7.76583V7.76456V7.76329V7.76202V7.76074V7.75947V7.7582V7.75693V7.75566V7.75439V7.75312V7.75184V7.75057V7.7493V7.74803V7.74676V7.74549V7.74422V7.74295V7.74168V7.74041V7.73913V7.73786V7.73659V7.73532V7.73405V7.73278V7.73151V7.73024V7.72897V7.7277V7.72643V7.72516V7.72389V7.72262V7.72135V7.72008V7.71881V7.71754V7.71627V7.715V7.71373V7.71246V7.71119V7.70992V7.70865V7.70738V7.70611V7.70484V7.70357V7.7023V7.70103V7.69976V7.69849V7.69722V7.69595V7.69468V7.69341V7.6927C2.24709 6.94982 2.61631 6.26792 3.19514 5.79434C3.78014 5.3157 4.53131 5.08906 5.28342 5.16427C6.03552 5.23948 6.72695 5.61038 7.20558 6.19538C7.68422 6.78038 7.91086 7.53156 7.83565 8.28366ZM19.9998 25.5001H29.9998C30.5745 25.5001 31.1256 25.2718 31.5319 24.8655C31.9382 24.4592 32.1665 23.9081 32.1665 23.3334C32.1665 22.7588 31.9382 22.2077 31.5319 21.8014C31.1256 21.395 30.5745 21.1667 29.9998 21.1667H19.9998C19.4252 21.1667 18.8741 21.395 18.4678 21.8014C18.0614 22.2077 17.8332 22.7588 17.8332 23.3334C17.8332 23.9081 18.0614 24.4592 18.4678 24.8655C18.8741 25.2718 19.4252 25.5001 19.9998 25.5001ZM19.9998 18.8334H29.9998C30.5745 18.8334 31.1256 18.6051 31.5319 18.1988C31.9382 17.7925 32.1665 17.2414 32.1665 16.6667C32.1665 16.0921 31.9382 15.541 31.5319 15.1347C31.1256 14.7284 30.5745 14.5001 29.9998 14.5001H19.9998C19.4252 14.5001 18.8741 14.7284 18.4678 15.1347C18.0614 15.541 17.8332 16.0921 17.8332 16.6667C17.8332 17.2414 18.0614 17.7925 18.4678 18.1988C18.8741 18.6051 19.4252 18.8334 19.9998 18.8334ZM19.9998 12.1667H29.9998C30.5745 12.1667 31.1256 11.9385 31.5319 11.5321C31.9382 11.1258 32.1665 10.5747 32.1665 10.0001C32.1665 9.42545 31.9382 8.87435 31.5319 8.46802C31.1256 8.06169 30.5745 7.83342 29.9998 7.83342H19.9998C19.4252 7.83342 18.8741 8.06169 18.4678 8.46802C18.0614 8.87435 17.8332 9.42545 17.8332 10.0001C17.8332 10.5747 18.0614 11.1258 18.4678 11.5321C18.8741 11.9385 19.4252 12.1667 19.9998 12.1667Z" stroke="#5ECFFF"/>
</svg>
