<svg width="72" height="72" viewBox="0 0 72 72" fill="none" xmlns="http://www.w3.org/2000/svg">
<g clip-path="url(#clip0_304_931)">
<path d="M28.8468 26.0899L48.3481 14.6344L48.1204 37.2175C48.2257 38.5341 48.0834 39.8667 47.7921 41.1915C47.532 42.4574 47.0282 43.7371 46.3474 44.9163C44.5102 48.0985 41.5461 50.2374 38.1994 51.1354C34.9111 52.0662 31.216 51.6619 28.0317 49.8234C24.7907 47.9522 22.652 44.9883 21.755 41.6413C20.9174 38.3274 21.287 34.6907 23.1243 31.5085C23.8051 30.3292 24.6615 29.2532 25.5694 28.3612C26.5693 27.4455 27.7145 26.692 28.8468 26.0899ZM28.183 40.7176C28.606 42.2961 29.6213 43.6699 31.0936 44.52C32.5675 45.3709 34.2649 45.5633 35.7853 45.1068C37.3317 44.7397 38.7042 43.7266 39.5556 42.252C40.4065 40.7781 40.5984 39.0815 40.1424 37.5602C39.7773 36.0156 38.7611 34.6433 37.2873 33.7923C35.8149 32.9423 34.1183 32.7484 32.54 33.171C31.0504 33.5689 29.6793 34.5848 28.8284 36.0586C27.977 37.5332 27.7837 39.2271 28.183 40.7176Z" fill="white"/>
<path fill-rule="evenodd" clip-rule="evenodd" d="M45.3323 51.1681C46.3671 50.1911 48.0715 50.2338 49.1151 51.1507C50.3013 52.2274 50.3433 54.0612 49.2393 55.1527C45.9776 58.218 41.6976 59.9145 37.2548 60.2582C32.6018 60.5578 27.8549 59.3876 23.8462 57.0731C19.7787 54.7247 16.4521 51.2337 14.3842 47.0538C12.4027 43.0012 11.7915 38.4808 12.813 34.1222C13.1495 32.5874 14.8162 31.7402 16.2842 32.196C17.6569 32.674 18.4881 34.0953 18.1591 35.4798C17.4524 38.6074 17.9281 41.868 19.341 44.7284C20.9158 47.9956 23.5038 50.5889 26.5683 52.3583C29.6344 54.1285 33.175 55.0735 36.7295 54.7676C39.9146 54.5618 43.0342 53.3769 45.3323 51.1681Z" fill="white"/>
</g>
<defs>
<clipPath id="clip0_304_931">
<rect width="52" height="52" fill="white" transform="translate(45.6461 72) scale(1.01361) rotate(-150)"/>
</clipPath>
</defs>
</svg>
