<svg width="288" height="32" viewBox="0 0 288 32" fill="none" xmlns="http://www.w3.org/2000/svg">
<path d="M14.1203 9.0371C13.662 8.9819 12.5048 9 12.0003 9V7C12.0001 6.8231 11.953 6.64942 11.8638 6.49665C11.7746 6.34387 11.6465 6.21747 11.4926 6.13033C11.3387 6.04318 11.1644 5.99841 10.9875 6.00056C10.8106 6.00272 10.6374 6.05173 10.4857 6.1426L2.48567 10.9426C2.3378 11.0316 2.21546 11.1573 2.13054 11.3075C2.04561 11.4578 2.00098 11.6274 2.00098 11.8C2.00098 11.9726 2.04561 12.1422 2.13054 12.2925C2.21546 12.4427 2.3378 12.5684 2.48567 12.6574L10.4857 17.4574C10.6374 17.5483 10.8106 17.5973 10.9875 17.5994C11.1644 17.6016 11.3387 17.5568 11.4926 17.4697C11.6465 17.3825 11.7746 17.2561 11.8638 17.1034C11.953 16.9506 12.0001 16.7769 12.0003 16.6V15H14.0003C15.9303 15 18.9903 16.6973 18.9903 21.25C18.9908 21.4696 19.0635 21.6829 19.1972 21.8571C19.3309 22.0312 19.5183 22.1566 19.7303 22.2138C19.9423 22.271 20.1672 22.2568 20.3704 22.1735C20.5736 22.0903 20.7437 21.9424 20.8546 21.7529C21.5751 20.5077 21.9672 19.0998 21.9942 17.6614C22.0211 16.2231 21.682 14.8014 21.0087 13.5301C20.3354 12.2588 19.35 11.1794 18.1451 10.3935C16.9401 9.60757 15.5551 9.14082 14.1203 9.0371Z" fill="#A5A5A5"/>
<rect x="160" width="1" height="32" rx="0.5" fill="#C2C2C2"/>
<path d="M61.8797 9.0371C62.338 8.9819 63.4952 9 63.9997 9V7C63.9999 6.8231 64.047 6.64942 64.1362 6.49665C64.2254 6.34387 64.3535 6.21747 64.5074 6.13033C64.6613 6.04318 64.8356 5.99841 65.0125 6.00056C65.1894 6.00272 65.3626 6.05173 65.5143 6.1426L73.5143 10.9426C73.6622 11.0316 73.7845 11.1573 73.8695 11.3075C73.9544 11.4578 73.999 11.6274 73.999 11.8C73.999 11.9726 73.9544 12.1422 73.8695 12.2925C73.7845 12.4427 73.6622 12.5684 73.5143 12.6574L65.5143 17.4574C65.3626 17.5483 65.1894 17.5973 65.0125 17.5994C64.8356 17.6016 64.6613 17.5568 64.5074 17.4697C64.3535 17.3825 64.2254 17.2561 64.1362 17.1034C64.047 16.9506 63.9999 16.7769 63.9997 16.6V15H61.9997C60.0697 15 57.0097 16.6973 57.0097 21.25C57.0092 21.4696 56.9365 21.6829 56.8028 21.8571C56.6691 22.0312 56.4817 22.1566 56.2697 22.2138C56.0577 22.271 55.8328 22.2568 55.6296 22.1735C55.4264 22.0903 55.2563 21.9424 55.1454 21.7529C54.4249 20.5077 54.0328 19.0998 54.0058 17.6614C53.9789 16.2231 54.318 14.8014 54.9913 13.5301C55.6646 12.2588 56.65 11.1794 57.8549 10.3935C59.0599 9.60757 60.4449 9.14082 61.8797 9.0371Z" fill="#A5A5A5"/>
<path d="M124 5H108C107.47 5 106.961 5.21071 106.586 5.58579C106.211 5.96086 106 6.46957 106 7V11C106 11.5304 106.211 12.0391 106.586 12.4142C106.961 12.7893 107.47 13 108 13C108.531 13 109.039 12.7893 109.414 12.4142C109.79 12.0391 110 11.5304 110 11V9H114V23H112C111.47 23 110.961 23.2107 110.586 23.5858C110.211 23.9609 110 24.4696 110 25C110 25.5304 110.211 26.0391 110.586 26.4142C110.961 26.7893 111.47 27 112 27H120C120.531 27 121.039 26.7893 121.414 26.4142C121.79 26.0391 122 25.5304 122 25C122 24.4696 121.79 23.9609 121.414 23.5858C121.039 23.2107 120.531 23 120 23H118V9H122V11C122 11.5304 122.211 12.0391 122.586 12.4142C122.961 12.7893 123.47 13 124 13C124.531 13 125.039 12.7893 125.414 12.4142C125.79 12.0391 126 11.5304 126 11V7C126 6.46957 125.79 5.96086 125.414 5.58579C125.039 5.21071 124.531 5 124 5Z" fill="#A5A5A5"/>
<path d="M193 25V24.4599L193.41 24.3313C193.768 24.1942 194.007 24.0141 194.126 23.7912C194.263 23.5683 194.331 23.2683 194.331 22.8911C194.348 21.9138 194.356 20.9365 194.356 19.9592C194.356 18.9647 194.356 17.9702 194.356 16.9758V16.0499C194.356 15.0555 194.348 14.0696 194.331 13.0923C194.331 12.0978 194.331 11.1034 194.331 10.1089C194.331 9.69743 194.271 9.3888 194.152 9.18306C194.032 8.96016 193.785 8.7887 193.41 8.66868L193 8.54009V8H200.218C202.265 8 203.75 8.38578 204.671 9.15734C205.592 9.91175 206.053 10.8719 206.053 12.0378C206.053 12.9294 205.729 13.7352 205.08 14.4554C204.432 15.1583 203.297 15.6641 201.676 15.9728C203.553 16.1785 204.91 16.6672 205.746 17.4387C206.582 18.2103 207 19.1533 207 20.2678C207 20.8164 206.881 21.3737 206.642 21.9395C206.403 22.4882 205.993 22.9939 205.413 23.4569C204.85 23.9198 204.082 24.297 203.11 24.5885C202.137 24.8628 200.909 25 199.424 25H193ZM197.991 15.7927H199.194C200.354 15.7927 201.19 15.5356 201.702 15.0212C202.231 14.4897 202.495 13.5895 202.495 12.3207C202.495 11.0005 202.257 10.0746 201.779 9.54312C201.301 9.0116 200.55 8.74584 199.527 8.74584H197.991V15.7927ZM197.991 24.2542H199.399C200.678 24.2542 201.634 23.937 202.265 23.3026C202.896 22.6682 203.212 21.648 203.212 20.2421C203.212 18.8875 202.905 17.936 202.291 17.3873C201.693 16.8215 200.704 16.5386 199.322 16.5386H197.991V24.2542Z" fill="#A5A5A5"/>
<path d="M235 25L235.102 24.4599L235.737 24.2284C235.975 24.1599 236.161 24.0398 236.297 23.8684C236.449 23.6798 236.551 23.474 236.602 23.2511L237.949 15.9728C238.119 15.0298 238.297 14.0182 238.483 12.938C238.686 11.8406 238.864 10.7948 239.017 9.8003C239.068 9.56026 239.025 9.33737 238.89 9.13162C238.771 8.90872 238.593 8.76298 238.356 8.6944L237.898 8.54009L238.025 8H244L243.873 8.54009L243.263 8.74584C242.771 8.88301 242.483 9.20877 242.398 9.72315L241.025 17.0272C240.856 17.9702 240.678 18.9818 240.492 20.062C240.305 21.1422 240.119 22.171 239.932 23.1483C239.898 23.4054 239.941 23.6369 240.059 23.8427C240.178 24.0484 240.347 24.1942 240.568 24.2799L241.102 24.4599L240.975 25H235Z" fill="#A5A5A5"/>
<path d="M280.22 25C279 25 277.919 24.7743 276.976 24.323C276.049 23.8717 275.317 23.1613 274.78 22.1917C274.26 21.2055 274 19.91 274 18.3053V15.5973C274 14.6613 274 13.7168 274 12.764C274 11.8112 273.992 10.85 273.976 9.88053C273.976 9.22861 273.675 8.81908 273.073 8.65192L272.537 8.52655V8H279.122V8.52655L278.439 8.67699C277.821 8.82743 277.512 9.24533 277.512 9.93068C277.496 10.8668 277.488 11.8112 277.488 12.764C277.488 13.7001 277.488 14.6445 277.488 15.5973V18.7817C277.488 20.4031 277.805 21.5733 278.439 22.292C279.089 23.0108 280.008 23.3702 281.195 23.3702C282.447 23.3702 283.423 22.9857 284.122 22.2168C284.837 21.4312 285.195 20.2694 285.195 18.7316V10.0059C285.195 9.67158 285.13 9.37906 285 9.12832C284.87 8.87758 284.642 8.71878 284.317 8.65192L283.732 8.52655V8H287.488V8.52655L286.805 8.67699C286.496 8.74385 286.285 8.8943 286.171 9.12832C286.057 9.36234 286 9.64651 286 9.98083V18.5811C286 20.6539 285.472 22.2419 284.415 23.3451C283.358 24.4484 281.959 25 280.22 25Z" fill="#A5A5A5"/>
<path d="M272 17.3525H288V18.6062H272V17.3525Z" fill="#A5A5A5"/>
</svg>
