<svg width="28" height="28" viewBox="0 0 28 28" fill="none" xmlns="http://www.w3.org/2000/svg">
<g clip-path="url(#clip0_304_10944)">
<path d="M14 27.9999C21.7319 27.9999 27.9999 21.7319 27.9999 14C27.9999 6.268 21.7319 0 14 0C6.268 0 0 6.268 0 14C0 21.7319 6.268 27.9999 14 27.9999Z" fill="#FDDF6D"/>
<path d="M17 25.9332C9.26806 25.9332 3.00008 19.6652 3.00008 11.9333C3.00008 7.80237 4.78956 4.08993 7.63521 1.52734C3.10284 3.84477 0 8.56 0 14C0 21.732 6.26797 27.9999 13.9999 27.9999C17.601 27.9999 20.8841 26.6399 23.3647 24.406C21.4552 25.3823 19.292 25.9332 17 25.9332Z" fill="#FCC56B"/>
<path d="M13.4476 10.2352C13.133 10.2352 12.8781 9.98015 12.8781 9.66565C12.8781 8.93104 12.2805 8.33336 11.5458 8.33336C10.8112 8.33336 10.2135 8.93109 10.2135 9.66565C10.2135 9.98021 9.95849 10.2352 9.64398 10.2352C9.32942 10.2352 9.07446 9.98015 9.07446 9.66565C9.07446 8.30295 10.1831 7.19434 11.5458 7.19434C12.9084 7.19434 14.0171 8.30295 14.0171 9.66565C14.0172 9.98015 13.7622 10.2352 13.4476 10.2352Z" fill="#7F184C"/>
<path d="M23.067 10.2352C22.7524 10.2352 22.4975 9.98015 22.4975 9.66565C22.4975 8.93104 21.8998 8.33336 21.1652 8.33336C20.4305 8.33336 19.8329 8.93109 19.8329 9.66565C19.8329 9.98021 19.5779 10.2352 19.2634 10.2352C18.9489 10.2352 18.6938 9.98015 18.6938 9.66565C18.6938 8.30295 19.8025 7.19434 21.1652 7.19434C22.5278 7.19434 23.6365 8.30295 23.6365 9.66565C23.6365 9.98015 23.3815 10.2352 23.067 10.2352Z" fill="#7F184C"/>
<path d="M16.0368 24.2306C11.9897 24.2306 8.70898 20.9499 8.70898 16.9028H23.3647C23.3646 20.9498 20.0838 24.2306 16.0368 24.2306Z" fill="#15132B"/>
<path d="M9.42944 20.0757C9.62254 20.4771 9.85152 20.858 10.1115 21.2148H21.9622C22.2222 20.858 22.4511 20.4772 22.6442 20.0757H9.42944Z" fill="#E6E6E6"/>
<path d="M7.9837 13.1331C6.94404 13.1331 6.1012 13.9759 6.1012 15.0155H9.86631C9.8662 13.9759 9.02336 13.1331 7.9837 13.1331Z" fill="#F9A880"/>
<path d="M24.4042 13.1331C23.3646 13.1331 22.5217 13.9759 22.5217 15.0155H26.2868C26.2868 13.9759 25.444 13.1331 24.4042 13.1331Z" fill="#F9A880"/>
<path d="M18.8317 4.80691C19.0772 3.93931 18.0168 2.87956 16.4632 2.4399C14.9096 2.00023 13.4511 2.34713 13.2056 3.21472C12.96 4.08232 14.0204 5.14207 15.5741 5.58174C17.1277 6.0214 18.5862 5.6745 18.8317 4.80691Z" fill="#FCEB88"/>
</g>
<defs>
<clipPath id="clip0_304_10944">
<rect width="28" height="28" fill="white"/>
</clipPath>
</defs>
</svg>
