<svg width="29" height="29" viewBox="0 0 29 29" fill="none" xmlns="http://www.w3.org/2000/svg">
<g clip-path="url(#clip0_304_9418)">
<path d="M14.5566 27.3008H4.53125C2.03265 27.3008 0 25.2681 0 22.7695V5.1543C0 2.65569 2.03265 0.623047 4.53125 0.623047H24.4688C26.9674 0.623047 29 2.65569 29 5.1543V16.3125C29 16.9382 28.4929 17.4453 27.8672 17.4453C27.2415 17.4453 26.7344 16.9382 26.7344 16.3125V5.1543C26.7344 3.90511 25.7179 2.88867 24.4688 2.88867H4.53125C3.28206 2.88867 2.26562 3.90511 2.26562 5.1543V22.7695C2.26562 24.0187 3.28206 25.0352 4.53125 25.0352H14.5566C15.1823 25.0352 15.6895 25.5423 15.6895 26.168C15.6895 26.7937 15.1823 27.3008 14.5566 27.3008ZM6.62695 21.6367C6.62695 21.011 6.11984 20.5039 5.49414 20.5039C4.86844 20.5039 4.36133 21.011 4.36133 21.6367C4.36133 22.2624 4.86844 22.7695 5.49414 22.7695C6.11984 22.7695 6.62695 22.2624 6.62695 21.6367ZM11.1582 21.6367C11.1582 21.011 10.6511 20.5039 10.0254 20.5039C9.39969 20.5039 8.89258 21.011 8.89258 21.6367C8.89258 22.2624 9.39969 22.7695 10.0254 22.7695C10.6511 22.7695 11.1582 22.2624 11.1582 21.6367ZM15.6895 21.6367C15.6895 21.011 15.1823 20.5039 14.5566 20.5039C13.9309 20.5039 13.4238 21.011 13.4238 21.6367C13.4238 22.2624 13.9309 22.7695 14.5566 22.7695C15.1823 22.7695 15.6895 22.2624 15.6895 21.6367ZM6.62695 6.28711C6.62695 5.66141 6.11984 5.1543 5.49414 5.1543C4.86844 5.1543 4.36133 5.66141 4.36133 6.28711C4.36133 6.91281 4.86844 7.41992 5.49414 7.41992C6.11984 7.41992 6.62695 6.91281 6.62695 6.28711ZM11.1582 6.28711C11.1582 5.66141 10.6511 5.1543 10.0254 5.1543C9.39969 5.1543 8.89258 5.66141 8.89258 6.28711C8.89258 6.91281 9.39969 7.41992 10.0254 7.41992C10.6511 7.41992 11.1582 6.91281 11.1582 6.28711ZM15.6895 6.28711C15.6895 5.66141 15.1823 5.1543 14.5566 5.1543C13.9309 5.1543 13.4238 5.66141 13.4238 6.28711C13.4238 6.91281 13.9309 7.41992 14.5566 7.41992C15.1823 7.41992 15.6895 6.91281 15.6895 6.28711ZM20.2207 6.28711C20.2207 5.66141 19.7136 5.1543 19.0879 5.1543C18.4622 5.1543 17.9551 5.66141 17.9551 6.28711C17.9551 6.91281 18.4622 7.41992 19.0879 7.41992C19.7136 7.41992 20.2207 6.91281 20.2207 6.28711ZM24.752 6.28711C24.752 5.66141 24.2448 5.1543 23.6191 5.1543C22.9934 5.1543 22.4863 5.66141 22.4863 6.28711C22.4863 6.91281 22.9934 7.41992 23.6191 7.41992C24.2448 7.41992 24.752 6.91281 24.752 6.28711ZM21.6659 28.1013L27.7052 24.6252C28.4805 24.1789 28.9434 23.3793 28.9434 22.4863C28.9434 21.5934 28.4805 20.7937 27.7052 20.3475L21.6659 16.8714C20.89 16.4247 19.9641 16.4256 19.1888 16.8738C18.4164 17.3205 17.9551 18.1192 17.9551 19.0102V25.9624C17.9551 26.8534 18.4164 27.6521 19.1888 28.0988C19.5771 28.3234 20.0032 28.4356 20.4296 28.4356C20.8541 28.4356 21.2787 28.3243 21.6659 28.1013ZM20.5358 18.835L26.5751 22.3111C26.6432 22.3503 26.6777 22.4093 26.6777 22.4863C26.6777 22.5635 26.6432 22.6224 26.5751 22.6616L20.5358 26.1377C20.465 26.1784 20.3935 26.1784 20.3229 26.1374C20.2552 26.0983 20.2207 26.0394 20.2207 25.9624V19.0102C20.2207 18.9332 20.255 18.8744 20.3229 18.8352C20.3583 18.8149 20.3939 18.8045 20.4296 18.8045C20.465 18.8045 20.5006 18.8146 20.5358 18.835Z" fill="white"/>
</g>
<defs>
<clipPath id="clip0_304_9418">
<rect width="29" height="29" fill="white"/>
</clipPath>
</defs>
</svg>
