<svg width="24" height="24" viewBox="0 0 24 24" fill="none" xmlns="http://www.w3.org/2000/svg">
<g clip-path="url(#clip0_304_11629)">
<path d="M18.0003 9.37498C18.0004 8.52613 17.8758 7.68188 17.6305 6.86923C17.2823 5.71327 16.6953 4.64329 15.9075 3.72851C15.1196 2.81373 14.1486 2.07453 13.057 1.55874C11.9655 1.04295 10.7778 0.762051 9.57087 0.734225C8.36392 0.706399 7.16458 0.932263 6.05043 1.3972C4.93628 1.86214 3.93215 2.5558 3.103 3.4333C2.27385 4.3108 1.63816 5.3526 1.23704 6.49128C0.83593 7.62997 0.678333 8.84017 0.774449 10.0436C0.870565 11.247 1.21825 12.4169 1.79502 13.4775L0.778769 17.0445C0.746969 17.1561 0.741506 17.2736 0.762809 17.3876C0.784112 17.5017 0.831599 17.6093 0.901535 17.7019C0.97147 17.7945 1.06194 17.8697 1.16584 17.9214C1.26973 17.9731 1.38421 18 1.50027 18C1.56974 17.9998 1.63888 17.9902 1.70577 17.9715L5.27352 16.9545C5.77972 17.2319 6.31365 17.4554 6.86652 17.6212C7.67903 17.8726 8.52475 18.0003 9.37527 18C11.662 17.9974 13.8543 17.0879 15.4712 15.4709C17.0882 13.854 17.9977 11.6617 18.0003 9.37498Z" fill="white"/>
<path d="M23.221 22.2943L22.2048 18.7273C23.2427 16.8169 23.5196 14.5847 22.9799 12.4786C22.4401 10.3726 21.1236 8.54865 19.2948 7.37305C19.5952 8.8429 19.5646 10.3612 19.2051 11.8178C18.8455 13.2743 18.1662 14.6325 17.2162 15.7937C16.2663 16.9549 15.0697 17.89 13.7133 18.531C12.3569 19.1721 10.8748 19.503 9.37452 19.4998C8.70604 19.4977 8.03945 19.4286 7.38477 19.2935C8.16893 20.5015 9.24115 21.4955 10.5049 22.1861C11.7687 22.8767 13.1844 23.2422 14.6245 23.2498C16.0579 23.25 17.4684 22.8908 18.727 22.205L22.294 23.2213C22.3609 23.2401 22.43 23.2496 22.4995 23.2498C22.6156 23.2498 22.7301 23.2229 22.8339 23.1712C22.9378 23.1195 23.0283 23.0444 23.0982 22.9517C23.1682 22.8591 23.2157 22.7516 23.237 22.6375C23.2583 22.5234 23.2528 22.4059 23.221 22.2943Z" fill="white"/>
</g>
<defs>
<clipPath id="clip0_304_11629">
<rect width="24" height="24" fill="white"/>
</clipPath>
</defs>
</svg>
