<svg width="32" height="20" viewBox="0 0 32 20" fill="none" xmlns="http://www.w3.org/2000/svg">
<path d="M11.9046 9.81788L15.3392 19.3254H9.37234L7.27666 12.357L5.18098 12.5827V19.3254H0V0.36676H5.18098V8.23799L7.33487 7.98408L9.43055 0.36676H15.3392L11.9046 9.81788Z" fill="#F6EEFF"/>
<path d="M25.1306 19.6922C22.9961 19.6922 21.3274 19.3536 20.1243 18.6765C18.9406 17.9994 18.0965 16.9462 17.592 15.5168C17.0875 14.0685 16.8352 12.1313 16.8352 9.70503C16.8352 7.3352 17.1069 5.44497 17.6502 4.03436C18.1935 2.62374 19.0473 1.5987 20.2116 0.959219C21.3953 0.31974 22.967 0 24.9269 0C26.7315 0 28.7302 0.197486 30.9229 0.592459L31.9998 0.818158L31.8834 4.65503C29.8653 4.50456 28.0801 4.42933 26.5278 4.42933C25.1694 4.42933 24.1701 4.70205 23.5298 5.24749C22.9088 5.77412 22.5207 6.46062 22.3655 7.30699C22.2297 8.13455 22.1618 9.29125 22.1618 10.7771C22.1618 11.9996 22.2491 12.9306 22.4237 13.5701C22.6178 14.2096 22.9573 14.6704 23.4424 14.9525C23.947 15.2158 24.6746 15.3475 25.6254 15.3475H26.877V13.2034H26.1203V8.85866H31.9998V19.0715C28.8951 19.4853 26.6054 19.6922 25.1306 19.6922Z" fill="#F6EEFF"/>
</svg>
