<svg width="24" height="24" viewBox="0 0 24 24" fill="none" xmlns="http://www.w3.org/2000/svg">
<path d="M20 1H4C3.46957 1 2.96086 1.21071 2.58579 1.58579C2.21071 1.96086 2 2.46957 2 3V7C2 7.53043 2.21071 8.03914 2.58579 8.41421C2.96086 8.78929 3.46957 9 4 9C4.53043 9 5.03914 8.78929 5.41421 8.41421C5.78929 8.03914 6 7.53043 6 7V5H10V19H8C7.46957 19 6.96086 19.2107 6.58579 19.5858C6.21071 19.9609 6 20.4696 6 21C6 21.5304 6.21071 22.0391 6.58579 22.4142C6.96086 22.7893 7.46957 23 8 23H16C16.5304 23 17.0391 22.7893 17.4142 22.4142C17.7893 22.0391 18 21.5304 18 21C18 20.4696 17.7893 19.9609 17.4142 19.5858C17.0391 19.2107 16.5304 19 16 19H14V5H18V7C18 7.53043 18.2107 8.03914 18.5858 8.41421C18.9609 8.78929 19.4696 9 20 9C20.5304 9 21.0391 8.78929 21.4142 8.41421C21.7893 8.03914 22 7.53043 22 7V3C22 2.46957 21.7893 1.96086 21.4142 1.58579C21.0391 1.21071 20.5304 1 20 1Z" fill="#464366"/>
</svg>
