<svg width="38" height="38" viewBox="0 0 38 38" fill="none" xmlns="http://www.w3.org/2000/svg">
<path d="M4.08496 19.0002C4.08496 25.9413 9.07398 32.1337 15.8676 33.5857C19.2622 34.3111 22.8718 33.8225 25.9433 32.204C28.8993 30.6464 31.2884 28.0928 32.6423 25.0376C34.051 21.8597 34.2965 18.2113 33.3358 14.8711C32.4094 11.6487 30.376 8.79149 27.6465 6.84626C21.94 2.77913 13.9247 3.3229 8.81102 8.10786C5.81434 10.9119 4.08496 14.8954 4.08496 19.0002ZM11.8544 18.1946L16.0196 14.0298C17.0593 12.9901 18.6716 14.6024 17.6316 15.6421L15.5393 17.734L25.2133 17.734C25.9034 17.734 26.4795 18.3105 26.4795 19.0006C26.4795 19.6906 25.9034 20.2671 25.2133 20.2671L15.491 20.2671L17.5423 22.3681C18.5679 23.4177 16.9407 25.0152 15.9109 23.9607L11.8449 19.7967C11.4087 19.3505 11.4129 18.6361 11.8544 18.1946Z" fill="#A5A5A5"/>
</svg>
