<svg width="28" height="28" viewBox="0 0 28 28" fill="none" xmlns="http://www.w3.org/2000/svg">
<g clip-path="url(#clip0_304_10992)">
<path d="M13.9999 26.3824C21.2852 26.3824 27.1911 20.4765 27.1911 13.1912C27.1911 5.9059 21.2852 0 13.9999 0C6.71462 0 0.808716 5.9059 0.808716 13.1912C0.808716 20.4765 6.71462 26.3824 13.9999 26.3824Z" fill="#FDDF6D"/>
<path d="M16.8273 24.4341C9.54198 24.4341 3.63612 18.5283 3.63612 11.243C3.63612 7.35071 5.32224 3.85274 8.00345 1.43823C3.73291 3.62174 0.809326 8.0646 0.809326 13.1903C0.809326 20.4756 6.71518 26.3815 14.0005 26.3815C17.3935 26.3815 20.4869 25.1 22.8242 22.9952C21.025 23.9151 18.9867 24.4341 16.8273 24.4341Z" fill="#FCC56B"/>
<path d="M16.7646 14.1953C19.6119 14.1953 21.9201 16.5035 21.9201 19.3507V20.9187H11.6093V19.3507C11.6093 16.5034 13.9173 14.1953 16.7646 14.1953Z" fill="#7F184C"/>
<path d="M13.6696 16.0461H20.2359C20.3686 16.0461 20.4912 15.9906 20.5917 15.8972C19.6482 14.8523 18.2832 14.1953 16.7644 14.1953C15.3569 14.1953 14.0818 14.7599 13.1515 15.6743C13.2605 15.8976 13.4516 16.0461 13.6696 16.0461Z" fill="#F2F2F2"/>
<path d="M19.6929 19.1116H15.9409L14.8555 19.1178C14.1308 19.1526 13.2289 19.3585 13.2289 20.9184C14.1888 20.9133 13.9708 20.9188 14.7009 20.8989C15.2144 20.885 15.9408 21.6761 15.9408 22.1621V25.0041C15.9408 26.6589 17.2824 28.0004 18.9371 28.0004C20.592 28.0004 21.9334 26.6588 21.9334 25.0041V21.3523C21.9336 20.1147 20.9304 19.1116 19.6929 19.1116Z" fill="#FC4C59"/>
<path d="M18.9255 26.7965C18.6291 26.7965 18.3889 26.5563 18.3889 26.2598V21.1608C18.3889 21.0973 18.2343 20.9439 18.1254 20.8837C17.8661 20.7403 17.7722 20.4137 17.9157 20.1544C18.0591 19.895 18.3858 19.8012 18.645 19.9446C18.7286 19.9908 19.4621 20.4181 19.4621 21.1609V26.2599C19.4622 26.5563 19.222 26.7965 18.9255 26.7965Z" fill="#BC3B4A"/>
<path d="M10.478 11.2964C10.3407 11.2964 10.2033 11.244 10.0985 11.1393C9.88889 10.9296 9.88889 10.5899 10.0985 10.3803L12.8981 7.58071C13.1077 7.37121 13.4475 7.37121 13.657 7.58071C13.8666 7.79039 13.8666 8.1301 13.657 8.33966L10.8574 11.1393C10.7527 11.2439 10.6153 11.2964 10.478 11.2964Z" fill="#7F184C"/>
<path d="M13.2766 11.2964C13.1393 11.2964 13.0019 11.244 12.8971 11.1393L10.0975 8.33966C9.88792 8.12999 9.88792 7.79028 10.0975 7.58071C10.3072 7.37121 10.6469 7.37121 10.8564 7.58071L13.656 10.3803C13.8656 10.59 13.8656 10.9297 13.656 11.1393C13.5513 11.2439 13.4139 11.2964 13.2766 11.2964Z" fill="#7F184C"/>
<path d="M23.4368 11.2964C23.2995 11.2964 23.1621 11.244 23.0573 11.1393L20.2576 8.33966C20.0481 8.12999 20.0481 7.79028 20.2576 7.58071C20.4673 7.37121 20.807 7.37121 21.0166 7.58071L23.8162 10.3803C24.0258 10.59 24.0258 10.9297 23.8162 11.1393C23.7115 11.2439 23.5741 11.2964 23.4368 11.2964Z" fill="#7F184C"/>
<path d="M20.6372 11.2964C20.4998 11.2964 20.3625 11.244 20.2576 11.1393C20.0481 10.9296 20.0481 10.5899 20.2576 10.3803L23.0573 7.58071C23.2669 7.37121 23.6067 7.37121 23.8162 7.58071C24.0258 7.79039 24.0258 8.1301 23.8162 8.33966L21.0166 11.1393C20.9119 11.2439 20.7745 11.2964 20.6372 11.2964Z" fill="#7F184C"/>
<path d="M19.5218 4.94433C19.7532 4.12683 18.754 3.12828 17.2901 2.71401C15.8263 2.29973 14.452 2.62661 14.2207 3.44411C13.9893 4.26161 14.9885 5.26015 16.4523 5.67443C17.9162 6.0887 19.2905 5.76183 19.5218 4.94433Z" fill="#FCEB88"/>
</g>
<defs>
<clipPath id="clip0_304_10992">
<rect width="28" height="28" fill="white"/>
</clipPath>
</defs>
</svg>
