<svg width="105" height="56" viewBox="0 0 105 56" fill="none" xmlns="http://www.w3.org/2000/svg">
<path d="M103.534 41.7596C101.929 40.7773 100.169 40.023 98.3002 39.542C97.819 37.6726 97.0647 35.913 96.0824 34.308C94.8863 32.3536 92.0859 32.3536 90.8901 34.308C89.9078 35.913 89.1535 37.6729 88.6722 39.542C86.8031 40.0233 85.0435 40.7773 83.4382 41.7596C82.4611 42.3576 81.9723 43.3567 81.9723 44.3557C81.9723 45.3548 82.4608 46.3538 83.4382 46.9519C85.0432 47.9341 86.8005 48.6911 88.6699 49.1723C89.1512 51.0415 89.9078 52.7988 90.8901 54.4038C92.0859 56.3581 94.8863 56.3581 96.0824 54.4038C97.0647 52.7988 97.8177 51.0425 98.2993 49.1733C100.168 48.6921 101.929 47.9345 103.534 46.9522C105.489 45.7558 105.489 42.9557 103.534 41.7596Z" fill="#FFCE71"/>
<path d="M21.562 8.91737C19.957 7.93509 18.1971 7.18079 16.3279 6.69985C15.8467 4.83037 15.0924 3.07076 14.1101 1.46576C12.914 -0.488588 10.1135 -0.488588 8.91778 1.46576C7.9355 3.07076 7.1812 4.8307 6.69993 6.69985C4.83078 7.18112 3.07117 7.93509 1.46584 8.91737C0.488833 9.51542 0 10.5145 0 11.5135C0 12.5126 0.488504 13.5116 1.46584 14.1097C3.07084 15.092 4.83144 15.8495 6.70092 16.3308C7.18219 18.2 7.9355 19.9563 8.91778 21.5613C10.1135 23.5156 12.914 23.5156 14.1101 21.5613C15.0924 19.9563 15.8453 18.2 16.3269 16.3308C18.1961 15.8495 19.957 15.092 21.5617 14.1097C23.516 12.9136 23.5164 10.1135 21.562 8.91737Z" fill="#FFCE71"/>
</svg>
