<svg width="1393" height="692" viewBox="0 0 1393 692" fill="none" xmlns="http://www.w3.org/2000/svg">
<rect x="1" y="569" width="176" height="122" rx="13" stroke="#1E1C3A" stroke-width="2"/>
<rect x="203" y="569" width="177" height="122" rx="13" stroke="#1E1C3A" stroke-width="2"/>
<rect x="406" y="569" width="176" height="122" rx="13" stroke="#1E1C3A" stroke-width="2"/>
<rect x="607" y="568" width="179" height="124" rx="14" fill="#0D0B21"/>
<rect x="810" y="568" width="178" height="124" rx="14" fill="#0D0B21"/>
<rect x="1012" y="568" width="179" height="124" rx="14" fill="#0D0B21"/>
<rect x="1215" y="568" width="178" height="124" rx="14" fill="#0D0B21"/>
<rect x="1" y="427" width="176" height="122" rx="13" stroke="#1E1C3A" stroke-width="2"/>
<rect x="203" y="427" width="177" height="122" rx="13" stroke="#1E1C3A" stroke-width="2"/>
<rect x="406" y="427" width="176" height="122" rx="13" stroke="#1E1C3A" stroke-width="2"/>
<rect x="608" y="427" width="177" height="122" rx="13" stroke="#1E1C3A" stroke-width="2"/>
<rect x="811" y="427" width="176" height="122" rx="13" fill="#1D133A" stroke="#6418C3" stroke-width="2"/>
<rect x="1013" y="427" width="177" height="122" rx="13" stroke="#1E1C3A" stroke-width="2"/>
<rect x="1216" y="427" width="176" height="122" rx="13" stroke="#1E1C3A" stroke-width="2"/>
<rect x="1" y="285" width="176" height="122" rx="13" stroke="#1E1C3A" stroke-width="2"/>
<rect x="203" y="285" width="177" height="122" rx="13" stroke="#1E1C3A" stroke-width="2"/>
<rect x="406" y="285" width="176" height="122" rx="13" stroke="#1E1C3A" stroke-width="2"/>
<rect x="608" y="285" width="177" height="122" rx="13" stroke="#1E1C3A" stroke-width="2"/>
<rect x="811" y="285" width="176" height="122" rx="13" stroke="#1E1C3A" stroke-width="2"/>
<rect x="1013" y="285" width="177" height="122" rx="13" stroke="#1E1C3A" stroke-width="2"/>
<rect x="1216" y="285" width="176" height="122" rx="13" stroke="#1E1C3A" stroke-width="2"/>
<rect x="1" y="143" width="176" height="122" rx="13" stroke="#1E1C3A" stroke-width="2"/>
<rect x="203" y="143" width="177" height="122" rx="13" stroke="#1E1C3A" stroke-width="2"/>
<rect x="406" y="143" width="176" height="122" rx="13" stroke="#1E1C3A" stroke-width="2"/>
<rect x="608" y="143" width="177" height="122" rx="13" stroke="#1E1C3A" stroke-width="2"/>
<rect x="811" y="143" width="176" height="122" rx="13" stroke="#1E1C3A" stroke-width="2"/>
<rect x="1013" y="143" width="177" height="122" rx="13" stroke="#1E1C3A" stroke-width="2"/>
<rect x="1216" y="143" width="176" height="122" rx="13" stroke="#1E1C3A" stroke-width="2"/>
<rect width="178" height="124" rx="14" fill="#0D0B21"/>
<rect x="203" y="1" width="177" height="122" rx="13" stroke="#1E1C3A" stroke-width="2"/>
<rect x="406" y="1" width="176" height="122" rx="13" stroke="#1E1C3A" stroke-width="2"/>
<rect x="608" y="1" width="177" height="122" rx="13" stroke="#1E1C3A" stroke-width="2"/>
<rect x="811" y="1" width="176" height="122" rx="13" stroke="#1E1C3A" stroke-width="2"/>
<rect x="1013" y="1" width="177" height="122" rx="13" stroke="#1E1C3A" stroke-width="2"/>
<rect x="1216" y="1" width="176" height="122" rx="13" stroke="#1E1C3A" stroke-width="2"/>
</svg>
