<svg width="28" height="28" viewBox="0 0 28 28" fill="none" xmlns="http://www.w3.org/2000/svg">
<path d="M14.0002 15.1668C14.6445 15.1668 15.1668 14.6445 15.1668 14.0002C15.1668 13.3558 14.6445 12.8335 14.0002 12.8335C13.3558 12.8335 12.8335 13.3558 12.8335 14.0002C12.8335 14.6445 13.3558 15.1668 14.0002 15.1668Z" fill="#464366"/>
<path d="M21 2.3335H7C6.07258 2.3362 5.18391 2.70582 4.52812 3.36161C3.87233 4.01741 3.50271 4.90607 3.5 5.8335V22.1668C3.50271 23.0943 3.87233 23.9829 4.52812 24.6387C5.18391 25.2945 6.07258 25.6641 7 25.6668H21C21.9274 25.6641 22.8161 25.2945 23.4719 24.6387C24.1277 23.9829 24.4973 23.0943 24.5 22.1668V5.8335C24.4973 4.90607 24.1277 4.01741 23.4719 3.36161C22.8161 2.70582 21.9274 2.3362 21 2.3335ZM14 17.5002C13.1749 17.5015 12.376 17.2108 11.7447 16.6795C11.1133 16.1483 10.6904 15.4108 10.5507 14.5976C10.4109 13.7844 10.5635 12.948 10.9813 12.2365C11.399 11.525 12.0551 10.9843 12.8333 10.7102V7.00016H5.83333V5.8335C5.83426 5.52436 5.95747 5.22815 6.17606 5.00956C6.39465 4.79097 6.69086 4.66775 7 4.66683H21C21.3091 4.66775 21.6053 4.79097 21.8239 5.00956C22.0425 5.22815 22.1657 5.52436 22.1667 5.8335V7.00016H15.1667V10.7102C15.9449 10.9843 16.601 11.525 17.0187 12.2365C17.4365 12.948 17.5891 13.7844 17.4493 14.5976C17.3096 15.4108 16.8867 16.1483 16.2553 16.6795C15.624 17.2108 14.8251 17.5015 14 17.5002Z" fill="#464366"/>
</svg>
