<svg width="38" height="38" viewBox="0 0 38 38" fill="none" xmlns="http://www.w3.org/2000/svg">
<path d="M18.9998 4.08496C12.0587 4.08496 5.86626 9.07398 4.41428 15.8676C3.68886 19.2622 4.17754 22.8718 5.79596 25.9433C7.35358 28.8993 9.90718 31.2884 12.9624 32.6423C16.1403 34.051 19.7887 34.2965 23.1289 33.3358C26.3513 32.4094 29.2085 30.376 31.1537 27.6465C35.2209 21.94 34.6771 13.9247 29.8921 8.81102C27.0881 5.81434 23.1046 4.08496 18.9998 4.08496ZM19.8054 11.8544L23.9702 16.0196C25.0099 17.0593 23.3976 18.6716 22.3579 17.6316L20.266 15.5393V25.2133C20.266 25.9034 19.6895 26.4795 18.9994 26.4795C18.3094 26.4795 17.7329 25.9034 17.7329 25.2133V15.491L15.6319 17.5423C14.5823 18.5679 12.9848 16.9407 14.0393 15.9109L18.2033 11.8449C18.6495 11.4087 19.3639 11.4129 19.8054 11.8544Z" fill="#38E25D"/>
</svg>
