<svg width="24" height="24" viewBox="0 0 24 24" fill="none" xmlns="http://www.w3.org/2000/svg">
<path d="M12.0051 0H11.9949C6.48367 0 2 4.11937 2 9.18281C2 11.1502 2.70571 13.1017 3.98704 14.6778L11.5654 24H12.4346L20.013 14.6779C21.2943 13.1017 22 11.1502 22 9.18281C22 4.11937 17.5163 0 12.0051 0ZM12 11.7656C10.312 11.7656 8.93878 10.5039 8.93878 8.95312C8.93878 7.40231 10.312 6.14062 12 6.14062C13.688 6.14062 15.0612 7.40231 15.0612 8.95312C15.0612 10.5039 13.688 11.7656 12 11.7656Z" fill="#A5A5A5"/>
</svg>
