<svg width="28" height="28" viewBox="0 0 28 28" fill="none" xmlns="http://www.w3.org/2000/svg">
<g clip-path="url(#clip0_304_10936)">
<path d="M14 27.9999C21.7319 27.9999 27.9999 21.7319 27.9999 14C27.9999 6.268 21.7319 0 14 0C6.268 0 0 6.268 0 14C0 21.7319 6.268 27.9999 14 27.9999Z" fill="#FDDF6D"/>
<path d="M17 25.9332C9.26806 25.9332 3.00008 19.6652 3.00008 11.9333C3.00008 7.80237 4.78956 4.08993 7.63521 1.52734C3.10284 3.84477 0 8.56 0 14C0 21.732 6.26797 27.9999 13.9999 27.9999C17.601 27.9999 20.8841 26.6399 23.3647 24.406C21.4552 25.3823 19.292 25.9332 17 25.9332Z" fill="#FCC56B"/>
<path d="M17.3777 22.6612C18.8519 22.6612 20.0469 21.4662 20.0469 19.992C20.0469 18.5178 18.8519 17.3228 17.3777 17.3228C15.9035 17.3228 14.7085 18.5178 14.7085 19.992C14.7085 21.4662 15.9035 22.6612 17.3777 22.6612Z" fill="#7F184C"/>
<path d="M24.288 15.1078C22.1731 15.1078 19.7181 13.662 19.2286 11.1694C19.0103 10.0583 19.2005 8.82612 19.7502 7.7886C20.3579 6.64165 21.3245 5.87521 22.4717 5.63059C23.6671 5.37564 25.0075 5.69272 26.0573 6.47846C26.9642 7.15718 27.5049 8.0756 27.58 9.06439C27.6535 10.0344 27.26 11.0928 26.5274 11.8955C25.8618 12.6249 24.9957 13.0508 24.1511 13.064C23.1977 13.076 22.236 12.596 21.636 11.8039C21.4376 11.5419 20.8088 10.5962 21.0481 9.42708C21.0948 9.19887 21.2189 8.59261 21.7635 8.11273C22.3183 7.62416 22.9637 7.57007 23.221 7.57007C23.2227 7.57007 23.2245 7.57007 23.2262 7.57007C24.4804 7.57395 25.4194 8.52813 25.5097 9.41691C25.5201 9.51873 25.5903 10.4257 24.8738 10.9003C24.4662 11.1704 23.8276 11.2751 23.32 10.9003C22.9206 10.6052 22.722 10.0844 22.8142 9.57348C22.8701 9.26389 23.1663 9.05854 23.4759 9.1141C23.7854 9.16999 23.9911 9.46623 23.9352 9.77576C23.9197 9.86162 23.9444 9.94535 23.9967 9.9839C24.0568 10.0285 24.1815 9.99249 24.2447 9.95065C24.3763 9.86348 24.3819 9.59623 24.3762 9.52951C24.3352 9.12603 23.753 8.71073 23.2228 8.70909C23.2221 8.70909 23.2214 8.70909 23.2206 8.70909C23.1214 8.70909 22.7878 8.7284 22.5165 8.96743C22.2584 9.19477 22.197 9.49429 22.1641 9.65529C22.017 10.3739 22.4548 10.9982 22.544 11.1161C22.9231 11.6165 23.5457 11.9331 24.1334 11.9249C24.6652 11.9166 25.2312 11.6259 25.686 11.1275C26.2109 10.5523 26.4944 9.81311 26.4442 9.15042C26.3944 8.49423 26.0146 7.86921 25.3748 7.39026C24.5961 6.80746 23.5746 6.55994 22.7092 6.74446C21.8973 6.91754 21.2038 7.4777 20.7567 8.3218C20.3334 9.12072 20.18 10.1031 20.3463 10.9497C20.5232 11.8506 21.0797 12.6573 21.9132 13.2212C22.6921 13.7481 23.6371 14.0174 24.5058 13.9616C24.82 13.9413 25.0907 14.1792 25.111 14.4931C25.1313 14.807 24.8935 15.0779 24.5795 15.0983C24.4834 15.1047 24.3858 15.1078 24.288 15.1078Z" fill="#7F184C"/>
<path d="M13.7529 15.1078C11.638 15.1078 9.18299 13.662 8.69349 11.1694C8.47534 10.0583 8.66538 8.82612 9.21509 7.7886C9.82283 6.64154 10.7894 5.87521 11.9367 5.63059C13.1321 5.37564 14.4725 5.69272 15.5223 6.47846C16.4291 7.15729 16.9699 8.0756 17.0448 9.06439C17.1184 10.0344 16.7249 11.0927 15.9923 11.8954C15.3266 12.6248 14.4606 13.0508 13.616 13.064C12.6658 13.0778 11.7009 12.596 11.1009 11.8039C10.9025 11.542 10.2737 10.5966 10.513 9.42708C10.5597 9.19871 10.6839 8.59245 11.2285 8.11273C11.7833 7.62416 12.4286 7.57007 12.6859 7.57007C12.6876 7.57007 12.6894 7.57007 12.6911 7.57007C13.9453 7.57395 14.8843 8.52813 14.9746 9.41691C14.985 9.51873 15.0552 10.4257 14.3388 10.9003C13.9311 11.1705 13.2924 11.2752 12.7848 10.9003C12.3854 10.6052 12.1868 10.0845 12.2791 9.57348C12.335 9.26389 12.6312 9.05854 12.9408 9.1141C13.2503 9.16999 13.4559 9.46623 13.4 9.77576C13.3845 9.86162 13.4092 9.94524 13.4615 9.9839C13.5218 10.0283 13.6464 9.99243 13.7097 9.95065C13.8412 9.86348 13.8468 9.59623 13.8411 9.52951C13.8001 9.12603 13.2179 8.71073 12.6877 8.70909C12.5917 8.71177 12.2548 8.72648 11.9813 8.96743C11.7233 9.19471 11.662 9.49429 11.629 9.65534C11.4819 10.3741 11.9197 10.9982 12.0089 11.1159C12.388 11.6165 13.0099 11.933 13.5982 11.9248C14.1301 11.9165 14.696 11.6258 15.1509 11.1274C15.6759 10.5522 15.9593 9.813 15.909 9.15031C15.8592 8.49412 15.4795 7.8691 14.8397 7.39015C14.061 6.80735 13.0395 6.55984 12.1742 6.74435C11.3622 6.91743 10.6687 7.47759 10.2216 8.32169C9.79833 9.12061 9.64493 10.103 9.81118 10.9496C9.9881 11.8505 10.5446 12.6572 11.378 13.2211C12.1569 13.748 13.1022 14.0179 13.9706 13.9615C14.2847 13.9412 14.5554 14.1791 14.5758 14.493C14.5962 14.8069 14.3583 15.0778 14.0443 15.0982C13.9483 15.1047 13.8507 15.1078 13.7529 15.1078Z" fill="#7F184C"/>
<path d="M19.6023 4.86794C19.8478 4.00035 18.7874 2.9406 17.2338 2.50093C15.6802 2.06126 14.2217 2.40817 13.9762 3.27576C13.7307 4.14336 14.7911 5.2031 16.3447 5.64277C17.8983 6.08244 19.3568 5.73554 19.6023 4.86794Z" fill="#FCEB88"/>
</g>
<defs>
<clipPath id="clip0_304_10936">
<rect width="28" height="28" fill="white"/>
</clipPath>
</defs>
</svg>
