<svg width="24" height="24" viewBox="0 0 24 24" fill="none" xmlns="http://www.w3.org/2000/svg">
<path d="M22.4051 7.48914C22.4078 8.47301 22.2152 9.44764 21.8387 10.3566C21.4621 11.2656 20.909 12.0908 20.2114 12.7846L10.7554 22.2405C9.74857 23.246 8.38367 23.8106 6.96073 23.8101C5.53778 23.8096 4.17325 23.2442 3.16708 22.238C2.16091 21.2318 1.59544 19.8673 1.59497 18.4443C1.5945 17.0214 2.15907 15.6565 3.16458 14.6497L12.7383 5.07617C13.0394 4.77284 13.3973 4.53194 13.7916 4.36727C14.186 4.20261 14.609 4.11743 15.0363 4.11661C15.4636 4.1158 15.8869 4.19937 16.2819 4.36254C16.6769 4.5257 17.0357 4.76524 17.3379 5.06742C17.6401 5.3696 17.8796 5.72847 18.0428 6.12344C18.2059 6.51841 18.2895 6.94171 18.2887 7.36905C18.2878 7.79639 18.2026 8.21936 18.038 8.6137C17.8733 9.00804 17.6324 9.36598 17.329 9.66699L10.0753 16.9205C10.005 16.9909 9.90965 17.0304 9.8102 17.0304C9.71075 17.0304 9.61538 16.9909 9.54506 16.9205L8.48452 15.86C8.4142 15.7897 8.3747 15.6943 8.3747 15.5949C8.3747 15.4954 8.4142 15.4 8.48452 15.3297L15.7383 8.07617C15.8308 7.98364 15.9042 7.8738 15.9543 7.7529C16.0043 7.63201 16.0301 7.50244 16.0301 7.37158C16.0301 7.24073 16.0043 7.11115 15.9543 6.99026C15.9042 6.86937 15.8308 6.75952 15.7383 6.66699C15.5481 6.48642 15.2959 6.38574 15.0337 6.38574C14.7714 6.38574 14.5192 6.48642 14.329 6.66699L4.75529 16.2405C4.1706 16.8252 3.84213 17.6182 3.84214 18.4451C3.84215 19.272 4.17064 20.065 4.75535 20.6497C5.34006 21.2344 6.13309 21.5629 6.95998 21.5629C7.78687 21.5629 8.57989 21.2344 9.16458 20.6497L18.6207 11.1939C19.6032 10.2113 20.1552 8.87873 20.1552 7.48921C20.1552 6.09968 19.6032 4.76708 18.6207 3.78454C17.6381 2.802 16.3055 2.25002 14.916 2.25002C13.5265 2.25003 12.1939 2.80201 11.2113 3.78456L7.07534 7.92054C7.00502 7.99086 6.90964 8.03036 6.8102 8.03036C6.71075 8.03036 6.61538 7.99086 6.54505 7.92054L5.48452 6.86001C5.4142 6.78968 5.3747 6.69431 5.3747 6.59486C5.3747 6.49542 5.4142 6.40004 5.48452 6.32972L9.62051 2.19388C10.6679 1.14657 12.0023 0.433347 13.455 0.144391C14.9076 -0.144566 16.4134 0.00372455 17.7818 0.57051C19.1502 1.1373 20.3199 2.09712 21.1428 3.32862C21.9657 4.56012 22.405 6.00799 22.4051 7.48914Z" fill="#6418C3"/>
</svg>
