<svg width="28" height="28" viewBox="0 0 28 28" fill="none" xmlns="http://www.w3.org/2000/svg">
<path d="M7.13701 0.73649C6.15502 -0.245497 4.56286 -0.245497 3.58121 0.73649L0.73649 3.5812C-0.245497 4.56319 -0.245497 6.15535 0.73649 7.137C1.22732 7.62783 1.87103 7.87357 2.5144 7.87357C3.15777 7.87357 3.80148 7.62816 4.2923 7.137L7.13701 4.29229C8.11933 3.31064 8.11933 1.71848 7.13701 0.73649Z" fill="#313D40"/>
<path d="M27.2636 20.8626C26.2816 19.881 24.6895 19.881 23.7078 20.8626L20.8631 23.7073C19.8811 24.6897 19.8811 26.2815 20.8631 27.2635C21.3539 27.7543 21.9977 27.9997 22.641 27.9997C23.2844 27.9997 23.9281 27.7543 24.4189 27.2635L27.2636 24.4188C28.2456 23.4368 28.2456 21.8449 27.2636 20.8626Z" fill="#313D40"/>
<path d="M16.3929 16.7321C15.0043 16.8273 13.6438 16.3194 12.6621 15.3377C11.6805 14.3561 11.1722 12.9966 11.2678 11.6069C11.363 10.2216 10.317 9.02135 8.93165 8.92614C7.54266 8.82992 6.34578 9.87694 6.25056 11.2626C6.05544 14.1029 7.09643 16.8846 9.106 18.8939C10.9556 20.7438 13.459 21.7728 16.0604 21.7728C16.2853 21.7728 16.5116 21.7651 16.7379 21.7496C18.1232 21.6544 19.1693 20.4542 19.074 19.0685C18.9788 17.6829 17.7806 16.6412 16.3929 16.7321Z" fill="#313D40"/>
</svg>
