<svg width="113" height="64" viewBox="0 0 113 64" fill="none" xmlns="http://www.w3.org/2000/svg">
<path d="M15.5577 6.55065H13.5925C12.2359 6.55065 11.136 7.65018 11.136 9.00717C11.136 10.3641 12.2359 11.4637 13.5925 11.4637H15.5577C16.9144 11.4637 18.0143 10.3641 18.0143 9.00717C18.0143 7.65018 16.9144 6.55065 15.5577 6.55065Z" fill="#FFB357"/>
<path d="M4.42174 6.55065H2.45652C1.09987 6.55065 0 7.65018 0 9.00717C0 10.3641 1.09987 11.4637 2.45652 11.4637H4.42174C5.77839 11.4637 6.87826 10.3641 6.87826 9.00717C6.87826 7.65018 5.77839 6.55065 4.42174 6.55065Z" fill="#FFB357"/>
<path d="M9.00741 11.136C7.65076 11.136 6.55089 12.2355 6.55089 13.5925V15.5577C6.55089 16.9147 7.65076 18.0143 9.00741 18.0143C10.3641 18.0143 11.4639 16.9147 11.4639 15.5577V13.5925C11.4639 12.2355 10.3641 11.136 9.00741 11.136Z" fill="#FFB357"/>
<path d="M9.00741 6.87826C10.3641 6.87826 11.4639 5.77872 11.4639 4.42174V2.45652C11.4639 1.09987 10.3641 0 9.00741 0C7.65076 0 6.55089 1.09987 6.55089 2.45652V4.42174C6.55089 5.77872 7.65076 6.87826 9.00741 6.87826Z" fill="#FFB357"/>
<path d="M110.544 52.4057H108.578C107.222 52.4057 106.122 53.5052 106.122 54.8622C106.122 56.2192 107.222 57.3187 108.578 57.3187H110.544C111.9 57.3187 113 56.2192 113 54.8622C113 53.5052 111.9 52.4057 110.544 52.4057Z" fill="#FFB357"/>
<path d="M99.4068 52.4057H97.4416C96.085 52.4057 94.9851 53.5052 94.9851 54.8622C94.9851 56.2192 96.085 57.3187 97.4416 57.3187H99.4068C100.764 57.3187 101.863 56.2192 101.863 54.8622C101.863 53.5052 100.764 52.4057 99.4068 52.4057Z" fill="#FFB357"/>
<path d="M103.993 56.9913C102.636 56.9913 101.536 58.0908 101.536 59.4478V61.413C101.536 62.77 102.636 63.8695 103.993 63.8695C105.349 63.8695 106.449 62.77 106.449 61.413V59.4478C106.449 58.0908 105.349 56.9913 103.993 56.9913Z" fill="#FFB357"/>
<path d="M103.993 52.7333C105.349 52.7333 106.449 51.6337 106.449 50.2767V48.3115C106.449 46.9546 105.349 45.855 103.993 45.855C102.636 45.855 101.536 46.9546 101.536 48.3115V50.2767C101.536 51.6337 102.636 52.7333 103.993 52.7333Z" fill="#FFB357"/>
</svg>
