<svg width="108" height="18" viewBox="0 0 108 18" fill="none" xmlns="http://www.w3.org/2000/svg">
<path d="M1.64419 0.563723L8.12701 15.3615L14.5629 0.563723H16.207V17.7103H14.3749V4.97956L8.78469 17.7103H7.42236L1.78512 5.07351L1.8321 17.7103H0V0.563723H1.64419ZM28.9378 7.70422V5.59026H30.8639V17.7103H28.9378V15.5024C28.2331 17.0526 26.7299 17.8982 24.8508 17.8982C21.6094 17.8982 19.4954 15.4084 19.4954 11.6503C19.4954 7.89213 21.6564 5.30839 24.8508 5.30839C26.7299 5.30839 28.1862 6.20096 28.9378 7.70422ZM28.9378 11.6033C28.9378 8.59678 27.6224 6.95259 25.2266 6.95259C22.8308 6.95259 21.4685 8.69074 21.4685 11.6503C21.4685 14.6098 22.8308 16.254 25.2266 16.254C27.6224 16.254 28.9378 14.5629 28.9378 11.6033ZM40.6351 5.44933L40.5881 7.23445C40.2592 7.1405 39.7895 7.04654 39.3197 7.04654C38.1453 7.04654 37.2997 7.42236 36.689 8.17399C36.1722 8.87864 35.8434 9.7712 35.8434 10.8047V17.7103H33.9174V9.01957C33.9174 7.7512 33.8234 6.62375 33.7294 5.59026H35.5615L35.7495 7.84515C36.3602 6.20096 37.8164 5.30839 39.5546 5.30839C39.9304 5.30839 40.3062 5.35537 40.6351 5.44933ZM50.2653 5.59026V7.1405H46.789V13.7642C46.789 15.5494 47.5876 16.207 48.903 16.207C49.3728 16.207 49.7956 16.1131 50.2184 15.9722V17.6164C49.7016 17.8043 49.1379 17.8982 48.5272 17.8982C46.2253 17.8982 44.863 16.5359 44.863 14.0461V7.1405H42.5141V5.59026H44.863V2.48978L46.789 1.8321V5.59026H50.2653ZM54.4933 2.67769H52.1444V0.469769H54.4933V2.67769ZM54.2584 5.59026V17.7103H52.3323V5.59026H54.2584ZM66.8012 7.70422V5.59026H68.7273V17.7103H66.8012V15.5024C66.0966 17.0526 64.5933 17.8982 62.7142 17.8982C59.4728 17.8982 57.3589 15.4084 57.3589 11.6503C57.3589 7.89213 59.5198 5.30839 62.7142 5.30839C64.5933 5.30839 66.0496 6.20096 66.8012 7.70422ZM66.8012 11.6033C66.8012 8.59678 65.4859 6.95259 63.09 6.95259C60.6942 6.95259 59.3319 8.69074 59.3319 11.6503C59.3319 14.6098 60.6942 16.254 63.09 16.254C65.4859 16.254 66.8012 14.5629 66.8012 11.6033ZM73.7068 0V17.7103H71.7808V0H73.7068ZM79.3441 0.563723L85.8269 15.3615L92.2627 0.563723H93.9069V17.7103H92.0748V4.97956L86.4846 17.7103H85.1222L79.485 5.07351L79.532 17.7103H77.6999V0.563723H79.3441ZM108 11.2275V11.6033H99.1683C99.1683 14.6568 100.578 16.254 103.255 16.254C104.665 16.254 105.98 15.7843 107.154 14.8447L107.812 16.254C106.732 17.2405 104.946 17.8982 103.255 17.8982C99.4502 17.8982 97.1953 15.5024 97.1953 11.6033C97.1953 7.89213 99.5441 5.30839 102.88 5.30839C106.074 5.30839 108 7.56329 108 11.2275ZM99.2153 10.3349H106.262C106.074 8.03306 104.9 6.85863 102.88 6.85863C100.86 6.85863 99.5911 8.12701 99.2153 10.3349Z" fill="white"/>
</svg>
