<svg width="26" height="26" viewBox="0 0 26 26" fill="none" xmlns="http://www.w3.org/2000/svg">
<path d="M21.2711 0H4.72692C4.44375 0.00326034 4.17117 0.1081 3.9588 0.295433C4.80153 0.59193 5.54299 1.12118 6.09724 1.82183C6.6515 2.52249 6.99584 3.36587 7.09038 4.25423C7.10845 4.41127 7.10845 4.56987 7.09038 4.72692V24.8163C7.08982 25.0424 7.15409 25.2638 7.27558 25.4544C7.39706 25.645 7.57066 25.7968 7.77578 25.8917C7.98139 25.9864 8.20985 26.02 8.43401 25.9886C8.65817 25.9571 8.86858 25.862 9.04023 25.7145L12.4082 22.831L15.7761 25.7145C15.9901 25.8975 16.2626 25.9981 16.5442 25.9981C16.8259 25.9981 17.0983 25.8975 17.3123 25.7145L20.6803 22.831L24.0482 25.7145C24.2623 25.8975 24.5347 25.9981 24.8163 25.9981C24.9873 25.9969 25.1562 25.9607 25.3127 25.8917C25.5178 25.7968 25.6914 25.645 25.8129 25.4544C25.9343 25.2638 25.9986 25.0424 25.9981 24.8163V4.72692C25.9981 3.47326 25.5 2.27095 24.6136 1.38448C23.7271 0.498014 22.5248 0 21.2711 0ZM20.0894 16.5442H12.999C12.6856 16.5442 12.385 16.4197 12.1634 16.1981C11.9418 15.9765 11.8173 15.6759 11.8173 15.3625C11.8173 15.0491 11.9418 14.7485 12.1634 14.5269C12.385 14.3053 12.6856 14.1808 12.999 14.1808H20.0894C20.4028 14.1808 20.7034 14.3053 20.925 14.5269C21.1466 14.7485 21.2711 15.0491 21.2711 15.3625C21.2711 15.6759 21.1466 15.9765 20.925 16.1981C20.7034 16.4197 20.4028 16.5442 20.0894 16.5442ZM20.0894 11.8173H12.999C12.6856 11.8173 12.385 11.6928 12.1634 11.4712C11.9418 11.2496 11.8173 10.949 11.8173 10.6356C11.8173 10.3222 11.9418 10.0216 12.1634 9.79996C12.385 9.57834 12.6856 9.45384 12.999 9.45384H20.0894C20.4028 9.45384 20.7034 9.57834 20.925 9.79996C21.1466 10.0216 21.2711 10.3222 21.2711 10.6356C21.2711 10.949 21.1466 11.2496 20.925 11.4712C20.7034 11.6928 20.4028 11.8173 20.0894 11.8173ZM20.0894 7.09038H12.999C12.6856 7.09038 12.385 6.96588 12.1634 6.74426C11.9418 6.52264 11.8173 6.22207 11.8173 5.90865C11.8173 5.59524 11.9418 5.29466 12.1634 5.07304C12.385 4.85142 12.6856 4.72692 12.999 4.72692H20.0894C20.4028 4.72692 20.7034 4.85142 20.925 5.07304C21.1466 5.29466 21.2711 5.59524 21.2711 5.90865C21.2711 6.22207 21.1466 6.52264 20.925 6.74426C20.7034 6.96588 20.4028 7.09038 20.0894 7.09038ZM4.72692 4.72692V14.1808H1.18173C0.868316 14.1808 0.567738 14.0563 0.346121 13.8346C0.124503 13.613 0 13.3124 0 12.999V4.72692C0 4.56148 0 4.40785 0 4.25423C0.0626829 3.6274 0.371805 3.05115 0.859363 2.65223C1.34692 2.25332 1.97298 2.06443 2.59981 2.12711C3.22663 2.1898 3.80289 2.49892 4.2018 2.98648C4.60071 3.47404 4.7896 4.10009 4.72692 4.72692Z" fill="#A5A5A5"/>
</svg>
