<svg width="40" height="40" viewBox="0 0 40 40" fill="none" xmlns="http://www.w3.org/2000/svg">
<path d="M18.4375 27.0297V21.561H12.9688C12.1057 21.561 11.4062 20.8615 11.4062 19.9985C11.4062 19.1357 12.1057 18.436 12.9688 18.436H18.4375V12.9672C18.4375 12.1045 19.137 11.4047 20 11.4047C20.863 11.4047 21.5625 12.1045 21.5625 12.9672V18.436H27.0312C27.8943 18.436 28.5938 19.1357 28.5938 19.9985C28.5938 20.8615 27.8943 21.561 27.0312 21.561H21.5625V27.0297C21.5625 27.8928 20.863 28.5922 20 28.5922C19.137 28.5922 18.4375 27.8928 18.4375 27.0297ZM34.1422 5.85785C30.3647 2.08038 25.3421 0 20 0C14.6579 0 9.63531 2.08038 5.85785 5.85785C2.08038 9.63531 0 14.6579 0 20C0 25.3421 2.08038 30.3647 5.85785 34.1422C9.63531 37.9196 14.6579 40 20 40C23.6572 40 27.2357 39.0033 30.3485 37.1176C31.0867 36.6705 31.3226 35.7098 30.8755 34.9719C30.4285 34.2337 29.4675 33.9978 28.7296 34.4449C26.105 36.0345 23.0862 36.875 20 36.875C10.6952 36.875 3.125 29.3048 3.125 20C3.125 10.6952 10.6952 3.125 20 3.125C29.3048 3.125 36.875 10.6952 36.875 20C36.875 23.3273 35.8856 26.5659 34.0137 29.3661C33.5339 30.0833 33.7268 31.0538 34.4443 31.5335C35.1614 32.0129 36.1319 31.8201 36.6116 31.1029C38.8281 27.7872 40 23.9478 40 20C40 14.6579 37.9196 9.63531 34.1422 5.85785Z" fill="#38E25D"/>
</svg>
