<svg width="162" height="50" viewBox="0 0 162 50" fill="none" xmlns="http://www.w3.org/2000/svg">
<rect width="162" height="50" fill="#15132B"/>
<g clip-path="url(#clip0_304_12889)">
<path d="M86.7969 36.8125H86.2493C86.2494 36.757 86.263 36.8531 86.0602 35.6375C86.047 35.5584 85.9785 35.5 85.8983 35.5H76.1017C76.0215 35.5 75.953 35.5584 75.9398 35.6375C75.7375 36.8504 75.7506 36.7576 75.7507 36.8125H75.2031C74.5387 36.8125 74 37.3512 74 38.0156V38.5625C74 38.8041 74.1959 39 74.4375 39H87.5625C87.8041 39 88 38.8041 88 38.5625V38.0156C88 37.3512 87.4613 36.8125 86.7969 36.8125Z" fill="#464366"/>
<path d="M72.5968 18.4046C72.1399 19.0769 71.4232 19.5584 70.5921 19.7035C70.5392 19.7127 70.5 19.7576 70.5 19.8114V27.6248H91.5V19.8114C91.5 19.7576 91.4608 19.7127 91.4079 19.7035C90.5768 19.5583 89.8601 19.0769 89.4032 18.4046C89.3595 18.3403 89.2657 18.34 89.2222 18.4044C87.9692 20.2596 85.1981 20.1798 84.0567 18.2526C84.016 18.184 83.9187 18.1801 83.8732 18.2457C82.4845 20.248 79.5176 20.2517 78.1267 18.2457C78.0813 18.1801 77.9839 18.184 77.9432 18.2526C76.8031 20.1773 74.0324 20.2625 72.7778 18.4045C72.7343 18.34 72.6405 18.3403 72.5968 18.4046ZM80.5625 21.0623H89.735C89.968 21.0623 90.1715 21.2382 90.1866 21.4708C90.203 21.7255 90.0012 21.9373 89.75 21.9373H80.5775C80.3445 21.9373 80.141 21.7615 80.1259 21.5289C80.1095 21.2742 80.3113 21.0623 80.5625 21.0623ZM80.5625 23.2498H89.735C89.968 23.2498 90.1715 23.4257 90.1866 23.6583C90.203 23.913 90.0012 24.1248 89.75 24.1248H80.5775C80.3445 24.1248 80.141 23.949 80.1259 23.7164C80.1095 23.4617 80.3113 23.2498 80.5625 23.2498ZM80.5625 25.4373H86.6725C86.9055 25.4373 87.109 25.6132 87.1241 25.8458C87.1405 26.1005 86.9387 26.3123 86.6875 26.3123H80.5775C80.3445 26.3123 80.141 26.1365 80.1259 25.9039C80.1095 25.6492 80.3113 25.4373 80.5625 25.4373ZM78.3741 23.2788C78.3591 23.5114 78.1557 23.6873 77.9226 23.6873C77.8927 23.6873 77.8672 23.7089 77.8623 23.7384L77.494 25.947C77.459 26.1576 77.2764 26.3123 77.0626 26.3123H73.5626C73.3487 26.3123 73.1661 26.1576 73.1311 25.947L72.7628 23.7384C72.7579 23.7089 72.7323 23.6873 72.7025 23.6873C72.4694 23.6873 72.266 23.5114 72.251 23.2788C72.2346 23.0239 72.4362 22.8123 72.6875 22.8123H73.5728C73.623 22.8123 73.6667 22.7782 73.6789 22.7295L74.0131 21.3938C74.0716 21.1591 74.3095 21.017 74.5436 21.0755C74.7782 21.134 74.9204 21.3713 74.8619 21.6059L74.5945 22.6764C74.5773 22.7455 74.6295 22.8123 74.7006 22.8123H75.9244C75.9955 22.8123 76.0478 22.7455 76.0305 22.6764L75.7631 21.6059C75.7046 21.3713 75.8468 21.134 76.0814 21.0755C76.316 21.017 76.5534 21.1591 76.6119 21.3938L76.9461 22.7295C76.9583 22.7782 77.002 22.8123 77.0522 22.8123H77.9375C78.1888 22.8123 78.3904 23.0239 78.3741 23.2788Z" fill="#464366"/>
<path d="M74.026 25.4375H76.5992C76.6527 25.4375 76.6983 25.3988 76.7071 25.3461L76.9627 23.8149C76.9738 23.7482 76.9223 23.6875 76.8548 23.6875H73.7705C73.703 23.6875 73.6515 23.7482 73.6626 23.8149L73.9182 25.3461C73.927 25.3988 73.9726 25.4375 74.026 25.4375Z" fill="#464366"/>
<path d="M92.375 28.0626C92.375 28.3042 92.1791 28.5001 91.9375 28.5001H70.0625C69.8209 28.5001 69.625 28.3042 69.625 28.0626V19.8116C69.625 19.7579 69.5858 19.713 69.5329 19.7038C68.9743 19.6063 68.4669 19.3567 68.056 18.9993C67.9851 18.9377 67.875 18.9877 67.875 19.0815V30.0861C67.875 30.1767 67.9484 30.2501 68.0391 30.2501H93.9609C94.0516 30.2501 94.125 30.1767 94.125 30.0861V19.0815C94.125 18.9877 94.0149 18.9377 93.944 18.9993C93.5331 19.3567 93.0257 19.6063 92.4671 19.7038C92.4142 19.713 92.375 19.7579 92.375 19.8116V28.0626Z" fill="#464366"/>
<path d="M84.5 16.6875C84.5 17.9112 85.5095 18.9032 86.7397 18.8744C87.9341 18.8465 88.875 17.8413 88.875 16.6465V16.4141C88.875 16.3234 88.8016 16.25 88.7109 16.25H84.6641C84.5734 16.25 84.5 16.3234 84.5 16.4141V16.6875Z" fill="#464366"/>
<path d="M88.7643 15.184L88.0894 11.1371C88.0762 11.058 88.0078 11 87.9276 11H84.2783C84.1824 11 84.1069 11.082 84.1148 11.1777L84.4523 15.2246C84.4594 15.3096 84.5304 15.375 84.6158 15.375H88.6024C88.7038 15.375 88.7809 15.2839 88.7643 15.184Z" fill="#464366"/>
<path d="M89.75 16.4141V16.6465C89.75 17.8413 90.6909 18.8465 91.8853 18.8744C93.1155 18.9032 94.125 17.9112 94.125 16.6875V16.4141C94.125 16.3234 94.0516 16.25 93.9609 16.25H89.9141C89.8234 16.25 89.75 16.3234 89.75 16.4141Z" fill="#464366"/>
<path d="M93.7279 15.375C93.8399 15.375 93.9189 15.2653 93.8835 15.159L92.5971 11.2991C92.5375 11.1203 92.3707 11 92.182 11H89.1475C89.0461 11 88.969 11.0911 88.9857 11.191L89.6605 15.2379C89.6737 15.317 89.7422 15.375 89.8223 15.375H93.7279Z" fill="#464366"/>
<path d="M80.9996 18.875C82.3893 18.875 83.53 17.7899 83.6191 16.4224C83.6251 16.3287 83.549 16.25 83.4551 16.25H78.5442C78.4503 16.25 78.3741 16.3287 78.3802 16.4224C78.4693 17.7899 79.61 18.875 80.9996 18.875Z" fill="#464366"/>
<path d="M83.0714 11H78.9283C78.843 11 78.7719 11.0654 78.7648 11.1504L78.4273 15.1973C78.4194 15.293 78.4949 15.375 78.5908 15.375H83.4088C83.5047 15.375 83.5802 15.293 83.5723 15.1973L83.2349 11.1504C83.2278 11.0654 83.1567 11 83.0714 11V11Z" fill="#464366"/>
<path d="M77.7215 11H74.0723C73.9922 11 73.9237 11.058 73.9105 11.1371L73.2357 15.184C73.219 15.284 73.2961 15.375 73.3975 15.375H77.3841C77.4694 15.375 77.5405 15.3096 77.5476 15.2246L77.885 11.1777C77.893 11.082 77.8175 11 77.7215 11V11Z" fill="#464366"/>
<path d="M75.3647 18.8744C76.5591 18.8465 77.5 17.8413 77.5 16.6465V16.4141C77.5 16.3234 77.4266 16.25 77.3359 16.25H73.2891C73.1984 16.25 73.125 16.3234 73.125 16.4141V16.6875C73.125 17.9112 74.1345 18.9032 75.3647 18.8744Z" fill="#464366"/>
<path d="M70.1147 18.8744C71.3091 18.8465 72.25 17.8413 72.25 16.6465V16.4141C72.25 16.3234 72.1766 16.25 72.0859 16.25H68.0391C67.9484 16.25 67.875 16.3234 67.875 16.4141V16.6875C67.875 17.9112 68.8845 18.9032 70.1147 18.8744Z" fill="#464366"/>
<path d="M73.0149 11.191C73.0315 11.0911 72.9544 11 72.853 11H69.8185C69.6298 11 69.463 11.1203 69.4034 11.2991L68.1169 15.159C68.0815 15.2653 68.1606 15.375 68.2726 15.375H72.1782C72.2584 15.375 72.3268 15.317 72.34 15.2379L73.0149 11.191Z" fill="#464366"/>
<path d="M67.875 32.875C67.875 33.8415 68.6585 34.625 69.625 34.625H92.375C93.3415 34.625 94.125 33.8415 94.125 32.875V31.2891C94.125 31.1984 94.0516 31.125 93.9609 31.125H68.0391C67.9484 31.125 67.875 31.1984 67.875 31.2891V32.875ZM80.5712 32.7895C80.6462 32.4056 81.1526 32.312 81.3636 32.632C81.4979 32.831 81.443 33.1066 81.2428 33.2385C80.9201 33.4563 80.4899 33.1656 80.5712 32.7895Z" fill="#464366"/>
</g>
<defs>
<clipPath id="clip0_304_12889">
<rect width="28" height="28" fill="white" transform="translate(67 11)"/>
</clipPath>
</defs>
</svg>
