<svg width="9" height="17" viewBox="0 0 9 17" fill="none" xmlns="http://www.w3.org/2000/svg">
<path d="M0 17L0.101695 16.4599L0.737288 16.2284C0.974576 16.1599 1.16102 16.0398 1.29661 15.8684C1.44915 15.6798 1.55085 15.474 1.60169 15.2511L2.94915 7.97277C3.11864 7.02975 3.29661 6.01815 3.48305 4.93797C3.68644 3.84064 3.86441 2.79475 4.01695 1.8003C4.0678 1.56026 4.02542 1.33737 3.88983 1.13162C3.77119 0.908723 3.59322 0.762985 3.35593 0.694403L2.89831 0.54009L3.02542 0H9L8.87288 0.54009L8.26271 0.745839C7.77119 0.883005 7.48305 1.20877 7.39831 1.72315L6.02542 9.02723C5.85593 9.97025 5.67797 10.9818 5.49153 12.062C5.30508 13.1422 5.11864 14.171 4.9322 15.1483C4.8983 15.4054 4.94068 15.6369 5.05932 15.8427C5.17797 16.0484 5.34746 16.1942 5.5678 16.2799L6.1017 16.4599L5.97458 17H0Z" fill="#464366"/>
</svg>
