<svg width="24" height="24" viewBox="0 0 24 24" fill="none" xmlns="http://www.w3.org/2000/svg">
<path d="M23.2504 6.75C23.2504 6.55109 23.1714 6.36032 23.0308 6.21967C22.8901 6.07902 22.6994 6 22.5004 6H16.3129C16.114 6 15.9233 6.07902 15.7826 6.21967C15.642 6.36032 15.5629 6.55109 15.5629 6.75C15.5629 6.94891 15.642 7.13968 15.7826 7.28033C15.9233 7.42098 16.114 7.5 16.3129 7.5H20.6742L14.4529 13.65L8.7792 9.6075C8.63359 9.50375 8.45572 9.45543 8.27764 9.47125C8.09956 9.48706 7.93299 9.56597 7.80795 9.69375L0.964196 16.725C0.836339 16.8692 0.768905 17.0571 0.775883 17.2497C0.782861 17.4423 0.863715 17.6248 1.00167 17.7594C1.13963 17.894 1.3241 17.9703 1.51681 17.9725C1.70953 17.9747 1.8957 17.9026 2.0367 17.7712L8.4342 11.2012L14.0967 15.2362C14.2408 15.3389 14.4166 15.3873 14.593 15.3729C14.7693 15.3585 14.9349 15.2822 15.0604 15.1575L21.7504 8.54625V12.9375C21.7504 13.1364 21.8295 13.3272 21.9701 13.4678C22.1108 13.6085 22.3015 13.6875 22.5004 13.6875C22.6994 13.6875 22.8901 13.6085 23.0308 13.4678C23.1714 13.3272 23.2504 13.1364 23.2504 12.9375V6.75Z" fill="#38E25D"/>
</svg>
