<svg width="22" height="22" viewBox="0 0 22 22" fill="none" xmlns="http://www.w3.org/2000/svg">
<path d="M17.4167 4.58355H16.5V2.75022C16.5 2.50711 16.4034 2.27395 16.2315 2.10204C16.0596 1.93013 15.8265 1.83356 15.5834 1.83356C15.3402 1.83356 15.1071 1.93013 14.9352 2.10204C14.7633 2.27395 14.6667 2.50711 14.6667 2.75022V4.58355H7.33336V2.75022C7.33336 2.50711 7.23679 2.27395 7.06488 2.10204C6.89297 1.93013 6.65981 1.83356 6.4167 1.83356C6.17358 1.83356 5.94043 1.93013 5.76852 2.10204C5.59661 2.27395 5.50003 2.50711 5.50003 2.75022V4.58355H4.58337C3.85402 4.58355 3.15455 4.87328 2.63883 5.38901C2.1231 5.90473 1.83337 6.60421 1.83337 7.33355V8.25022H20.1667V7.33355C20.1667 6.60421 19.877 5.90473 19.3612 5.38901C18.8455 4.87328 18.146 4.58355 17.4167 4.58355Z" fill="white"/>
<path d="M1.83337 17.4169C1.83337 18.1462 2.1231 18.8457 2.63883 19.3614C3.15455 19.8771 3.85402 20.1668 4.58337 20.1668H17.4167C18.146 20.1668 18.8455 19.8771 19.3612 19.3614C19.877 18.8457 20.1667 18.1462 20.1667 17.4169V10.0835H1.83337V17.4169Z" fill="white"/>
</svg>
