<svg width="48" height="56" viewBox="0 0 48 56" fill="none" xmlns="http://www.w3.org/2000/svg">
<path d="M19.799 0C24.4036 5.49096e-08 28.9372 1.1356 32.9981 3.3062C37.059 5.47681 40.5219 8.61542 43.0801 12.444C45.6383 16.2726 47.2128 20.6731 47.6642 25.2555C48.1155 29.838 47.4297 34.461 45.6676 38.7151C43.9055 42.9693 41.1214 46.7231 37.562 49.6443C34.0026 52.5654 29.7777 54.5637 25.2615 55.462C20.7454 56.3603 16.0774 56.131 11.671 54.7943C7.26467 53.4577 3.25596 51.055 0 47.799L5.93969 41.8593C8.21887 44.1385 11.025 45.8204 14.1094 46.756C17.1939 47.6917 20.4615 47.8522 23.6228 47.2234C26.7841 46.5946 29.7415 45.1958 32.2331 43.151C34.7247 41.1062 36.6735 38.4785 37.907 35.5006C39.1405 32.5227 39.6205 29.2866 39.3046 26.0789C38.9887 22.8711 37.8865 19.7908 36.0958 17.1108C34.3051 14.4308 31.881 12.2338 29.0384 10.7143C26.1957 9.19492 23.0222 8.4 19.799 8.4V0Z" fill="#6418C3"/>
</svg>
